/* XPM */
static char *result[] = {
/* columns rows colors chars-per-pixel */
"80 80 234 2 ",
"   c #1F0B00",
".  c #200C01",
"X  c #230F08",
"o  c #221006",
"O  c #22130B",
"+  c #2A140C",
"@  c #241611",
"#  c #2A1612",
"$  c #231A14",
"%  c #2D1A15",
"&  c #2B1619",
"*  c #231D19",
"=  c #2B1D1B",
"-  c #331C1A",
";  c #27211D",
":  c #2A211E",
">  c #34231B",
",  c #3A261D",
"<  c #2D1C22",
"1  c #341E22",
"2  c #2D2522",
"3  c #2E2925",
"4  c #332423",
"5  c #322926",
"6  c #3B2B25",
"7  c #3A262B",
"8  c #352C2A",
"9  c #3B2C2B",
"0  c #3D3526",
"q  c #3E332D",
"w  c #3C2C33",
"e  c #3D3531",
"r  c #422A24",
"t  c #412D2D",
"y  c #473728",
"u  c #43322E",
"i  c #4A352B",
"p  c #412F30",
"a  c #443332",
"s  c #4A3635",
"d  c #483936",
"f  c #4D3A34",
"g  c #4D3B39",
"h  c #523C36",
"j  c #543D39",
"k  c #573C39",
"l  c #633F3E",
"z  c #4C4036",
"x  c #4D413C",
"c  c #544536",
"v  c #55433C",
"b  c #5B433C",
"n  c #5D4A3D",
"m  c #61473E",
"M  c #624A3E",
"N  c #694E39",
"B  c #6A5935",
"V  c #796736",
"C  c #4E3E45",
"Z  c #544542",
"A  c #5A4542",
"S  c #554945",
"D  c #5D4B43",
"F  c #55474B",
"G  c #564B49",
"H  c #5B4C4A",
"J  c #5D5141",
"K  c #5F504C",
"L  c #5F5453",
"P  c #634C42",
"I  c #694D42",
"U  c #634E4A",
"Y  c #684948",
"T  c #724E4F",
"R  c #655245",
"E  c #6C5144",
"W  c #65534B",
"Q  c #6B544B",
"!  c #6B594D",
"~  c #745747",
"^  c #735A4D",
"/  c #694D55",
"(  c #645452",
")  c #6B5652",
"_  c #6D5B53",
"`  c #665858",
"'  c #6D5C5A",
"]  c #765556",
"[  c #735D54",
"{  c #735E5A",
"}  c #716255",
"|  c #756057",
" . c #75625B",
".. c #796359",
"X. c #79645C",
"o. c #775D64",
"O. c #6C6865",
"+. c #756562",
"@. c #7B6661",
"#. c #7D6A64",
"$. c #756868",
"%. c #7C6C6A",
"&. c #76716D",
"*. c #7D6F70",
"=. c #787675",
"-. c #8A773B",
";. c #835A5E",
":. c #8C7849",
">. c #887356",
",. c #835E64",
"<. c #836766",
"1. c #816E6C",
"2. c #82716E",
"3. c #88796C",
"4. c #866B73",
"5. c #8A6F76",
"6. c #847472",
"7. c #87757A",
"8. c #8B7B7D",
"9. c #92767C",
"0. c #7E817F",
"q. c #CFB03F",
"w. c #FFCD00",
"e. c #FFCF0B",
"r. c #FDCE13",
"t. c #F4C91D",
"y. c #FED215",
"u. c #FFD41C",
"i. c #F5CB27",
"p. c #F9CF23",
"a. c #F5CD2D",
"s. c #FED323",
"d. c #E7C43C",
"f. c #F5CD33",
"g. c #FDD939",
"h. c #9B8449",
"j. c #9D8A5A",
"k. c #AA9247",
"l. c #A38D52",
"z. c #A18B5F",
"x. c #A49155",
"c. c #A99458",
"v. c #A99559",
"b. c #B49B56",
"n. c #BDAA5A",
"m. c #8E8776",
"M. c #988A7D",
"N. c #B1A26F",
"B. c #BBA768",
"V. c #C5A847",
"C. c #D1B242",
"Z. c #D9B946",
"A. c #C1A557",
"S. c #E1BF41",
"D. c #C8B266",
"F. c #DFC046",
"G. c #E9C848",
"H. c #EBCC4E",
"J. c #F5D243",
"K. c #F5D348",
"L. c #8C7B84",
"P. c #887D85",
"I. c #927F85",
"U. c #8B8184",
"Y. c #888687",
"T. c #938587",
"R. c #92858B",
"E. c #928A8D",
"W. c #91948D",
"Q. c #948D91",
"!. c #9A8D92",
"~. c #959495",
"^. c #999396",
"/. c #9A959A",
"(. c #96999A",
"). c #9B9B9C",
"_. c #A8958E",
"`. c #A3989B",
"'. c #9CA09F",
"]. c #AAA498",
"[. c #B1A896",
"{. c #949BA2",
"}. c #9C9DA2",
"|. c #A39EA2",
" X c #9DA2A4",
".X c #9FA4A9",
"XX c #9FABAD",
"oX c #A2A3A5",
"OX c #A7A4A5",
"+X c #A2A6AA",
"@X c #AAA5AA",
"#X c #A2ABAD",
"$X c #AAABAD",
"%X c #B4ADA7",
"&X c #B6B2A9",
"*X c #A4AEB1",
"=X c #AAADB0",
"-X c #B1ADB1",
";X c #A5B2B4",
":X c #ABB2B4",
">X c #A7B6B9",
",X c #A9B7B9",
"<X c #A7B8BA",
"1X c #A9B9BB",
"2X c #B3B3B5",
"3X c #B4B6B7",
"4X c #B3BBBC",
"5X c #BABBBD",
"6X c #C4BBA9",
"7X c #C1BCBD",
"8X c #CDC3B2",
"9X c #B4BFC1",
"0X c #B8BFC0",
"qX c #B5C2C3",
"wX c #BBC3C4",
"eX c #BDC7C8",
"rX c #BDC8CA",
"tX c #C6C9C9",
"yX c #C3CBCC",
"uX c #CBCFD0",
"iX c #D0CFD2",
"pX c #CCD3D3",
"aX c #CFD7D8",
"sX c #D3D3D4",
"dX c #D8D6D6",
"fX c #D4D8D9",
"gX c #DADADB",
"hX c #EAE4CA",
"jX c #EFE9CD",
"kX c #F0E9C9",
"lX c #E8E6DB",
"zX c #DDDFE0",
"xX c #DFE0E1",
"cX c #E3E4E4",
/* pixels */
"lXkXkXkXkXkXkXkXkXkXkXkXkXkXkXkXkXkXkXkXkXkXkXkXkXkXkXkXjXhXhX6X[.[.3.' O.O.O.O.&.O.=.=.=.Y.%X%X&XhXhXkXkXkXkXkXkXkXkXkXkXkXkXkXkXkXkXkXkXkXkXkXkXkXkXkXkXkXjXlX",
"kXg.u.u.u.u.u.u.u.u.u.u.u.u.u.u.u.u.u.u.u.u.u.s.g.G.A.b.z.@.#.=.Y.E.(.).'.'.#X;X<X<X<X<X<X9X/.{.'.W.W.N.D.D.f.J.s.u.u.u.u.u.u.u.u.u.u.u.u.u.u.u.u.u.u.u.u.y.g.jX",
"kXu.w.w.w.w.w.w.w.w.w.w.w.w.w.w.w.w.w.w.w.u.S.x.<.$.1.4.P.R.I.Q.(.(.).'.'.'.oX;X*X<X<X<X>XqX=X;X1XqXqX4X0X0X].[.B.G.p.w.w.w.w.w.w.w.w.w.w.w.w.w.w.w.w.w.w.w.u.kX",
"kXu.w.w.w.w.w.w.w.w.w.w.w.w.w.w.w.w.r.S.b.3.o.4.7.5.+.%.R.R.R.Q.^.(.(.'.'.'.XX#X;X<X<X9X>XrX-X*X9X9XwXeXwXuXpXgXsX&X[.n.d.y.w.w.w.w.w.w.w.w.w.w.w.w.w.w.w.w.u.kX",
"kXu.w.w.w.w.w.w.w.w.w.w.w.w.w.w.r.S.c.%.7.L.I.4.4.L.%.$.I.E.Q.Q.(.W.'.'.'.#X#X#X;X<X<X<X9X0X|.*X9X1XqXeXrXyXuXpXdXgXgX5X].B.F.y.w.w.w.w.w.w.w.w.w.w.w.w.w.w.u.kX",
"kXu.w.w.w.w.w.w.w.w.w.w.w.w.w.Z.z.o.5.L.L.L.R.4.7.I.L.4.L.R.E.}.].$X&X4X0X4X0XwX9X9XrXpXuXzX0X9XeXqXqXqXyXtXuXsXsXgXgXdXqXyXOXN.C.e.w.w.w.w.w.w.w.w.w.w.w.w.u.kX",
"kXu.w.w.w.w.w.w.w.w.w.w.w.p.l.o.4.L.L.L.L.L.9.4.L.R.!.T.|.:X-X9XqXqX9X1X1X1X1X1X<X9X9X9X9X9X=XwXrXaXaXaXaXfXsXfXdXdXgXsXwXpXyXOX'.N.f.w.w.w.w.w.w.w.w.w.w.w.u.kX",
"kXu.w.w.w.w.w.w.w.w.w.w.Z.~ ,.<.4.4.L.L.L.L.4.|.-X0X3X@X9X9X9X<X<X<X1X1X1X1X1X1X<X<X;X;X9XXX}.>X1X1X1XqXrXrXfXzXxXxXxX7X7XpXuX2X4X<XW.F.w.w.w.w.w.w.w.w.w.w.u.kX",
"hXu.w.w.w.w.w.w.w.w.w.k.T / ,.,.4.4.5.I.|.-X}.;X,X,X0X|.;X1X<X<X<X<X<X<X,X,X<X,X1X,X,X<X9X{.XX<X,X<X,X>X,X<X1X1XwXaXtX$X$XwXeX=X4XrX4X(.n.e.w.w.w.w.w.w.w.w.u.kX",
"kXu.w.w.w.w.w.w.w.t.B k o./ ,.,.4.R.|.5X9X9X>X*X;X*X@XI.|.<X<X<X;X;X*X X}.^./.^.~.).}. X{.~.XX*X>X,X<X>X<X<X1X<X<X9X2X).5XsXyX@X>XqX1X;XXXz.i.w.w.w.w.w.w.w.u.kX",
"kXu.w.w.w.w.w.w.t.N k P ] Y ;.9.`.3X9X<X>X9X>X>X,X>X#X^.L.`./.}..X.X.X;X;X;X#X$X!.;X*X;XXX X X X)..X*X;X>X,X>X<X<XrX3XT.#X4XpX5X9XqX1X;X;X'.#.a.w.w.w.w.w.w.u.kX",
"kXu.w.w.w.w.w.t.B T T Y / / _.5X9X<X<X<X>X>X>X;X#X X!.~.).3X@X#X<X<X<X<X1X,X1XwX|.1X1X1X<X<X<X<X>X>X>X=X>XoXoX#XXX+X/.#X#X*X}.,XyXyX1X*XXXXX'.:.i.w.w.w.w.w.u.kX",
"kXu.w.w.w.w.w.-.b ] Y Y ,.`.9X>X<X<X<X<X>X*X.X X+X;X>X,X1X9X9XoX1X1X<X;X*XXX;X(.=..XXXXX;X<X9X9X<X<X<X<XqXqX4X*X}.E. X;X;X^. X,X1XqXyX4X#X X XL.k.e.w.w.w.w.u.kX",
"kXu.w.w.w.w.k.z T ] T 4.-X|.*X<X;X*X*X*X XXX*X>X1X<X>X1X1X;X+XP.U.=.O.H a 5 6 % + 4 6 6 x ` O.=.Q.XX>X1X1X1X1X9X1X;X-XOX!.).>X<X<X>X1XqX:XoX'./.Y.n.w.w.w.w.u.kX",
"kXu.w.w.w.d.y b Y ] `.2X@X|.^.}.;X;X+X+X;X<X1X1X1X1X;X{.&.G u % O                             o % 9 G =.(.>X<X<X<X1X1X4X|.|.;X,X<X1X<X<X9X4X).|.2X#.d.w.w.w.u.kX",
"kXu.w.w.s.B z b { 3XrXwX3X/.Q.R.}.}.*X<X<X<X1X1X;XY.G > X         + a = . . . .   . . .       X .     X 4 G 7.*X1X<X,X,X4X:XoX;X1X<X1X<X<X4X4X%X5XY.:.p.w.w.u.kX",
"kXu.w.w.V.0 z ( oX9X>X<X9X;XE.5.^.;X9X<X<X<X*X0.F %     . . . . . . O o . . .     X       @ . . . . X   . . X d Y.*X9X<X<X<X>X.X+X,X<X<X<X;X#X-X-XQ.*.V.w.w.u.kX",
"kXu.w.r.-.0 c ^.9X>X>X>X<X;X^.{.;X9X<X<X<XW.C *       . . . . . . . .   . . .     O       < @ . . . . . . . .   # g W.,X<X<X;X.X(.`.;X;X.XoX+X9X4X^.P.l.y.w.u.jX",
"kXu.w.i.0 z &.>X9X>X<X>X*X/..X9X9X>X9X;X&.=         . . .     . . .   o . .   o . O O & 7 Z a % O o . . X . . .     : &.#XoX#X1X1X$XE./.*X>X<X<XqX=X^.} a.w.u.kX",
"kXu.e.V.0 L '.>X<X<X<X>X{.XX.X}.XX>X{.F o   X * p & X . . X X   . .   O o .     . .     & 3 = X X X . . X o . .   . . o f I.,X<X1X1X-X`.>X>X<X<X,XqX#Xm.V.e.u.kX",
"kXu.e.V z m. X>X<X<X<X.XXX<X<X*X.XQ.H X   . O 4 C - X . . . . . .   O 7 1 X     . . . . . X X .     . . . . . . . X X   X ( #X<X>X;X:X). X<X<X1X,X9X0X(.:.w.u.kX",
"kXu.e.V O.T.*X<X>X9XXX{.>X<X<X<X;X( . .     . . X       . . . . . o O w 4 O o   . . .   . . .     . . . . . .   . . . .   + ' +X$X4X0X0X$X;X1X>X<X<XqX$X:.y.u.kX",
"kXG.-.r P.^.>X<X<X>X{..X<X<X<X9XY.1 . . . . . . . . . . . . . . . .   O o   . . . . . . . . O 1 X . . . .     . . . . .     7 Y.1X9X1X1X>X#X>X1X<X<X9X3Xn x.H.kX",
"hXh.v z ^. X>X<X<X;XR.>X<X<X>X>XO.1 . . . . . . . . . . . . 1 & X .         X . . . . . . . X #   . .   O O . . . + %       & O.9X1X1X>X>X#X>X1X,X<X<X4XO.:Xx.jX",
"kXh.U S  X X X).^.T.~.,X>X<X<X X/ C . .   . X X . . . . . X 7 1     .   . . . . . . . . . . .     o o & 8 8 @ X X . X . . . 1 S :X1X,X1X<X;X;X>X1X<X>X4X$.&Xc.kX",
"kXh.h D $X;X>X;X*XT. X,X>X>X9X{./ ` . .   X 1 t @ X   . . . X . . . . . . .   o @ . . . . . . .     o * w w & X X . . . . . % 7 oX1X1X,X<X;X#X<X>X1X>X;XO.~.x.kX",
"jXh.l U $X;X,X,X1X/.(.*X<X9X9X{./ / X . . . X # . . . . . . .   . . . .   o o & 7 + X . . . . .         @ O . .   . . . . . > d 5X1X,X<X<X*X X<X1X<X>X;X0.5Xc.kX",
"jXh.] U :X>X,X,X1X!.U.].{.XX*X~.F U X . . . . . . . . . . . . . . . . .     X # 1 X X . .   . .   o         . .   .   . . . s H 5X1X<X,X<X*X#X,X>X1X>X*XW.7Xx.kX",
"kXl.] ' wX1X1X,X<X^.|.4X3X-X#XR.$.=.. . . . . . . . . . . . . . . . . .   . . o X . . . . . . .         . . . . . . . . . . m T $X1X>X>X<X#X X<X>X>X>X;XU.2Xc.kX",
"kXl.L.6.^.`.^.@X=X=X}.#XOX|.!.P./.{.+ . . . . . . . . .   . . . . . X . . .     . . . . . . . .   X   o . + . . . . . . . o 1.8.`.oXOX$X#X=X$X2X#XOXoX`.%X5Xv.kX",
"kXl.!.iXgXdX&XsXcXiX5XgXgXsX0X5XfX@X1 . . . . . . . . . . . . . . @ < @ X . . . . . . . . . # 1 o .   . . . . . . . . . . o ~.aXyXpXpXpXtXgXcXcXuXgXgXgXxXsXv.kX",
"kXl.}.0XwXeX2X9XrXwX4XyXtXdX5X0XfX!.& . . . . .   . . . . . . . . . O .   . . . . . . . . . + - X . . . . . . . . . . . . o U.qXqXeXeXeX4X2XwXwX4XeXeXeXeXfXv.kX",
"kXx.(.>X*X*X:X$X#X X X*X*X+XE.+X9X~.+ . . . . O . . . . . . . . . . . . .   . . . . . . . . .   . . . . . . . . . . . . . X E.#XoX*X;X;X}.).}..X>X,X<XqX*XXXv.kX",
"kXx.$X$X;X>X,X>X^.}.;X,X;X*X}.^.XXm.o . . . . X . . . . O . . . . . . . . . . . . . . . . .   . . . . . X . . . . . . . . X (.,X;X,X}. X#X#X#X#X#X*X*X#X X(.l.kX",
"kXv.4X:X^.~.$X:X#X>X>X;X;X,X<X;XXX0.. . . .   . . . . . . . . . . . . . . . . . . . . . .   . . . . . . X X .   . . . . . o E.*X#X#XW.U.^.;X>X9X4X#X;X*X#X Xx.kX",
"kXv.$X:X X#X4XqX,X*X X>X<X,X<X;X*X0.X . . . . . .   . . . . . . . . . . O . . . X . . . . X . .   . . . . . . . . . . . . o Y.3X}.).+X X X;X*X<X1X;X^. XXX'.x.kX",
"kXv.1XqX$X X#X#X#X^.XX<X,X,X#X(.}.` X   . . . . . . . . . . .   . . . . . . . . X . . . . .     . . . . . . . . . . . . . o Y.$X X:X4X*X>X>X X X>X>X(.=X0X#Xx.kX",
"kXv.@X@X+X*X#X;X;X}.XX*X#X X.X;X*X=.X   . . . . . . . . .   o   . . . . . . . . . . . . . . .   . . . .   . . . . . . . . o ~.,XXXqX9X X#X=X(. X X#X;X<X1X'.l.kX",
"kXc.$X X X X.X+X#X}.}.!.`.2X=X>X,X=.X   . . . .     . . . . . . . .     X   . . . . . . . . X X .   . . . . . . . . . . . o W.>X.X.XoXoX,X;X+X#X X*X*X;X*X(.l.kX",
"kXl.Y.#X;X#X:X#X4X,X1X*X,X1X:XXX}.) . . .   .   X X . . . . . .   .   O $ O . . . .   . . . O < X   . . . . . . . . . . . o =.*X*X;X-X).;X*X#X:X4X:X4X1X:XW.l.kX",
"kXK.:.g G H K S K H K G H S S S a % . . . . . O & = O       . . . . . . X     . . .   . . . . X . . . . .   . . . . .   . . - d Z S S x S G H K K K K K v :.K.kX",
"kXu.C.6 d u d s d u i f s u u d - . . . . . . . . o   X . . . . . . . . . . . . . . . . . . . . . .   . . . . . . . . . . .   - d y d s s d u s a d u s 6 q.u.kX",
"kXu.q.i d q > v d a : d c g 8 6 , . . . . . . . . . . . . . . . .   . . . . . . . . . . . . . . . . . . . . . . . . . . . .   , d d : g z f 5 9 v f a 2 y C.u.kX",
"kXu.C.i b a 6 M b b 4 f b b t 8 r . . . . . . . .   . . . . .   . . . . . . .   o . . . . . .   . . . . . . . . . . . . . o . r b k 5 c b b 6 q M b f 2 y C.u.kX",
"kXu.C.c M u 5 E D k 4 c Q b 9 q r . . . . . . . . . . . . .     . . . . . . . .   . . . . . . . . . .   .   . . . . . . . .   y n j 3 b Y b 8 u E D f 5 h C.u.kX",
"kXu.C.n P u 5 Q P v 3 h Q P 9 e i . . . . . . . . . . . . . .   . .   o .   . . . . . . .   . . . . . . . . . . . . . . . . . i R k 2 b Q D 6 q ^ P s 5 v C.u.kX",
"kXu.C.b M u 5 Q R b 2 v [ M 9 e h . . . . . . .   . . .   o o   o O X   . . . .   . . . . . . . . . . . . . . . .   . . . .   i P k 3 b Q n 6 q [ P f 5 v C.u.kX",
"kXu.C.P P a 5 Q R k 2 v _ M t e i . . . . . . . . . . .         X o . . . . . . . . . . . . . . . . . . . . . . . . . . . . . f R h 3 D ! M 5 q [ P f 5 Z C.u.kX",
"kXu.q.D P u 5 ! Q b 2 j _ M 9 q i X . . . .     . . . .   o       o o   o       .     . . .   o .   . . . . . . . . . . . .   s R j 3 b _ M 6 q [ P d 5 n C.u.kX",
"kXu.C.P P u 5 Q R k 2 v [ M 9 e h 4 4 # O o o   . . . .       o O             $ $ O . . .   .   . . . . . . . . . . . . .   . i R j 3 D  .m 8 q [ P f 3 v C.u.kX",
"kXu.C.D P u 6 Q R c 4 v } M 9 e f t s p 5 = $ O O o .     o o o       o   o     O . . . . .     . . . .   . . .   . . . . . . h W j 2 U +.M 6 u [ P f 5 v C.u.kX",
"kXu.C.n P a 5 Q W b 3 v +.P t e f t s s s w 3 ; * $ $ $ O O o     o     O O O O o . . . . .     . . . . . . . . . . . . . . . Z Q h 2 D  .n 8 e { P f 5 S C.u.kX",
"kXu.C.D M u 5 Q R b 3 b $.M u q f t s a a 9 a a 8 ; ; * @ $ $ o O O     O O O O . . . .       o . . . . . . . . . . . . . .   j Q h 3 U %.b 6 a @.R f 5 Z C.u.kX",
"kXu.C.J R u 5 _ Q j 3 v $.M 9 e f 6 p a a s f f u 9 7 & * * $ O * * $ $ o o     . . . o o O @ o . . . . . . . . . . . . . .   F _ h 2 H %.P 8 9 $.W g 3 v C.u.kX",
"kXu.C.( P u 6 { _ v 3 v *.M 9 a f a s a a a s p 9 s s s 8 = $ $ * * * * * $ O o . . . .     . . . . . . . .   . . . . . . .   F _ f 2 U $.M 6 e #.W f 5 A C.u.kX",
"kXu.C.` R u 5 { _ k 3 v *.P q e h U ) Z a s h a 9 e s s g a 5 * * * * * * $ * $ @   @ O @ o . . . . .   . . . . . . . . . . . F _ h 2 U %.n 8 q %.Q f 5 v C.u.kX",
"kXu.C.W P u 4 +._ v 2 b %.m 9 e g _ 6.1.H S A g s s a a d s w 3 3 ; * * * * * * ; O ; * * $ $ @ .               . . . .   .   Z ( c 3 U $.M 6 q @.R f 3 v C.u.kX",
"kXu.C.R P a 5 +._ k 2 v +.P 9 e z W #.#.#.#.#. .( k s p a s s a e d 9 : * * * ; ; @ $ $ ; ; ; $ $ O $ $ @ O     . . .   . .   v Q h : P +.b 8 q $.Q f 3 S C.u.kX",
"kXJ.k.M P u 5 { ) j 3 c _ M 9 a x S '  .#.#.#.@.....{ U A h s s q d f u 4 ; * : : # O $ $ $ $ $ * * * * * * $ $ X X     . .   g W k 2 U $.b 6 q X.W g 5 S k.H.kX",
"&Xn , P P u 5 { _ v 2 v [ P 9 e Z K $.K 1.6. ...#.#.#.#.@.{ U Z a a u t a t 6 = $ $ ; $ O $ * ; 3 * $ * * * * $ $ @ O $ o & * f W h 2 P +.m 8 a [ R g 3 J c +.#.",
", z , R P t 5 [ ! k 3 v _ P 9 a Z _ *.S  . .W  .#.X.X.@.#.+.) } _ U k f s s s s 9 4 ; * $ @ $ * * $ @ $ $ * * $ @ $ * * * : : h R h 3 D { m 6 q [ P f 3 S D 2.v ",
"+ y 6 H m a 5 [ W k 2 j ! b q e Z R %.S @.#.#.X.[ ..X.| _ _ +.#.<.#.X.! P j s g j s q ; ; : ; ; * * $ $ @ @ $ $ * * * * * ; : z Y j 2 b Q D 8 q ! P f 5 G H [ v ",
"> d q H b u 5 Q D j 2 v ) b 9 e H _ 7.G #.#.#.#.#.X.X.<.! } 1.#.#.#.#.#.<.{ ) A g t p 9 q 5 ; * O $ * * * @ O * * * * * * 5 4 v D h 2 D Q v 6 q [ A s 5 H A Z u ",
", c u D v u 8 Q A h 3 c ) v e a H P &.K #.#.#.2.7.<.[ ..! | #.#.#.#.1.<.#.@.{ { { ) j g s s q 3 * O $ * * * * * * * * * * 7 5 z b s 5 D U h 8 u ) b s 8 H W #.d ",
"5 s e H h a 8 Q D s 5 v Q h q q Z _ 6.( X.X.#.1.#.X.#.#.#...| X.%.3.=.+._  .X.#.#.1.! W W d a f i : $ $ $ * * * * * * * ; 9 9 Z Z s 5 n W g 9 u E v d 5 G W 2.c ",
"q A g D Q P d D W Q x v Q Q P g P )  .W ..[ ..X.#.#.#.#.#.2.2.X... .[  .@.#.#.#.1.#.X.} #. .H d f a t $ ; * $ * * * * * 3 Z g x W Q g v R Q D x Q Q P f Z W 6.Z ",
"z %.#.6.X...Q H Q ....[ ^ X.2.$. .X.4._ #.#.| X.<.#.#.#.7.2.#.....X.#.#.#.#.#.#.#.#.7...#.#.#.} D S f s a 5 : * * * * * 3 { ..Q Q ....{ @.( ! +.} ( X.[ X.$. .d ",
"f 6.8.U.6.<.2.1.$._ +.#.$.<.@.#.2.@.6.` #.#.#...X.#.X.X.....| X.<.2.=.#.@.#.#.<.#.2.&.X.#.#.#.#. .W _ X.) A s 5 ; * * * : D '  .%.#...#. .@.#...%. .6.2.#.8...r ",
"f X.#. .$.X.X.{ { ] ..{ X.2.' ] ..Q Q D #.#.<.#...| | ..#.#.X... .X.#...} X.X...} _  .#.#.#.X. .} X.#.<.#.#.{ Q v 9 2 * : C H ' [ [ W ..[ { @.Y { ) { [ P [ U , ",
"v Q D v P n P M N I N P P Y D P P M M S #.X.X.#.<.<.X.| | ..#...[ @.#.<.@.[ ..X.@._ )  ...|  .X.......@.#.#.#.#.@._ g 8 8 ' Q E Q ) A I I I Y b P A Y M N I I i ",
"Z Q I M Q Q X. .P ^ ' b b b k A b f D | ....| ......| X.#.X.| W W } } .. .[ | .. .| | X.X.X.X.} @.%.#.[ ..X.@.#. .} } ! ( ( W Q I Q Q R P P m P { P Y k I I Q b ",
"h E I I E E [ +.n E Y m Q R P P v a ^ #.#.#.#.#.X.....#.#.#.*.|  .+.X.@.X.X...2...#.#.#.#.#.X.! } %.@.#.#.X._ Q  .#.| X.<.%.Z A N Y E Y I Y I N P f m P m m Q x ",
"#.E E E E M Q ) n E E ~ ~ ^ R M M 0 S  .#.#.#.#.#...X.1.#.2.@.X.#.#.1.2.6.#.| X.....#.X. . . .@.X._ | #.#.1.X._ #.1.X.1.4.o.d P E E E E ^ ^ >.j.h.Q n ~ ~ ~ [ 3.",
"jXK.f.G.A.V.C.G.f.a.f.a.a.f.f.f.f.C.> x _ #.X.X.| ..#.#.....#.#.<.6.6.$._ _ X.<.8.....X.X.#.#.#.#.#._ X.#.#.#.X.| X.2.2.` k Z.f.f.f.f.a.a.i.s.e.r.p.i.a.a.f.J.kX",
"kXu.w.w.w.w.w.w.w.w.w.w.w.w.w.w.w.u.B ; 3 Z O.$.........| #.#.#.X.+.' [ X.2.1.8.U...X.#.#.1.>.#.#.#.X...#.#.2.2.%.[ | Q k :.t.w.w.w.w.w.w.w.w.w.w.w.w.w.w.w.u.kX",
"kXu.w.w.w.w.w.w.w.w.w.w.w.w.w.w.w.w.d.B ; 2 8 Z L K _ +.#.#.X.X.X.@.#.#.#.2.| 2.6.[ X...X.X.1.X.2.6.3.2.6.7.%.@.! n n M :.d.w.w.w.w.w.w.w.w.w.w.w.w.w.w.w.w.u.kX",
"kXu.w.w.w.w.w.w.w.w.w.w.w.w.w.w.w.w.w.p.k.B 3 3 3 3 e e G L H ` %.*.7.2.2.2.%.8.@.2.2.%...1.7.8.m.Q.E.3.+.U n c c v >.A.p.w.w.w.w.w.w.w.w.w.w.w.w.w.w.w.w.w.u.kX",
"kXu.w.w.w.w.w.w.w.w.w.w.w.w.w.w.w.w.w.w.w.s.F.h.c 0 8 8 9 9 d 9 f j Q { {  .X.X.U _ ..[ E [ [ 1.=.8.6.7.2.Z E ~ b.G.p.w.w.w.w.w.w.w.w.w.w.w.w.w.w.w.w.w.w.w.u.kX",
"jXg.y.u.u.u.u.u.u.u.u.u.u.u.u.u.u.u.u.u.u.u.u.s.J.H.n.b.h.n N y r h k m M I I M d n M M E E [ ..3.M.M.N.D.D.K.K.u.u.u.u.u.u.u.u.u.u.u.u.u.u.u.u.u.u.u.u.u.y.g.kX",
"lXkXkXkXkXkXkXkXkXkXkXkXkXkXkXkXkXkXkXjXkXkXkXkXkXkXjXjXhXhXhXhX6X%X6X_.[ Q E M.m.n n M M.6X6X8XhXkXkXjXjXkXkXkXhXkXkXkXkXkXkXkXkXkXkXkXkXkXkXkXkXkXkXkXkXkXkXlX"
};
