/* XPM */
static char *f0db4a02be3f42859dbe00e94cce4a0cE1cUgFtN6ylYj5gJ[] = {
/* columns rows colors chars-per-pixel */
"80 80 217 2 ",
"   c #0B0102",
".  c #0A0606",
"X  c #140405",
"o  c #1B0609",
"O  c #160A0C",
"+  c #1B0C11",
"@  c #27090D",
"#  c #3A0009",
"$  c #250D13",
"%  c #2C0E13",
"&  c #2A0F18",
"*  c #3D0C15",
"=  c #390D19",
"-  c #251114",
";  c #2E1015",
":  c #2B1219",
">  c #321015",
",  c #33141B",
"<  c #391318",
"1  c #3A151C",
"2  c #3C181E",
"3  c #242117",
"4  c #291F21",
"5  c #3A1622",
"6  c #341A21",
"7  c #3C1A23",
"8  c #272425",
"9  c #382B27",
"0  c #373535",
"q  c #47151D",
"w  c #56141D",
"e  c #431B23",
"r  c #4B1B23",
"t  c #491428",
"y  c #441B29",
"u  c #4C1D2C",
"i  c #531D25",
"p  c #5A1826",
"a  c #5A1A27",
"s  c #521D2A",
"d  c #4D1F31",
"f  c #531E31",
"g  c #661D2A",
"h  c #432329",
"j  c #4B212B",
"k  c #43292A",
"l  c #54222B",
"z  c #5B222C",
"x  c #583428",
"c  c #4F2730",
"v  c #532333",
"b  c #5B2334",
"n  c #572A34",
"m  c #5B2A36",
"M  c #5B253A",
"N  c #5E2C3A",
"B  c #483236",
"V  c #593433",
"C  c #62232D",
"Z  c #6A252F",
"A  c #66392D",
"S  c #642531",
"D  c #6C2532",
"F  c #642936",
"G  c #6C2935",
"H  c #642B3B",
"J  c #6A2E3C",
"K  c #732A37",
"L  c #772A39",
"P  c #722D3C",
"I  c #67363B",
"U  c #69303E",
"Y  c #76363C",
"T  c #504732",
"R  c #59463B",
"E  c #65493C",
"W  c #735335",
"Q  c #6C653F",
"!  c #553341",
"~  c #662B40",
"^  c #6B2D43",
"/  c #722E44",
"(  c #742F49",
")  c #6B3341",
"_  c #733343",
"`  c #7A3445",
"'  c #75324B",
"]  c #7B3549",
"[  c #753948",
"{  c #7C3A4B",
"}  c #7E3552",
"|  c #7C3B54",
" . c #5D4744",
".. c #684E47",
"X. c #795945",
"o. c #7A6843",
"O. c #895936",
"+. c #886937",
"@. c #936439",
"#. c #8B7C3A",
"$. c #A97339",
"%. c #843445",
"&. c #84364A",
"*. c #833B4D",
"=. c #893B4D",
"-. c #813553",
";. c #843A53",
":. c #8C3E52",
">. c #853B58",
",. c #893A5A",
"<. c #923E53",
"1. c #993F52",
"2. c #9A444E",
"3. c #864657",
"4. c #8D4155",
"5. c #8D435B",
"6. c #914155",
"7. c #94445A",
"8. c #984359",
"9. c #9B455C",
"0. c #9C495E",
"q. c #A1455D",
"w. c #A2485F",
"e. c #A8535B",
"r. c #8C6746",
"t. c #997947",
"y. c #8C7352",
"u. c #927B52",
"i. c #AB7449",
"p. c #8D4861",
"a. c #924362",
"s. c #964966",
"d. c #9D4B62",
"f. c #954B69",
"g. c #9B4C6B",
"h. c #A44C64",
"j. c #A94D65",
"k. c #A04E6E",
"l. c #AD4F69",
"z. c #B44E6A",
"x. c #A65067",
"c. c #AA5167",
"v. c #AD516A",
"b. c #B3536D",
"n. c #B9576B",
"m. c #A75877",
"M. c #B65570",
"N. c #BA5571",
"B. c #B85A73",
"V. c #BC5A75",
"C. c #D47E4B",
"Z. c #C25A76",
"A. c #C55875",
"S. c #C45D79",
"D. c #CA5E7B",
"F. c #C4617B",
"G. c #CC627E",
"H. c #D1627F",
"J. c #95843B",
"K. c #A4883D",
"L. c #AC923E",
"P. c #BCA23C",
"I. c #C59C3F",
"U. c #CBAC3E",
"Y. c #DAB83F",
"T. c #E5BF3B",
"R. c #FFCD00",
"E. c #FECF0B",
"W. c #FDCF14",
"Q. c #F7CD1E",
"!. c #FBCF1C",
"~. c #FED114",
"^. c #FFD41C",
"/. c #EFC92F",
"(. c #F1C727",
"). c #F7CE25",
"_. c #F9CF23",
"`. c #F3CC2B",
"'. c #FAD024",
"]. c #E6C435",
"[. c #EDC932",
"{. c #E9C43D",
"}. c #F0C931",
"|. c #F1CB39",
" X c #FFDA38",
".X c #9D8B53",
"XX c #A78747",
"oX c #AD974A",
"OX c #B99946",
"+X c #AF9B5A",
"@X c #BDA342",
"#X c #9E896D",
"$X c #B9A273",
"%X c #D19153",
"&X c #C8A847",
"*X c #D1A447",
"=X c #D9B545",
"-X c #CCB558",
";X c #D5B852",
":X c #E0BD40",
">X c #C58368",
",X c #E7C643",
"<X c #EDD054",
"1X c #B76484",
"2X c #CC6480",
"3X c #D36683",
"4X c #D86986",
"5X c #DC6D8A",
"6X c #E26F8D",
"7X c #E57392",
"8X c #EB7594",
"9X c #9A8B8C",
"0X c #AC9481",
"qX c #FFF2BE",
"wX c #F0E9C9",
"eX c #E8E6DB",
"rX c #FFFDF2",
/* pixels */
"eXwXwXwXwXwXwXwXwXwXwXwXwXwXwXwXwXwXwXwXwXwXwXwXwXwXwXwXwXwXwXwXwXwXwXwXwXwXwXwXwXwXwXwXwXwXwXwXwXwXwXwXwXwXwXwXwXwXwXwXwXwXwXwXwXwXwXwXwXwXwXwXwXwXwXwXwXwXwXeX",
"wX X~.'.^.^.^.^.^.^.^.^.^.^.^.^.^.^.^.^.^.^.^.^.^.^.^.^.^.^.^.^.^.^.^.^.^.^.^.^.^.^.^.^.^.^.^.^.^.^.^.^.^.^.^.^.^.^.^.^.^.^.^.^.^.^.^.^.^.^.^.^.^.^.^.^.^.~. XwX",
"wX^.R.R.R.R.R.R.R.R.R.R.R.R.R.R.R.R.R.R.R.R.R.R.R.R.R.R.R.R.R.R.R.R.R.R.R.R.R.R.R.R.R.R.R.R.R.R.R.R.R.R.R.R.R.R.R.R.R.R.R.R.R.R.R.R.R.R.R.R.R.R.R.R.R.R.R.R.^.wX",
"wX^.R.R.R.R.R.R.R.R.R.R.R.R.R.R.R.R.R.R.R.R.R.R.R.R.R.R.R.R.R.R.R.R.R.R.R.R.R.R.R.R.R.R.R.R.R.R.R.R.R.R.R.R.R.R.R.R.R.R.R.R.R.R.R.R.R.R.R.R.R.R.R.R.R.R.R.R.^.wX",
"wX^.R.R.R.R.R.R.R.R.R.R.R.R.R.R.R.R.R.R.R.R.R.R.R.R.R.R.R.R.R.R.R.R.R.R.R.R.R.R.R.R.R.R.R.R.R.R.R.R.R.R.R.R.R.R.R.R.R.R.R.R.R.R.R.R.R.R.R.R.R.R.R.R.R.R.R.R.^.wX",
"wX^.R.R.R.R.R.R.R.R.R.R.R.R.R.R.R.R.R.R.R.R.R.R.R.R.R.R.R.R.R.R.R.R.R.R.R.R.R.R.R.R.R.R.R.R.R.R.R.R.R.R.R.R.R.R.R.R.R.R.R.R.R.R.R.R.R.R.R.R.R.R.R.R.R.R.R.R.^.wX",
"wX^.R.R.R.R.R.R.R.R.R.R.R.R.R.R.R.R.R.R.R.R.R.R.R.R.R.R.R.R.R.R.R.R.R.R.R.R.R.R.R.R.R.R.R.R.R.R.R.R.R.R.R.R.R.R.R.R.R.R.R.R.R.R.R.R.R.R.R.R.R.R.R.R.R.R.R.R.^.wX",
"wX^.R.R.R.R.R.R.R.R.R.R.R.R.R.R.R.R.R.R.R.R.R.R.R.R.R.R.R.R.R.R.R.R.R.R.R.R.R.R.R.R.R.R.R.R.R.R.R.R.R.R.R.R.R.R.R.R.R.R.R.R.R.R.R.R.R.R.R.R.R.R.R.R.R.R.R.R.^.wX",
"wX^.R.R.R.R.R.R.R.R.R.R.R.R.R.R.R.R.R.R.R.R.R.R.R.R.R.R.R.R.R.R.R.R.R.R.R.R.R.R.R.R.R.R.R.R.R.R.R.R.R.R.R.R.R.R.R.R.R.R.R.R.R.R.R.R.R.R.R.R.R.R.R.R.R.R.R.R.^.wX",
"wX^.R.R.R.R.R.R.R.R.R.R.R.R.R.R.R.R.R.R.R.R.R.R.R.R.R.R.R.R.R.R.R.R.R.R.R.R.R.R.R.R.R.R.R.R.R.R.R.R.R.R.R.R.R.R.R.R.R.R.R.R.R.R.R.R.R.R.R.R.R.R.R.R.R.R.R.R.^.wX",
"wX^.R.R.R.R.R.R.R.R.R.R.R.R.R.R.R.R.R.R.R.R.R.R.R.R.R.R.R.R.R.R.R.R.R.R.R.R.R.R.R.R.R.R.R.R.R.R.R.R.R.R.R.R.R.R.R.R.R.R.R.R.R.R.R.R.R.R.R.R.R.R.R.R.R.R.R.R.^.wX",
"wX^.R.R.R.R.R.R.R.R.R.R.R.R.R.R.R.R.R.R.R.R.R.R.R.R.R.R.R.R.R.R.R.R.R.R.R.R.R.R.R.R.R.R.R.R.R.R.R.R.R.R.R.R.R.R.R.R.R.R.R.R.R.R.R.R.R.R.R.R.R.R.R.R.R.R.R.R.^.wX",
"wX^.R.R.R.R.R.R.R.R.R.R.R.R.^.~.R.R.R.R.R.R.R.R.R.R.R.R.R.R.R.R.R.R.R.R.R.R.R.R.R.R.R.R.R.R.R.R.R.R.R.R.R.R.R.R.R.R.R.R.R.R.R.R.R.R.R.R.R.R.R.R.R.R.R.R.R.R.^.wX",
"wX^.R.R.R.R.R.R.R.R.R.R.R.R.`.XXW.R.R.R.R.R.R.R.R.R.R.R.R.R.R.R.R.R.R.R.R.R.R.R.R.R.R.R.R.R.R.R.R.R.R.R.R.R.R.R.R.R.R.R.R.R.R.R.R.R.R.R.R.R.R.R.R.R.R.R.R.R.^.wX",
"wX^.R.R.R.R.R.R.R.R.R.R.R.R.R.&Xs i.=X).R.R.R._.E.R.R.R.R.R.R.R.R.R.R.R.R.R.R.R.R.R.R.R.R.R.R.R.R.R.R.R.R.R.R.R.R.R.R.R.R.R.R.R.R.R.R.R.R.R.R.R.R.R.R.R.R.R.^.wX",
"wX^.R.R.R.R.R.R.R.R.R.R.R.R.R.R.}.F =.&.&XR._.W =XR.R.R.R.R.R.R.R.R.R.R.R.R.R.R.R.R.R.R.R.R.R.R.R.R.R.R.R.R.R.R.R.R.R.R.R.R.R.R.R.R.R.R.R.R.R.R.R.R.R.R.R.R.^.wX",
"wX^.R.R.R.R.R.R.R.R.R.R.R.R.R.R.qX9Xg l.p ;X;X&.n.].R.R.R.R.R.R.R.R.R.R.R.R.R.R.R.R.R.R.R.R.R.R.R.R.R.R.R.R.R.R.R.R.R.R.R.R.R.R.R.R.R.R.R.R.R.R.R.R.R.R.R.R.^.wX",
"wX^.R.R.R.R.R.R.R.R.R.R.).I.E.rXrX0Xw <.<.m <X[ z.2.}.R.R.R.R.R.R.R.R.R.R.R.R.R.R.R.R.R.R.R.R.R.R.R.R.R.R.R.R.R.R.R.R.R.R.R.R.R.R.R.R.R.R.R.R.R.R.R.R.R.R.R.^.wX",
"wX^.R.R.R.R.R.R.R.R.R.R.R.W @.E.E.t.g g / b 9 8 *.b.*XR.E.R.R.R.R.R.R.R.R.R.R.R.R.R.R.R.R.R.R.R.R.R.R.R.R.R.R.R.R.R.R.R.R.R.R.R.R.R.R.R.R.R.R.R.R.R.R.R.R.R.^.wX",
"wX^.R.R.R.R.R.R.R.R.R.R.R.@X# U.R.X.p i %.&.p 5.>.-.3.=XL.R.R.R.R.R.R.R.R.R.R.R.R.R.R.R.R.R.R.R.R.R.R.R.R.R.R.R.R.R.R.R.R.R.R.R.R.R.R.R.R.R.R.R.R.R.R.R.R.R.^.wX",
"wX^.R.R.R.R.R.R.R.R.R.R.R./.q W ;Xz a r L v.J <.z.v.7.= =XR.R.R.R.R.R.R.R.R.R.R.R.R.R.R.R.R.R.R.R.R.R.R.R.R.R.R.R.R.R.R.R.R.R.R.R.R.R.R.R.R.R.R.R.R.R.R.R.R.^.wX",
"wX^.R.R.R.R.R.R.R.R.R.R.R.T.* 2 < D C G z *.b.9.7.7.M.z.&XR.R.R.R.R.R.R.R.R.R.R.R.R.R.R.R.R.R.R.R.R.R.R.R.R.R.R.R.R.R.R.R.R.R.R.R.R.R.R.R.R.R.R.R.R.R.R.R.R.^.wX",
"wX^.R.R.R.R.R.R.R.`.*XR.R.OXp 1 1 S g =.b.J -.7.h.-.a.l.h.T.R.R.R.R.R.R.R.R.R.R.R.R.R.R.R.R.R.R.R.R.R.R.R.R.R.R.R.R.R.R.R.R.R.R.R.R.R.R.R.R.R.R.R.R.R.R.R.R.^.wX",
"wX^.R.R.R.R.R.R.R.+.* T.R..Xp [   r K ` h.h.[ F :.2Xl.h.l.%XR.R.R.R.R.R.R.R.R.R.R.R.R.R.R.R.R.R.R.R.R.R.R.R.R.R.R.R.R.R.R.R.R.R.R.R.R.R.R.R.R.R.R.R.R.R.R.R.^.wX",
"wX^.R.R.R.R.R.R.R.&X* r r.R l c.*.7 r P 9.9.Z.h.U b.x.h.b.v.).R.R.R.R.R.R.R.R.R.R.R.R.R.R.R.R.R.R.R.R.R.R.R.R.R.R.R.R.R.R.R.R.R.R.R.R.R.R.R.R.R.R.R.R.R.R.R.^.wX",
"wX^.R.R.R.R.R.R.R.!.x w g q U z.9.3.{ 0.h.9.q.6X5Xh.<.7.7.j.>X'.R.R.R.R.R.R.R.R.R.R.R.R.R.R.R.R.R.R.R.R.R.R.R.R.R.R.R.R.R.R.R.R.R.R.R.R.R.R.R.R.R.R.R.R.R.R.^.wX",
"wX^.R.R.R.R.R.R.R.R.).i.C Z F 7.{ v.&.4.7.;.&.b.2XF.M.N.z.l.N.5.XX=X_.E.R.R.R.R.R.R.R.R.R.R.R.R.R.R.R.R.R.R.R.R.R.R.R.R.R.R.R.R.R.R.R.R.R.R.R.R.R.R.R.R.R.R.^.wX",
"wX^.R.R.R.R.R.R.R.R.R.R.;X< l ) H 7.:._ h.*.] l.z.5XV.8.N.l.c.Z.1.f V %X%X+.=X(.R.R.R.R.R.R.R.R.R.R.R.R.R.R.R.R.R.R.R.R.R.R.R.R.R.R.R.R.R.R.R.R.R.R.R.R.R.R.^.wX",
"wX^.R.R.R.R.R.R.R.R.R.~..X< 2 r H m 9.0.` 9.;.M.N.N.V.-.F H / <.F.b.=.9.` h.e.C.$.(.R.R.R.R.R.R.R.R.R.R.R.R.R.R.R.R.R.R.R.R.R.R.R.R.R.R.R.R.R.R.R.R.R.R.R.R.^.wX",
"wX^.R.R.R.R.R.R.R.R.R.`.* w 1 j H b , 7.h./ <.7.N.3XZ.M.=.H < u 9.j.0.6., F F.2X@ &XR.R.R.R.R.R.R.R.R.R.R.R.R.R.R.R.R.R.R.R.R.R.R.R.R.R.R.R.R.R.R.R.R.R.R.R.^.wX",
"wX^.R.R.R.R.R.R.R.R.R.R.XXV < r 5 H H H *.:.` { h.2XN.S.h.b.h.> l V.F.F.b.b.2XS.< [.R.R.R.R.R.R.R.R.R.R.R.R.R.R.R.R.R.R.R.R.R.R.R.R.R.R.R.R.R.R.R.R.R.R.R.R.^.wX",
"wX^.R.R.R.R.R.R.R.R.R.R.E.E.,XA r 2 ) 0.P v H { l.{ h.l.z.8.h.J X h.H.b.b.] s.V.=.oXR.R.R.R.R.R.R.R.R.R.R.R.R.R.R.R.R.R.R.R.R.R.R.R.R.R.R.R.R.R.R.R.R.R.R.R.^.wX",
"wX^.R.R.R.R.R.R.R.R.R.R.~.R.;Xx # @ - n 7.<./ G ] *.N.0.x.v.h.P   m 3X9.v.[ l { [ m /.R.R.R.R.R.R.R.R.R.R.R.R.R.R.R.R.R.R.R.R.R.R.R.R.R.R.R.R.R.R.R.R.R.R.R.^.wX",
"wX'.R.R.R.R.R.R.R.R.R.T.+.~.~.$X$XR X - m :.=.Y C S _ F U v.2XN.J e V.F.c.V.v.h._ b B K.R.R.R.R.R.R.R.R.R.R.R.R.R.R.R.R.R.R.R.R.R.R.R.R.R.R.R.R.R.R.R.R.R.R.^.wX",
"wX^.R.R.R.R.R.R.R.R.R.L.w r.|.<X#Xk i z @ + O - < j _ _ z c.F.V.b.C w.3XM.v.2Xd.M.5.l @.W.R.R.R.R.R.R.R.R.R.R.R.R.R.R.R.R.R.R.R.R.R.R.R.R.R.R.R.R.R.R.R.R.R.^.wX",
"wX^.R.R.R.R.R.R.R.R.R.!.O.Z Y $ p %.K D z 2 - : q b 7 4.L j.Z.b.j.z { D.V.7.F.0.M.D.*., `.R.R.R.R.R.R.R.R.R.R.R.R.R.R.R.R.R.R.R.R.R.R.R.R.R.R.R.R.R.R.R.R.R.^.wX",
"wX^.R.R.R.R.R.R.R.R.R.R.^.XXL %.d.x.M.q.j , ; : j ` 9 &.` z.n.b.v.h.0.S.2X[ v.F.b.j.v.] y.^.R.R.R.R.R.R.R.R.R.R.R.R.R.R.R.R.R.R.R.R.R.R.R.R.R.R.R.R.R.R.R.R.^.wX",
"wX^.R.R.R.R.R.R.R.R.R.R.R.R.{.+.s ` P K w > > < 2 N.6Xh.z 6.m V.S.b.3Xb.5X) 4.6Xv.M.V.F.9.j &XR.R.R.R.R.R.R.R.R.R.R.R.R.R.R.R.R.R.R.R.R.R.R.R.R.R.R.R.R.R.R.^.wX",
"wX^.R.R.R.R.R.R.R.R.R.R.R.R.R.R.[.=X,Xo.k ,X+XX ) 7.:.6.z ` 0.4X4.j F.h.4X) [ H.F.d.4.*.4.b.b [.R.R.R.R.R.R.R.R.R.R.R.R.R.R.R.R.R.R.R.R.R.R.R.R.R.R.R.R.R.R.^.wX",
"wX^.R.R.R.R.R.R.R.R.R.R.R.R.R.R.R.R.R.R.R.R.W.0 :.7.:.` F 4.e H.:.O v.=.F.{ , j.3X5X8.3.d.v.q.u.R.R.R.R.R.R.R.R.R.R.R.R.R.R.R.R.R.R.R.R.R.R.R.R.R.R.R.R.R.R.^.wX",
"wX^.R.R.R.R.R.R.R.R.R.R.R.R.R.R.R.R.R.R.R.R.R.~.r.:.M.` <.7.F c.w.) h.i 9.h.F j h.c.5X5XA.c.F.<.u.).R.R.R.R.R.R.R.R.R.R.R.R.R.R.R.R.R.R.R.R.R.R.R.R.R.R.R.R.^.wX",
"wX^.R.R.R.R.R.R.R.R.R.R.R.R.R.R.R.R.R.R.R.R.R.R.[.V { 7.3XZ.b.6.G j._ r *.b.V.h m v.h.h.n.H.4XG.h.^ t.R.R.R.R.R.R.R.R.R.R.R.R.R.R.R.R.R.R.R.R.R.R.R.R.R.R.R.^.wX",
"wX^.R.R.R.R.R.R.R.R.R.R.R.R.R.R.R.R.R.R.R.R.R.R.R.@X  [ m { w.` *.K P S _ V.4.3.U c.h.4X8X8X8X8X4XD.] oXR.R.R.R.R.R.R.R.R.R.R.R.R.R.R.R.R.R.R.R.R.R.R.R.R.R.^.wX",
"wX^.R.R.R.R.R.R.R.R.R.R.R.R.R.R.R.R.R.R.R.R.R.R.R.W.W :.7 - 6X4.` <.h.H U B.] h.7.7.G.4XS.S.F.v.h.M.b.{ o.W.R.R.R.R.R.R.R.R.R.R.R.R.R.R.R.R.R.R.R.R.R.R.R.R.^.wX",
"wX^.R.R.R.R.R.R.R.R.R.R.R.R.R.R.R.R.R.R.R.R.R.R.R.R.T.<.x.0.7X4Xj.F l l m x.{ v.<.7.N.V.Y *.n.F.2XD.j.h.:.R [.R.R.R.R.R.R.R.R.R.R.R.R.R.R.R.R.R.R.R.R.R.R.R.^.wX",
"wX^.R.R.R.R.R.R.R.R.R.R.R.R.R.R.R.R.R.R.R.R.R.R.R.R.E.@.=.H.N.B.d.0.q e h 4.m 0.G b.z.j.[ h.N.A.3X8X5XS.v.` O `.R.R.R.R.R.R.R.R.R.R.R.R.R.R.R.R.R.R.R.R.R.R.^.wX",
"wX^.R.R.R.R.R.R.R.R.R.R.R.R.R.R.R.R.R.R.R.R.R.R.R.R.R.T.l b.e : l b.I ; j _ H ` P 0.N.P w.D.z.A.N.D.4X3X2X2X[  .R.R.R.R.R.R.R.R.R.R.R.R.R.R.R.R.R.R.R.R.R.R.^.wX",
"wX^.R.R.R.R.R.R.R.R.R.R.R.R.R.R.R.R.R.R.R.R.R.R.R.R.R.W.O.4.2 X O 3X_ ; L J { e 7.I w.l 0.9.9.A.A.v.h.p.s.N 8.3.!.R.R.R.R.R.R.R.R.R.R.R.R.R.R.R.R.R.R.R.R.R.^.wX",
"wX^.R.R.R.R.R.R.R.R.R.R.R.R.R.R.R.R.R.R.R.R.R.R.R.R.R.R.P.x U [ F V.F $ q j 7.2 0._ =.z 7.=.j.j.] | >.| a.~ 5 u ..E.R.R.R.R.R.R.R.R.R.R.R.R.R.R.R.R.R.R.R.R.^.wX",
"wX^.R.R.R.R.R.R.R.R.R.R.R.R.R.R.R.R.R.R.R.R.R.R.R.R.R.R.R.Q.K.A 6.:.< $ 2 z =.4.N.4.z l 7.4.j.N ~ } | ( ~ ~ f f o 0 ].R.R.R.R.R.R.R.R.R.R.R.R.R.R.R.R.R.R.R.^.wX",
"wX^.R.R.R.R.R.R.R.R.R.R.R.R.R.R.R.R.R.R.R.R.R.R.R.R.R.R.R.R.R.[.&XOX9 O X G j c.c.8.q 2 { =.{ j } f M v ^ ^ ~ ^ ,.f & o./.R.R.R.R.R.R.R.R.R.R.R.R.R.R.R.R.R.^.wX",
"wX^.R.R.R.R.R.R.R.R.R.R.R.R.R.R.R.R.R.R.R.R.R.R.R.R.R.R.R.R.R.R.R.R.E.^..X% l G *.6.z % U =.y & f d u ~ ( -.-.^ >.k.>.t + ).R.R.R.R.R.R.R.R.R.R.R.R.R.R.R.R.^.wX",
"wX^.R.R.R.R.R.R.R.R.R.R.R.R.R.R.R.R.R.R.R.R.R.R.R.R.R.R.R.R.R.R.R.R.R.R.R.o.. G z K K i e { U % d f f f ( >.>.>.-.a.g.a.' B ^.R.R.R.R.R.R.R.R.R.R.R.R.R.R.R.^.wX",
"wX^.R.R.R.R.R.R.R.R.R.R.R.R.R.R.R.R.R.R.R.R.R.R.R.R.R.R.R.R.R.R.R.R.R.R.R.~.8 1 r K Z C J l j.9 , u u f d ' ,.>.,.-.a.k.g.f. .).R.R.R.R.R.R.R.R.R.R.R.R.R.R.^.wX",
"wX^.R.R.R.R.R.R.R.R.R.R.R.R.R.R.R.R.R.R.R.R.R.R.R.R.R.R.R.R.R.R.R.R.R.R.R.R.Q.3 q z 6.D h U 3.7.O y y u M v } >.>.>.,.m.m.m.g.R '.R.R.R.R.R.R.R.R.R.R.R.R.R.^.wX",
"wX^.R.R.R.R.R.R.R.R.R.R.R.R.R.R.R.R.R.R.R.R.R.R.R.R.R.R.R.R.R.R.R.R.R.R.R.R.R.&Xq l 7 P q m F 0.{ + u y v v M | >.' H a.1X1X1Xf.R W.R.R.R.R.R.R.R.R.R.R.R.R.^.wX",
"wX^.R.R.R.R.R.R.R.R.R.R.R.R.R.R.R.R.R.R.R.R.R.R.R.R.R.R.R.R.R.R.R.R.R.R.R.R.R.).  > , ; z q { w.N.u + d 5 M ~ ^ } >.( f a.1Xm.1X' @XR.R.R.R.R.R.R.R.R.R.R.R.^.wX",
"wX^.R.R.R.R.R.R.R.R.R.R.R.R.R.R.R.R.R.R.R.R.R.R.R.R.R.R.R.R.R.R.R.R.R.R.R.R.R.R.].- X l 2 l C c.d.6.: 7 6 5 M H ^ -.>.-.>.g.m.m.m.d {.R.R.R.R.R.R.R.R.R.R.R.^.wX",
"wX^.R.R.R.R.R.R.R.R.R.R.R.R.R.R.R.R.R.R.R.R.R.R.R.R.R.R.R.R.R.R.R.R.R.R.R.R.R.R.R.E.#.X q r i Z 9.6.{ + 5 & e ~ ~ ^ ' } ,.a.g.| f.| R E.R.R.R.R.R.R.R.R.R.R.^.wX",
"wX^.R.R.R.R.R.R.R.R.R.R.R.R.R.R.R.R.R.R.R.R.R.R.R.R.R.R.R.R.R.R.R.R.R.R.R.R.R.R.R.R.R.[.+.> l l b 1.h.c + y 5 5 t ~ ' } } | | a.[ p.e {.R.R.R.R.R.R.R.R.R.R.^.wX",
"wX^.R.R.R.R.R.R.R.R.R.R.R.R.R.R.R.R.R.R.R.R.R.R.R.R.R.R.R.R.R.R.R.R.R.R.R.R.R.R.R.R.R.R.R.L.X = > l *.0.6 - l u 7 y ~ ' ~ u ~ ^ ( >.^ *XR.R.R.R.R.R.R.R.R.R.^.wX",
"wX^.R.R.R.R.R.R.R.R.R.R.R.R.R.R.R.R.R.R.R.R.R.R.R.R.R.R.R.R.R.R.R.R.R.R.R.R.R.R.R.R.R.R.R.R./.#.-   @ q r X $ j v 5 u M ' ~ f ~ ( f.|  .'.R.R.R.R.R.R.R.R.R.^.wX",
"wX^.R.R.R.R.R.R.R.R.R.R.R.R.R.R.R.R.R.R.R.R.R.R.R.R.R.R.R.R.R.R.R.R.R.R.R.R.R.R.R.R.R.R.R.R.R.R.E.`.U.J.W T 9 + 5 u = < ^ ~ u M f ' f.= oXR.R.R.R.R.R.R.R.R.^.wX",
"wX^.R.R.R.R.R.R.R.R.R.R.R.R.R.R.R.R.R.R.R.R.R.R.R.R.R.R.R.R.R.R.R.R.R.R.R.R.R.R.R.R.R.R.R.R.R.R.R.R.R.R.R.R.R.Q.K.i.OXE 5 ^ M t u d ^ } o.E.R.R.R.R.R.R.R.R.^.wX",
"wX^.R.R.R.R.R.R.R.R.R.R.R.R.R.R.R.R.R.R.R.R.R.R.R.R.R.R.R.R.R.R.R.R.R.R.R.R.R.R.R.R.R.R.R.R.R.R.R.R.R.R.R.R.R.R.R.R.R.R.'.Y.&X,Xu.v = t | ,XE.R.R.R.R.R.R.R.^.wX",
"wX^.R.R.R.R.R.R.R.R.R.R.R.R.R.R.R.R.R.R.R.R.R.R.R.R.R.R.R.R.R.R.R.R.R.R.R.R.R.R.R.R.R.R.R.R.R.R.R.R.R.R.R.R.R.R.R.R.R.R.R.R.R.R.R.|.;X.X! y.R.R.R.R.R.R.R.R.^.wX",
"wX^.R.R.R.R.R.R.R.R.R.R.R.R.R.R.R.R.R.R.R.R.R.R.R.R.R.R.R.R.R.R.R.R.R.R.R.R.R.R.R.R.R.R.R.R.R.R.R.R.R.R.R.R.R.R.R.R.R.R.R.R.R.R.R.R.R.R.'.! -XR.R.R.R.R.R.R.^.wX",
"wX^.R.R.R.R.R.R.R.R.R.R.R.R.R.R.R.R.R.R.R.R.R.R.R.R.R.R.R.R.R.R.R.R.R.R.R.R.R.R.R.R.R.R.R.R.R.R.R.R.R.R.R.R.R.R.R.R.R.R.R.R.R.R.R.R.R.R.R.R.R.R.R.R.R.R.R.R.^.wX",
"wX^.R.R.R.R.R.R.R.R.R.R.R.R.R.R.R.R.R.R.R.R.R.R.R.R.R.R.R.R.R.R.R.R.R.R.R.R.R.R.R.R.R.R.R.R.R.R.R.R.R.R.R.R.R.R.R.R.R.R.R.R.R.R.R.R.R.R.R.R.R.R.R.R.R.R.R.R.^.wX",
"wX^.R.R.R.R.R.R.R.R.R.R.R.R.R.R.R.R.R.R.R.R.R.R.R.R.R.R.R.R.R.R.R.R.R.R.R.R.R.R.R.R.R.R.R.R.R.R.R.R.R.R.R.R.R.R.R.R.R.R.R.R.R.R.R.R.R.R.R.R.R.R.R.R.R.R.R.R.^.wX",
"wX^.R.R.R.R.R.R.R.R.R.R.R.R.R.R.R.R.R.R.R.R.R.R.R.R.R.R.R.R.R.R.R.R.R.R.R.R.R.R.R.R.R.R.R.R.R.R.R.R.R.R.R.R.R.R.R.R.R.R.R.R.R.R.R.R.R.R.R.R.R.R.R.R.R.R.R.R.^.wX",
"wX^.R.R.R.R.R.R.R.R.R.R.R.R.R.R.R.R.R.R.R.R.R.R.R.R.R.R.R.R.R.R.R.R.R.R.R.R.R.R.R.R.R.R.R.R.R.R.R.R.R.R.R.R.R.R.R.R.R.R.R.R.R.R.R.R.R.R.R.R.R.R.R.R.R.R.R.R.^.wX",
"wX^.R.R.R.R.R.R.R.R.R.R.R.R.R.R.R.R.R.R.R.R.R.R.R.R.R.R.R.R.R.R.R.R.R.R.R.R.R.R.R.R.R.R.R.R.R.R.R.R.R.R.R.R.R.R.R.R.R.R.R.R.R.R.R.R.R.R.R.R.R.R.R.R.R.R.R.R.^.wX",
"wX^.R.R.R.R.R.R.R.R.R.R.R.R.R.R.R.R.R.R.R.R.R.R.R.R.R.R.R.R.R.R.R.R.R.R.R.R.R.R.R.R.R.R.R.R.R.R.R.R.R.R.R.R.R.R.R.R.R.R.R.R.R.R.R.R.R.R.R.R.R.R.R.R.R.R.R.R.^.wX",
"wX^.R.R.R.R.R.R.R.R.R.R.R.R.R.R.R.R.R.R.R.R.R.R.R.R.R.R.R.R.R.R.R.R.R.R.R.R.R.R.R.R.R.R.R.R.R.R.R.R.R.R.R.R.R.R.R.R.R.R.R.R.R.R.R.R.R.R.R.R.R.R.R.R.R.R.R.R.^.wX",
"wX^.R.R.R.R.R.R.R.R.R.R.R.R.R.R.R.R.R.R.R.R.R.R.R.R.R.R.R.R.R.R.R.R.R.R.R.R.R.R.R.R.R.R.R.R.R.R.R.R.R.R.R.R.R.R.R.R.R.R.R.R.R.R.R.R.R.R.R.R.R.R.R.R.R.R.R.R.^.wX",
"wX^.R.R.R.R.R.R.R.R.R.R.R.R.R.R.R.R.R.R.R.R.R.R.R.R.R.R.R.R.R.R.R.R.R.R.R.R.R.R.R.R.R.R.R.R.R.R.R.R.R.R.R.R.R.R.R.R.R.R.R.R.R.R.R.R.R.R.R.R.R.R.R.R.R.R.R.R.^.wX",
"wX^.R.R.R.R.R.R.R.R.R.R.R.R.R.R.R.R.R.R.R.R.R.R.R.R.R.R.R.R.R.R.R.R.R.R.R.R.R.R.R.R.R.R.R.R.R.R.R.R.R.R.R.R.R.R.R.R.R.R.R.R.R.R.R.R.R.R.R.R.R.R.R.R.R.R.R.R.'.wX",
"wX X^.^.^.^.^.^.^.^.^.^.^.^.^.^.^.^.^.^.^.^.^.^.^.^.^.^.^.^.^.^.^.^.^.^.^.^.^.^.^.^.^.^.^.^.^.^.^.^.^.^.^.^.^.^.^.^.^.^.^.^.^.^.^.^.^.^.^.^.^.^.^.^.^.^.^.~. XwX",
"eXwXwXwXwXwXwXwXwXwXwXwXwXwXwXwXwXwXwXwXwXwXwXwXwXwXwXwXwXwXwXwXwXwXwXwXwXwXwXwXwXwXwXwXwXwXwXwXwXwXwXwXwXwXwXwXwXwXwXwXwXwXwXwXwXwXwXwXwXwXwXwXwXwXwXwXwXwXwXeX"
};
