/* XPM */
static char *_79f9e9d8f544f36e9507b444cf247edXHYVFJ3i3Hj1EuKl[] = {
/* columns rows colors chars-per-pixel */
"64 64 152 2 ",
"   c gray3",
".  c #181818",
"X  c gray10",
"o  c gray14",
"O  c #252525",
"+  c gray15",
"@  c #272727",
"#  c #282828",
"$  c gray16",
"%  c #2A2A2A",
"&  c #2C2C2C",
"*  c #2D2D2D",
"=  c gray18",
"-  c #2F2F2F",
";  c gray19",
":  c #313131",
">  c #323232",
",  c gray20",
"<  c #343434",
"1  c #353535",
"2  c gray21",
"3  c #373737",
"4  c gray22",
"5  c #393939",
"6  c #3A3A3A",
"7  c gray23",
"8  c #3C3C3C",
"9  c gray24",
"0  c #3E3E3E",
"q  c #3F3F3F",
"w  c gray25",
"e  c #414141",
"r  c gray26",
"t  c #434343",
"y  c #444444",
"u  c gray27",
"i  c #464646",
"p  c gray28",
"a  c #484848",
"s  c #494949",
"d  c gray29",
"f  c #4B4B4B",
"g  c #4C4C4C",
"h  c gray30",
"j  c #4E4E4E",
"k  c gray31",
"l  c #505050",
"z  c #515151",
"x  c gray32",
"c  c #535353",
"v  c gray33",
"b  c #555555",
"n  c #565656",
"m  c gray34",
"M  c #585858",
"N  c gray35",
"B  c #5A5A5A",
"V  c #5B5B5B",
"C  c gray36",
"Z  c #5D5D5D",
"A  c gray37",
"S  c #5F5F5F",
"D  c #606060",
"F  c gray38",
"G  c #626262",
"H  c gray39",
"J  c #646464",
"K  c #656565",
"L  c gray40",
"P  c #676767",
"I  c #686868",
"U  c DimGray",
"Y  c #6A6A6A",
"T  c gray42",
"R  c #6C6C6C",
"E  c #6D6D6D",
"W  c gray43",
"Q  c #6F6F6F",
"!  c gray44",
"~  c #717171",
"^  c #727272",
"/  c gray45",
"(  c #747474",
")  c gray46",
"_  c #767676",
"`  c #777777",
"'  c gray47",
"]  c #797979",
"[  c gray48",
"{  c #7B7B7B",
"}  c #7C7C7C",
"|  c gray49",
" . c #7E7E7E",
".. c gray50",
"X. c #808080",
"o. c #818181",
"O. c gray51",
"+. c #838383",
"@. c #848484",
"#. c gray52",
"$. c #868686",
"%. c gray53",
"&. c #888888",
"*. c #898989",
"=. c gray54",
"-. c #8B8B8B",
";. c gray55",
":. c #8D8D8D",
">. c #8E8E8E",
",. c gray56",
"<. c #909090",
"1. c gray57",
"2. c #929292",
"3. c #939393",
"4. c gray58",
"5. c #959595",
"6. c gray59",
"7. c #979797",
"8. c #989898",
"9. c gray60",
"0. c #9A9A9A",
"q. c #9B9B9B",
"w. c gray61",
"e. c #9D9D9D",
"r. c gray62",
"t. c #9F9F9F",
"y. c #A0A0A0",
"u. c gray63",
"i. c #A2A2A2",
"p. c gray64",
"a. c #A4A4A4",
"s. c #A5A5A5",
"d. c gray65",
"f. c #A7A7A7",
"g. c gray66",
"h. c #A9A9A9",
"j. c #AAAAAA",
"k. c gray67",
"l. c #ACACAC",
"z. c gray68",
"x. c #AEAEAE",
"c. c #AFAFAF",
"v. c gray69",
"b. c #B1B1B1",
"n. c #B2B2B2",
"m. c gray70",
"M. c #B4B4B4",
"N. c gray71",
"B. c #B6B6B6",
"V. c gray72",
"C. c gray73",
"Z. c gray",
/* pixels */
"V f %.i > 3 f | i m Y l %.-.%.| :.W J -.| -.` %.| O.| %.O.Y S D f + 3 D Y W | | W Y J D D V f i - Y <.%.| S e.q.-.%.O.%.O.%.O.%.",
"] | :.i S Y D ` ! ` J m Y J :.O.%.! 5 ! | | 7.] | <.-.W J D m f l J S m W ! S S Y ! -.q.p.p.q.7.V Y :.<.J V e.p.%.O.O.O.O.O.O.O.",
"! e l W 7.e.e.q.:.7.<.f.-.f O.| O.D k V m D ! J W S l D J l m ] f.<.W e e l Y ` <.q.p.f.p.q.7.:.g.S m J k %.f.%.O.O.%.O.O.%.%.O.",
"J - 5 7.7.%.| O.:.%.! O.J 5 O.:.` D 7.%.m k f S V D S e k Y -.e.W k - - D -.e.e.c.f.e.7.:.%.%.%.7.l l l - -.<.` O.O.O.O.O.O.O.| ",
"V ] S q.<.:.| :.] %.` V f 9 D ] W l ] :.-.] V k %.-.O.k ! q.O.m - V m k e.c.p.f.q.7.<.<.<.<.-.-.| W :.%.V e.:.-.O.O.%.%.O.O.| ` ",
"J O.m ` ` -.O.| | J S f e 9 5 m m % e V ! O.l V g.%.O.D | W m e ` <.7.| p.7.<.p.<.:.:.:.<.-.%.| O.J -.%.W 7.` | O.%.O.O.%.%.] Y ",
"3 5 % i S Y ` J D i D -.p.e.S - 5 i ` J f V i <.:.:.7.e 5 k W :.:.W Y ! p.p.g.:.:.:.-.-.:.-.-.-.| D <.W V ! | :.O.%.O.O.%.%.! S ",
"m -.%.S | k i l 5 V 7.e.-.p.-.5 V p.e.m.-.! ] q.-.%.-.e Y <.<.| Y ` Y f -.e.e.<.-.:.:.:.-.-.%.O.W l -.m f Y -.| O.O.O.O.%.O.Y m ",
"k S l V W m - 3 e e.<.-.O.-.<.W 7.:.%.-.<.7.<.-.%.-.` e ] -.-.! ` ! D 3 V g.p.-.:.<.%.:.<.%.O.%.D l V 5 f D ] %.%.O.-.O.J ! V e ",
"| i k ` ] <.q.D S q.-.<.%.%.-.D ! ! ! ! ! W D m ] O.W 9 ` q.| J D l l m m <.f.:.:.<.-.:.<.O.%.%.Y V | -.i V J ! ] W D D m S m V ",
"J ! 7.f.:.-.e.p.Y 7.%.:.] | | D 3 i k k f k k k J W f > S J D J k 5 3 Y ! O.p.:.-.<.-.:.-.O.%.O.Y Y :.e.f m V D D D D D k f f ` ",
"7.p.%.O.e.7.| :.J 7.O.O.O.] J f k S W O.e.f.-.Y f 5 ! :.<.m 9 S 7.:.f k ` J q.q.-.:.-.:.%.O.%.` J W ! -.] e 5 i e e 9 l J S 3 k ",
"7.<.<.:.%.%.-.%.Y e.%.%.-.Y i i Y :.c.m.p.e.e.p.-.> :.q.O.l V g.f.B.] f J k <.:.-.:.-.:.%.O.%.Y e S k -.<.5 k S J ` Y O.e.<.D ! ",
":.| :.q.-.<.<.! J 7.-.O.W k l :.m.g.e.7.q.p.f.e.7.m J %.` l 7.g.7.:.e.%.| i -.e.-.:.:.:.O.%.| m i | m ! S e -.q.-.e.q.7.<.-.! 7.",
"<.7.:.%.%.%.O.] l ] ! J k V %.B.e.7.<.<.:.:.-.-.:.| 9 Y Y Y B.:.-.! O.Y S e J :.-.:.-.-.O.%.] f ! c.` k f f %.:.<.<.| | | %.! -.",
":.:.<.:.<.<.O.Y i l f f m q.c.7.<.-.-.-.-.%.%.:.-.` 9 9 k <.-.-.` <.%.f J e.%.%.:.:.:.-.O.%.] e Y 7.] i 7.m k W J Y W ! ` ` Y :.",
":.:.<.<.:.! :.W O.q.! > 7.7.<.<.:.:.-.%.O.O.O.%.| ! i %.W ` O.%.| -.:.V Y ] ` %.<.<.%.:.O.-.W 9 ! 7.J V | l 5 V ` S m l f Y S ] ",
"-.<.%.| :.%.-.S ] O.] Y q.<.q.:.-.-.-.%.%.O.O.O.O.S Y q.k ` 7.` %.! 7.! 3 ` D Y | <.%.<.%.%.! i Y :.f W ! k <.<.q.q.<.O.J e 5 k ",
"O.e.<.| O.%.%.m f O.D S <.7.O.:.-.%.O.O.%.O.O.| ] m V | m ] ] -.-.| ] O.k % m e Y :.%.-.| | Y f k 5 m l ! e.:.f.7.e.q.7.:.m Y ] ",
"k | <.:.] | %.k f D m ! O.:.<.-.-.%.O.O.O.%.O.| W k i V 9 ! ] J Y Y V e ` ` J f i W O.%.%.:.J m ` Y m l %.f.<.7.:.7.-.:.p.O.| %.",
"% i ! :.| O.-.e - 9 5 D J ! | %.%.%.%.%.-.%.] ` V S 9 f f i e m l V 9 | g.O.m <.m k ` %.:.-.i S V D 9 | c.-.e.%.<.:.-.:.7.7.S i ",
"J l k ` ` %.%.9 ! e.O.f m V m Y W ! ] | | ` W D S m ! :.e f ` J D ] k W Y 9 Y q.` 3 k W ! Y 3 ! c.V V 7.<.%.7.<.-.-.:.:.-.p.J 5 ",
"q.] f V D ` ! i %.-.<.9 5 V W S S D J Y Y D S V i ] q.] l -.7.` W 9 J ] <.Y m J ` 5 5 m l f i | ` 3 V p.7.%.7.O.<.<.<.:.%.q.%.k ",
"] %.k l V D m k <.| -.i ! V 9 V S S V V V m S S V i m l l D i V ` p.e.p.p.g.7.] O.W V D 9 3 5 5 5 i O.q.-.:.-.:.:.-.:.%.:.:.7.f ",
"` ! m 3 k V f - ` :.` > S W - J f V m l V V V O.! f S V > - | e.e.q.7.7.7.7.p.g.! f c.:.-.] k W ] %.O.q.O.7.:.:.:.7.%.:.:.:.%.i ",
"m l f ! ` l k S m m m f D S f -.J - Y p.` i 9 W ` %.p.-.V W 7.p.7.<.:.<.:.:.7.e.e.Y %.` %.V | 7.D ! <.7.%.-.%.<.-.<.-.<.<.O.! k ",
"%.O.J e.:.! ` %.9 D 7.f.e.%.D S - Y q.] | m   5 :.7.<.! S 7.7.-.:.-.:.:.:.:.-.:.7.q.| %.m e f J > f q.:.7.:.%.-.-.<.:.-.:.] D f ",
"W D k %.O.O.D m m %.p.q.7.g.m.q.Y e V l J :.%.S p.%.D l Y q.-.-.:.:.:.:.:.:.:.:.<.-.-.m O.` e 5 Y ! e.O.<.:.:.<.:.:.-.| %.| l e ",
"! O.` Y J <.S e -.e.q.7.7.:.<.-.g.| f i -.7.%.Y ` D S S -.:.O.7.-.-.-.-.:.:.:.:.<.-.-.5 7.q.V V W <.:.-.:.-.<.:.:.%.%.| O.W l S ",
"e.f.p.] S Y i S e.e.%.%.:.-.%.7.| :.` J :.-.%.l l m S D <.-.%.:.:.:.-.-.:.:.<.:.| 7.%.V O.` V J > O.%.7.:.-.<.-.-.O.| -.] l S -.",
"q.O.-.g.7.f > q.q.<.<.:.<.<.:.-.<.| ` J -.O.%.S ` ` l D -.-.<.-.:.:.:.:.:.:.:.-.%.] -.D %.Y | l 9 -.:.:.-.%.:.:.O.O.O.-.J f ` e.",
"%.7.%.-.7.J J f.7.O.<.7.%.:.:.:.| %.-.m ` O.O.! q.q.m D ` O.<.:.-.:.:.:.:.:.-.| %.] %.Y 5 J %.S > ! <.-.:.<.-.%.] :.O.] m k -.7.",
"<.:.-.7.` f <.e.:.:.<.<.:.-.-.%.O.O.-.Y l -.] D :.` D m | %.%.-.:.-.<.<.-.-.| | | %.! W f 9 f J i ` 7.O.%.<.-.| %.O.O.Y e l f.:.",
"-.:.:.<.! S q.:.-.:.:.:.:.-.-.%.%.O.<.W 3 m m 5 ! D D S J ! %.%.-.-.%.O.` | %.:.%.| ] J > Y q.q.f J -.<.:.%.] -.O.| ] J k D p.%.",
":.:.-.%.J D e.-.:.-.-.:.<.:.%.%.| ] -.` m ] ` W Y e i Y Y ! ] | -.<.| %.O.-.| | | ` | ! 9 :.f.:.! ! %.:.:.%.] %.%.%.D Y W ` -.<.",
":.%.-.%.D D e.<.:.-.:.:.:.:.-.O.%.:.| ` O.g.<.:.f > % l S D W ] ! O.! %.O.%.] | | ] ! D k <.O.O.D W %.O.| -.-.%.-.J S ] J ] 7.:.",
"%.-.%.] l S 7.:.<.:.:.:.:.-.%.| %.%.O.W J <.:.` m %.Y l f m S J W ] ` | ! ` ! O.! W J V V 7.] ` e D -.%.] %.O.| W Y f V ! :.-.:.",
"%.-.` D 9 l | %.:.:.:.:.-.%.O.O.| ` :.| 5 D -.D J p.-.Y V e 5 f S m J J Y ! W Y Y m D V k O.| m l f J ! ! ] ` W Y V 9 S 7.<.] 7.",
"O.W m J m l S ] -.-.<.:.-.O.%.O.%.%.-.| 9 l W V k Y D Y D - 5 S f + m f l D D V J l l i f V Y S J 5 5 i k S D S J > J q.-.%.e.O.",
"! f k q.e.D e D %.-.<.<.%.%.O.%.| %.D S V S l m ] <.<.%.J 3 ` p.| V <.V 3 3 i l 9 i f m | l l W %.J J m 3 5 e e % J 7.O.:.:.%.] ",
"l 3 | 7.] S > m m ` O.<.O.| O.Y J V V 3 -.] 5 | q.7.:.7.e.7.W m f <.:.f 9 ` 7.7.| D | f.<.-.m :.q.] V D O.-.` ] e O.q.-.%.%.-.J ",
"i Y J O.O.e e l m V Y ! ! D S m m l m i k i S f.-.:.:.<.7.<.:.O.S 5 - l ` ` W Y S f q.O.| S l V e l m V Y W ] <.V W | ] Y m f k ",
"i D i D S k <.O.l f l e D l f D V e ` q.` e %.:.-.-.:.:.%.-.7.7.p.%.m l ! J i k f ! 7.| m 3 ` V J | | ` J m e 5 D 5 e i f m f ! ",
"p.c.f.:.m f ` ! S > V 5 i S S 9 % J q.-.p.V -.q.7.:.<.<.%.-.:.%.%.q.g.| 5 5 J ] l m %.S f ! %.p.g.f.p.e.f.q.` V O.k ] :.f.g.m f ",
"<.e.7.q.c.q.S 9 - D f.Y %.f.e.e.k ] p.:.] 3 k | %.%.-.<.<.:.<.:.-.| %.f.e.S l :.l 9 k i -.f.e.f.<.%.%.:.7.7.q.q.f f f.e.O.%.W e.",
"e.p.:.<.7.<.e.e.f %.p.S O.q.! %.l V l m D m 5 l Y ` ] O.%.%.O.:.-.O.O.` | p.| . Y | > | m.e.f.:.7.<.<.:.O.| :.7.] V <.<.-.| ] e.",
"<.%.%.7.:.:.f.-.q.m m f l | ! l -.Z.Y + -.g.D i k S V S ` ! Y ] W ] ] ! ] %.] D %.7.W g.e.p.| :.-.-.<.<.%.%.-.] ] D -.-.-.J -.e.",
":.:.:.%.:.<.O.<.7.O.S m J l e :.c.<.7.! <.O.q.9 9 k 9 f ` ! m D J S Y Y S D S e ! | O.p.f.-.7.%.:.-.<.-.| %.O.Y S D :.-.%.m 7.7.",
":.:.:.:.-.:.:.:.<.O.| ` %.3 i g.7.-.:.%.W :.| J -.:.f > q.p.S 9 l l V k S l l i e f <.7.7.:.-.<.-.:.:.O.%.%.J S l D :.e.Y l q.-.",
":.:.:.:.:.:.:.:.%.O.! m + J J 7.<.-.:.] e W | k i ! W 5 m D D l 3 f J l . ! <.7.] k :.<.:.<.%.%.<.-.%.O.| Y m J i | <.O.Y W q.-.",
":.:.:.:.:.:.-.-.O.| ] f k f.] :.O.7.O.:.Y k i > i e S S k f Y W V B.q.7.V O.e.-.<.D <.:.` -.7.<.O.| %.` S Y D k ! | -.:.S W e.:.",
":.:.:.<.:.-.-.%.%.` ! e l O.f V p.` O.W ! O.> W e.7.c.m.p.q.O.f e <.] -.O.J ] D k 9 W <.-.-.:.-.-.%.W S Y k f -.S l J 7.V ! q.-.",
":.<.:.:.:.-.%.O.-.! D 9 + Y W D k J ` D 5 D :.c.f.q.7.7.7.f.f.<.m f ! Y k 5 f S Y l 9 | e.-.%.O.` D D V f k V ` D ] Y J e ] <.<.",
":.:.-.-.%.%.%.O.%.` S f ! <.f.<.l V f f J p.f.<.7.7.:.p.q.:.-.f.V.! % 3 J 7.e.p.g.e.l m ! | %.] J V V f m 7.7.V 7.q.%.J > ! 7.:.",
":.:.:.-.%.O.O.O.| W l i c.:.| W %.:.i ` f.p.c.q.:.f.:.O.| <.<.:.%.p.k %.g.q.q.7.%.q.] m i Y Y m k m - + ` -.V Y -.! %.%.e D :.O.",
":.:.-.%.O.O.O.| ` Y l m ` O.Y V :.! W e.q.q.q.:.<.:.%.<.:.7.-.-.<.:.J 7.e.-.7.-.7.%.:.Y > e - 5 3 i ] :.] ] D i :.| O.! i V ] 7.",
"-.:.%.O.-.| | :.Y S i l ! f D k f ! p.7.7.q.-.:.:.:.:.:.:.:.:.<.:.7.Y q.<.:.7.7.:.%.] :.] 3 V W i <.:.e.q.:.7.Y O.O.| W e i W :.",
":.O.%.O.] -.:.Y J m i O.:.f ] S S <.e.q.q.<.<.-.-.:.:.-.-.:.:.:.:.-.Y e.7.<.<.%.O.O.%.-.%.` D J O.q.-.O.%.%.| V ! ` :.O.+ 3 J J ",
"! ] -.-.` O.O.J V 5 S q.! 5 l f Y c.7.q.7.%.7.%.:.:.-.:.-.:.:.:.<.] Y p.q.<.<.O.O.O.-.O.] | e e q.:.:.] O.O.J D l l k > 7.i i ! ",
"! O.] | <.O.D S J | ! ` l V q.O.D f.<.<.<.O.<.:.:.:.:.:.:.:.:.:.-.J W e.:.-.-.O.%.| %.%.] W f W S f ! W ! Y k W f.p.] V -.V 3 i ",
"k J Y W | W V Y k ! <.3 9 g.p.q.S -.7.-.:.-.-.<.:.:.:.-.-.-.-.%.] V ` p.%.O.O.O.O.O.O.O.| S ` 7.D f -.-.<.` S f.7.q.f.:.S 9 l J ",
"k m S D V S S l > S Y k O.g.:.O.J ` <.:.-.<.%.7.<.:.:.:.-.-.O.O.! l O.p.%.O.| O.| -.] ` ` m %.%.| D <.<.:.J Y c.q.7.p.q.g.W S J ",
"%.J f k D Y m e 9 9 V S q.<.! 7.| W -.-.%.7.%.:.:.-.:.-.:.%.| ` Y i ] <.O.%.| O.` %.` ` D S <.] ! W 7.-.%.V ` c.7.7.%.7.7.m.` > ",
"k l 9 e V i i | V | %.%.p.] %.| -.J ] %.O.:.-.%.-.%.O.%.O.| ! Y V 3 D W W O.` O.` ] W ] f f W J k W 7.%.O.V %.g.7.<.p.-.7.:.7.O."
};
