/* XPM */
static char *_7c60d7e30b2490aa84de594aa10978dLcUExL6Vo9D4ZlG5[] = {
/* columns rows colors chars-per-pixel */
"80 80 250 2 ",
"   c #0E1117",
".  c #141617",
"X  c #291B0C",
"o  c #371A09",
"O  c #3D1C0B",
"+  c #361F12",
"@  c #262518",
"#  c #3B2314",
"$  c #362719",
"%  c #342A1C",
"&  c #3A3518",
"*  c #2B2721",
"=  c #352C21",
"-  c #3A3327",
";  c #383735",
":  c #3D3B34",
">  c #481D09",
",  c #541F06",
"<  c #441D11",
"1  c #48230B",
"2  c #55230A",
"3  c #5B240C",
"4  c #582A0C",
"5  c #442413",
"6  c #482917",
"7  c #4C2B1A",
"8  c #522613",
"9  c #592712",
"0  c #532A15",
"q  c #592C16",
"w  c #542C19",
"e  c #5A2D19",
"r  c #48381B",
"t  c #5C331B",
"y  c #56381A",
"u  c #6B290A",
"i  c #70360F",
"p  c #622C13",
"a  c #6A2D12",
"s  c #632F19",
"d  c #6E3215",
"f  c #64331B",
"g  c #6D351B",
"h  c #693B1A",
"j  c #773815",
"k  c #73361B",
"l  c #73391C",
"z  c #7A3A1C",
"x  c #443522",
"c  c #4C3C25",
"v  c #483728",
"b  c #4B3C2A",
"n  c #553A26",
"m  c #403C3B",
"M  c #513E34",
"N  c #683E27",
"B  c #753E22",
"V  c #4C4819",
"C  c #58471B",
"Z  c #705A0C",
"A  c #67461A",
"S  c #714617",
"D  c #7D411C",
"F  c #65581C",
"G  c #79561A",
"H  c #756511",
"J  c #4E4027",
"K  c #54432C",
"L  c #5A472A",
"P  c #44413C",
"I  c #4D493D",
"U  c #564B34",
"Y  c #5A4938",
"T  c #5C5638",
"R  c #664625",
"E  c #614E2B",
"W  c #794322",
"Q  c #69562C",
"!  c #765927",
"~  c #614D36",
"^  c #744932",
"/  c #655233",
"(  c #6A5534",
")  c #6A583B",
"_  c #745B36",
"`  c #786535",
"'  c #75623D",
"]  c #7B633B",
"[  c #7C6A3D",
"{  c #444443",
"}  c #494846",
"|  c #4C4C4C",
" . c #594D43",
".. c #5A5649",
"X. c #5A5952",
"o. c #655747",
"O. c #725846",
"+. c #766646",
"@. c #7C6B45",
"#. c #706D56",
"$. c #7E7A61",
"%. c #843B09",
"&. c #993E0A",
"*. c #863D1A",
"=. c #86421C",
"-. c #894419",
";. c #95441E",
":. c #98451B",
">. c #954B1C",
",. c #9C4A1D",
"<. c #935217",
"1. c #A34B1B",
"2. c #AB4F1D",
"3. c #A65618",
"4. c #B35010",
"5. c #B9581D",
"6. c #8E6A15",
"7. c #937B1D",
"8. c #AB6E07",
"9. c #B67513",
"0. c #834525",
"q. c #8C4B25",
"w. c #974822",
"e. c #8A5326",
"r. c #9B5727",
"t. c #AC4E22",
"y. c #B14F20",
"u. c #A35624",
"i. c #B85521",
"p. c #876C26",
"a. c #946D2F",
"s. c #967529",
"d. c #856B38",
"f. c #88733B",
"g. c #A6732B",
"h. c #A67E32",
"j. c #C15B1C",
"k. c #C5651F",
"l. c #D17013",
"z. c #D57616",
"x. c #E47F0C",
"c. c #C45C20",
"v. c #846B46",
"b. c #847346",
"n. c #897545",
"m. c #857349",
"M. c #8B7849",
"N. c #927C46",
"B. c #947C4C",
"V. c #867757",
"C. c #977D54",
"Z. c #A47643",
"A. c #877767",
"S. c #9B801A",
"D. c #A4831B",
"F. c #B88F15",
"G. c #9D892D",
"H. c #B79425",
"J. c #AF8F34",
"K. c #BDA437",
"L. c #D58A0B",
"P. c #EA9411",
"I. c #E2BC1F",
"U. c #C69B39",
"Y. c #CDAC35",
"T. c #DABA3A",
"R. c #E1BD39",
"E. c #FFCD00",
"W. c #FFCE0D",
"Q. c #FFCE16",
"!. c #F4CD19",
"~. c #FFCE1D",
"^. c #FED013",
"/. c #EEC82F",
"(. c #F1C720",
"). c #F5CB24",
"_. c #FFCF27",
"`. c #F4CD2B",
"'. c #FFCE2B",
"]. c #FAD025",
"[. c #EBC737",
"{. c #E9C63B",
"}. c #F2CD33",
"|. c #FECF30",
" X c #F1CD3B",
".X c #FED034",
"XX c #F6D23B",
"oX c #FED03D",
"OX c #84804D",
"+X c #9A8449",
"@X c #8C875A",
"#X c #9B8554",
"$X c #A68C47",
"%X c #AA9447",
"&X c #B59C47",
"*X c #A28E59",
"=X c #A79557",
"-X c #AA945C",
";X c #B49C57",
":X c #B8A54B",
">X c #B9A458",
",X c #8A8666",
"<X c #969266",
"1X c #979075",
"2X c #A89763",
"3X c #B39D64",
"4X c #A78C72",
"5X c #A3977A",
"6X c #BBA365",
"7X c #B8A668",
"8X c #BBB27B",
"9X c #C4AA4C",
"0X c #CAB64E",
"qX c #D8BA47",
"wX c #C6AC5A",
"eX c #C9B258",
"rX c #D5B956",
"tX c #C5AD63",
"yX c #C3AB6B",
"uX c #CBB36C",
"iX c #D4BB68",
"pX c #CDB473",
"aX c #C9B574",
"sX c #D3BB75",
"dX c #D7BD76",
"fX c #D5BD79",
"gX c #DBC352",
"hX c #E4C342",
"jX c #EBCA43",
"kX c #E5C549",
"lX c #F0CF4A",
"zX c #FCD143",
"xX c #E2C65A",
"cX c #DBC167",
"vX c #DBC377",
"bX c #DCC37B",
"nX c #EAD068",
"mX c #E1C87B",
"MX c #E9D27B",
"NX c #FDE47A",
"BX c #918C87",
"VX c #A29883",
"CX c #ADA78F",
"ZX c #B6B0A8",
"AX c #DDCA83",
"SX c #E9D9A5",
"DX c #DFDAD1",
"FX c #DFDEE0",
"GX c #F2EEE8",
"HX c #F6F5F8",
/* pixels */
"zXzX.X.X|.|.|.|.|.|.|.|.|.|.|.|.|.|.|.|.|.|.'.|.|.|.|.|.'..X|.|.|.|.|.|.|.|.|.|.'.|.|.|.|.|.'.|.|.|.|.'.|.'.|.|.|.|.'..X|.|.|.|..X'..X|.|.|..X'.|..X|..XoXoXoXzX",
"oX.X|..X'.'.'.'._.'._._._._.'._._.'._._._._._.'.'._._._._.'._._._._._.'._._._._._.'.'._._._.'._.'._._.'._.'.'._._._._.'._._._._._._._._._._._._.'.'.'.'.|.|.|.zX",
"oX|.|.'._.~._.~.~.~.~.~.~.~.~.~.Q.~.~.~.~.~.~.~.~.~.~.~.~.~.~.~.~.~.~.~.~.~.~.~.~.~.~.~.~.~.~.~.~.~.~.~.~.~.~.~.~.~.~.~.~.~.~.~.~.~.~.~.~.~.~.~.Q._._._._.'.|.oX",
".X'._._._.~.~.Q.Q.Q.Q.Q.Q.Q.Q.Q.Q.Q.Q.Q.Q.Q.Q.Q.Q.Q.Q.Q.Q.Q.Q.Q.Q.Q.Q.Q.Q.Q.Q.Q.Q.Q.Q.Q.Q.Q.Q.Q.Q.Q.Q.Q.Q.Q.Q.Q.Q.Q.Q.Q.Q.Q.Q.Q.Q.Q.Q.Q.Q.Q.Q.Q.Q.~.Q._._.'.|.oX",
".X|._._.Q.Q.Q.W.W.W.W.W.W.W.W.W.W.W.W.W.W.W.W.W.W.W.W.W.W.W.W.W.W.W.W.W.W.W.W.W.W.W.W.W.W.W.W.W.W.W.W.W.W.W.W.W.W.W.W.W.W.W.W.W.W.W.W.W.W.W.W.W.W.Q.Q.~._._.'.|.",
"|.'._.~.Q.Q.Q.W.W.W.W.W.W.W.W.W.W.W.W.Q.W.W.W.W.W.W.W.W.W.W.W.W.W.W.W.W.W.W.W.W.W.W.W.Q.Q.W.W.W.W.W.W.W.W.W.W.W.W.W.W.W.W.W.W.W.W.W.W.W.W.W.W.W.W.Q.Q.~.~.~.'.|.",
"|.'._.~.Q.Q.W.W.W.W.W.W.W.W.W.W.W.W.W.W.W.W.W.W.W.W.W.W.W.W.W.W.W.W.W.W.W.W.W.W.W.W.W./.J.Q.W.W.W.W.W.W.W.W.W.W.W.W.W.W.W.W.W.W.W.W.W.W.W.W.W.W.W.W.Q.Q.~._.'.|.",
"|.'.~.Q.W.W.W.E.E.E.E.E.E.E.E.E.E.E.E.E.E.E.E.E.E.E.E.E.E.E.E.E.E.E.E.E.E.E.E.E.E.E.E.R.G E.E.E.E.E.E.E.E.E.E.E.E.E.E.E.E.E.E.E.E.E.E.E.E.E.E.E.E.W.W.W.Q.~._.'.",
"'.'.~.Q.W.W.W.E.E.E.E.E.E.E.E.E.E.E.E.E.E.E.E.E.E.E.E.E.E.E.E.E.E.E.E.E.E.E.E.E.E.E.E.U.%.I.E.E.E.E.E.E.E.E.E.E.E.E.E.E.E.E.E.E.E.E.E.E.E.E.E.E.E.W.W.W.Q.~._.|.",
"|._.~.Q.W.W.W.E.E.E.E.E.E.E.E.E.E.E.E.E.E.E.E.E.E.E.E.E.E.E.E.E.E.E.E.E.E.E.W.K.s.d.J.a.j.T.E.E.E.E.E.E.E.E.E.E.E.E.E.E.E.E.E.E.E.E.E.E.E.E.E.E.E.W.W.W.Q.~.'.|.",
"|.'.~.Q.W.W.W.E.E.E.E.E.E.E.E.E.E.E.E.E.E.E.E.E.E.E.E.E.E.E.E.E.E.E.E.E.E.(.A , 9 d 4 3.l.J.E.E.E.E.E.E.E.E.E.E.E.E.E.E.E.E.E.E.E.E.E.E.E.E.E.E.E.W.W.W.Q.~._.|.",
"|._.~.Q.W.W.W.E.E.E.E.E.E.E.E.E.E.E.E.E.E.E.E.E.E.E.E.E.E.E.E.E.E.E.E.E.W.h p k w.y.q.L.x.g.E.E.E.E.E.E.E.E.E.E.E.E.E.E.E.E.E.E.E.E.E.E.E.E.E.E.E.W.W.W.Q.~._.|.",
"|._.~.Q.W.W.W.E.E.E.E.E.E.E.E.E.E.E.E.E.E.E.E.E.E.E.E.E.E.E.E.E.E.E.E.E.J.3 N *.c.w.-.P.P.L.).E.E.E.E.E.E.E.E.E.E.E.E.E.E.E.E.E.E.E.E.E.E.E.E.E.E.W.W.W.Q.~._.|.",
"'.'.~.Q.W.W.W.E.E.E.E.E.E.E.E.E.E.E.E.E.E.E.E.E.E.E.E.E.E.E.E.E.E.E.E.E.q s g 2.j.*.w.P.P.L.jXE.E.E.E.E.E.E.E.E.E.E.E.E.E.E.E.E.E.E.E.E.E.E.E.E.E.W.W.W.Q.~._..X",
"'._.~.Q.W.W.W.E.E.E.E.E.E.E.E.E.E.E.E.E.E.E.E.E.E.E.E.E.E.E.E.E.E.E.E.T., g l :.j.*.L.z.9.L.rXE.E.E.E.E.E.E.E.E.E.E.E.E.E.E.E.E.E.E.E.E.E.E.E.E.E.W.W.W.Q.~._.'.",
".X'.~.Q.W.W.W.E.E.E.E.E.E.E.E.E.E.E.E.E.E.E.E.E.E.E.E.E.E.E.E.E.E.E.E.%X3 l z *.1.z z.P.u.8.eXE.E.E.E.E.E.E.E.E.E.E.E.E.E.E.E.E.E.E.E.E.E.E.E.E.E.W.W.W.Q.~._..X",
"|._.~.Q.W.W.W.E.E.E.E.E.E.E.E.E.E.E.E.E.E.E.E.E.E.E.E.E.E.E.E.E.E.E.E.d.p B z =.h ,.i.z.z.4.$XE.E.E.E.E.E.E.E.E.E.E.E.E.E.E.E.E.E.E.E.E.E.E.E.E.E.W.W.W.Q.~._.'.",
"|._.~.Q.W.W.W.E.E.E.E.E.E.E.E.E.E.E.E.E.E.E.E.E.E.E.E.E.E.E.E.E.E.E.E.n a *.z t z 2.i.i.9.x.Z.E.E.E.E.E.E.E.E.E.E.E.E.E.E.E.E.E.E.E.E.E.E.E.E.E.E.W.W.W.Q.~._..X",
"|._.~.Q.W.W.W.E.E.E.E.E.E.E.E.E.E.E.E.E.E.E.E.E.E.E.E.E.E.E.E.E.E.E.Q.q g e # 8 z d y.c.w.L.h.W.E.E.E.E.E.E.E.E.E.E.E.E.E.E.E.E.E.E.E.E.E.E.E.E.E.W.W.W.Q.~._.|.",
"|._.~.Q.W.W.W.E.E.E.E.E.E.E.E.E.E.E.E.E.E.E.E.E.E.E.E.E.E.E.E.E.E.E./.8 f # y a.h.J.A w.t.c.6.+.W.n.{.E.E.E.E.E.E.E.E.E.E.E.E.E.E.E.E.E.E.E.E.E.E.W.W.W.Q.~._.|.",
".X_.~.Q.W.W.W.E.E.E.E.E.E.E.E.E.E.E.E.E.E.E.E.E.E.E.E.E.E.E.E.E.E.E.qX2 e n a.a.F s.).6.e S A Q =X* - }.E.E.E.E.+X}.E.E.E.E.E.E.E.E.E.E.E.E.E.E.E.W.W.W.Q.~._.|.",
"'._.~.Q.W.W.W.E.E.E.E.E.E.E.E.E.E.E.E.E.E.E.E.E.E.E.E.E.E.E.E.E.E.E.rX, w R x   @   C I.F.!.S.o.b ; P U `.E.E.[.G.>XE.E.E.E.E.E.E.E.E.E.E.E.E.E.E.W.W.W.Q.~._.|.",
".X_.~.Q.W.W.W.E.E.E.E.E.E.E.E.E.E.E.E.E.E.E.E.E.E.E.E.E.E.E.E.E.E.E.eX3 t $ h.F . = . C H.V V @.- : | T {.E.^. .K.%X!.E.E.E.E.E.E.E.E.E.E.E.E.E.E.W.W.W.Q.~._.|.",
"|._.~.Q.W.W.W.E.E.E.E.E.E.E.E.E.E.E.E.E.E.E.E.E.E.E.E.E.E.!.Y.E.E.E.tX3 f 8 A Y.7.% V % .   b ' - P | U :XgXU ' OXK.cXE.E.E.E.E.E.E.E.E.E.E.E.E.E.W.W.W.Q.~.'.|.",
"|.'.~.Q.W.W.W.E.E.E.E.E.E.E.E.E.E.E.E.E.E.E.E.E.E.E.E.E.E.R.$XE.W.7XY p d e j N H.Y.!.C F 7.J K : } | U E r b.OX@.K.8XE.E.E.E.E.E.E.E.E.E.E.E.E.E.W.W.W.Q.~._.|.",
"|._.~.Q.W.W.W.E.E.E.E.E.E.E.E.E.E.E.E.E.E.E.E.E.E.E.E.E.E.hXa.hXY %.*.0 k e g 2.z f H.r 7.F.7X .- | } T OX[ n.b.@.K.7XE.E.E.E.E.E.E.E.E.E.E.E.E.E.W.W.W.Q.~._..X",
"|._.~.Q.W.W.W.E.E.E.E.E.E.E.E.E.E.E.E.E.E.E.E.E.E.E.E.E.E.xXH.y + B ;.6 k z 7 -.k.1.D.& 7.i gXX.- | I ' M.n.m.b.@.0X>XlXE.E.E.E.E.E.E.E.E.E.E.E.E.W.W.W.Q.~._.'.",
"|._.~.Q.W.W.W.E.E.E.E.E.E.E.E.E.E.E.E.E.E.E.E.E.E.E.E.E.E.BXa.e.:.y z 6 s z s f j.:.D.& 7.>.gXP : X.U b.b.n.b.b.@.:X:XMXE.E.E.E.E.E.E.E.E.E.E.E.E.W.W.W.Q.~._..X",
"|._.~.Q.W.W.W.E.E.E.E.E.E.E.E.E.E.E.E.E.E.E.E.E.E.E.E.E.].N e 0.y.z A 5 0 s B 9 -.w.s.r 9.q.jXm ; I J M.@.m.m.m.@.gX:XSXE.E.E.E.E.E.E.E.E.E.E.E.E.W.W.W.Q.~._.'.",
".X_.~.Q.W.W.W.E.E.E.E.E.E.E.E.E.E.E.E.E.E.E.E.E.E.E.E.E.aX> ;.*.A ! / 5 6 9 g g t >.7.V 8.v.W.M * : :X' OXOXm.m.@.gX:XDXE.E.E.E.E.E.E.E.E.E.E.E.E.W.W.W.Q.~._..X",
"'._.~.Q.W.W.W.E.E.E.E.E.E.E.E.E.E.E.E.E.E.E.E.E.E.E.E.E.A., w p.Y.a._ 8 # w 8 g q =.p.F H rXQ.v # :X^...@.@.OXOX@.eX2XGXE.E.E.E.E.E.E.E.E.E.E.E.E.W.W.W.Q.~._.|.",
".X_.~.Q.W.W.W.E.E.E.E.E.E.E.E.E.E.E.E.E.E.E.E.E.E.E.E.E.Y 2 7 ! ] n ! h < 5 e 9 t D p.H Q W.{.O &XE.E.OXm ..T X.| <X5XHXE.E.E.E.E.E.E.E.E.E.E.E.E.W.W.W.Q.~._.|.",
".X_.~.Q.W.W.W.E.E.E.E.E.E.E.E.E.E.E.E.E.E.E.E.E.E.E.E..Xv > q +.mXf.L ! < # 7 9 5 B a.Z ,XE.9XO hXE.E.9X: | } { | <XVXHXE.E.E.E.E.E.E.E.E.E.E.E.E.W.W.W.Q.~._.|.",
".X_.~.Q.W.W.W.E.E.E.E.E.E.E.E.E.E.E.E.E.E.E.E.E.E.E.E.nX( w A 2XmX` Y d.8 8 # 8 8 B h.G aXE.B.6 `.E.E.qX: | | } X.<XZXMXE.E.E.E.E.E.E.E.E.E.E.E.E.W.W.W.Q.~._.|.",
"|._.~.Q.W.W.W.E.E.E.E.E.E.E.E.E.E.E.E.E.E.E.E.E.E.E.E.ZXy a.! 7XtXb./ 6.h 8 5 + 6 s g._  XE.+.n ~.E.E.0X; | | { #.,XDXE.E.E.E.E.E.E.E.E.E.E.E.E.E.W.W.W.Q.~._.|.",
"|._.~.^.W.W.W.E.E.E.E.E.E.E.E.E.E.E.E.E.E.E.E.E.E.E.W.A.E % v sXC.-X] ~ p.< 8 O o N t ~ W.E.~ ( E.E.E.*Xm | | { ,X,XHXE.E.E.E.E.E.E.E.E.E.E.E.E.E.W.W.W.Q.~.'.|.",
"|._.~.Q.W.W.W.E.E.E.E.E.E.E.E.E.E.E.E.E.E.E.E.E.E.E.nX) M.B.yX3X+.mX2Xv h.! O 5 b - X <XE.E.~ d.E.E./.: | | { X.,XCXNXE.E.E.E.E.E.E.E.E.E.E.E.E.E.W.W.W.Q.~._.|.",
"|._.~.Q.W.W.W.E.E.E.E.E.E.E.E.E.E.E.E.E.E.E.E.E.E.E.AX/ 6XvXmXm.*XmXdXM.- v.d.E 6 +XV.].E.E.n s.E.).I { | | P <X$.FXE.E.E.E.E.E.E.E.E.E.E.E.E.E.E.W.W.W.Q.~._..X",
".X_.~.Q.W.W.W.E.E.E.E.E.E.E.E.E.E.E.E.E.E.E.E.E.E.E.CXO.pXsXbXn.3XiXuXpXv.r x $ @.xX<XE.E.Q.6 &XQ.T X.} } : $.@XCX!.E.E.E.E.E.E.E.E.E.E.E.E.E.E.E.W.W.W.Q.~._.'.",
"|._.~.Q.W.W.W.E.E.E.E.E.E.E.E.E.E.E.E.E.E.E.E.E.E.E.VXb.sXsXdXf.aXiXyXbXpX6X#X3XbXT.5XE.E.).1 9X/.=XX.P I ,X7X$.E.E.E.E.E.E.E.E.E.E.E.E.E.E.E.E.E.W.W.W.Q.~._..X",
"|._.~.Q.W.W.W.E.E.E.E.E.E.E.E.E.E.E.E.E.E.E.E.E.E.E.,X3X3XbXeXn.fXiXtXfXsXbXyXdXnXK.CXE.E./.1 qX[.=X8X5X8X7X#.!.E.E.E.E.E.E.E.E.E.E.E.E.E.E.E.E.E.W.W.W.Q.~._.|.",
"|._.~.Q.W.W.W.E.E.E.E.E.E.E.E.E.E.E.E.E.E.E.E.E.E.~.@.fX+X3X%Xv.fXsXyXsXbX6X*XAXcXf.XXE.E.T.1 /.!.` #.OX[ OXE.E.E.E.E.E.E.E.E.E.E.E.E.E.E.E.E.E.E.W.W.W.Q.Q._.|.",
"|._.Q.Q.W.W.W.E.E.E.E.E.E.E.E.E.E.E.E.E.E.E.E.E.E. X+.fXcXp./ B.pXmXbXpX7X' uXpX_ 8XE.E.E.9X1 `.E.E.T.T.!.E.E.E.E.E.E.E.E.E.E.E.E.E.E.E.E.E.E.E.E.W.W.W.Q.~._.|.",
"|._.~.Q.W.W.W.E.E.E.E.E.E.E.E.E.E.E.E.E.E.E.E.E.E.{.] pXmXK.- M.-Xb.@.K L +.) Q o.W.E.E.E.M.y Q.E.E.E.E.E.E.E.E.E.E.E.E.E.E.E.E.E.E.E.E.E.E.E.E.E.W.W.W.Q.~._.|.",
".X_.~.Q.W.W.W.E.E.E.E.E.E.E.E.E.E.E.E.E.E.E.E.E.E.[._ yXbXgXA y 2X3XM.-XC.) f._ ! nXE.E.^.T ( E.E.E.E.E.E.E.E.E.E.E.E.E.E.E.E.E.E.E.E.E.E.E.E.E.E.W.W.W.Q.~._.|.",
".X_.~.Q.W.W.W.E.E.E.E.E.E.E.E.E.E.E.E.E.E.E.E.E.E.!._ -XaXcX7.<.G ] b.#Xo.1XbXn.6.5XW.E.XX7 C.E.E.E.E.E.E.E.E.E.E.E.E.E.E.E.E.E.E.E.E.E.E.E.E.E.E.W.W.W.Q.~._..X",
"'._.~.Q.W.W.W.E.E.E.E.E.E.E.E.E.E.E.E.E.E.E.E.E.E.E.+.#X3XMXp.6 9.L.9.8.+.ZXSXb.[ G.AXMXCX4 7XE.E.E.E.E.E.E.E.E.E.E.E.E.E.E.E.E.E.E.E.E.E.E.E.E.E.W.W.W.Q.~._.|.",
".X_.~.Q.W.W.W.E.E.E.E.E.E.E.E.E.E.E.E.E.E.E.E.E.E.E.V.M.-XbX$X$ # A 6.8.o.VX4XL +XJ.@.b.F t cXE.E.E.E.E.E.E.E.E.E.E.E.E.E.E.E.E.E.E.E.E.E.E.E.E.E.W.W.W.Q.~._.|.",
"|._.~.Q.W.W.W.E.E.E.E.E.E.E.E.E.E.E.E.E.E.E.E.E.E.E.eX_ 3XsXpXiXd.% x v v Y U n n.[ +XN.E R lXE.E.E.E.E.E.E.E.E.E.E.E.E.E.E.E.E.E.E.E.E.E.E.E.E.E.W.W.W.Q.~._.|.",
"|._.~.Q.W.W.W.E.E.E.E.E.E.E.E.E.E.E.E.E.E.E.E.E.E.E.Q.) 3XfXsXdXsXK c ( ( c c Q J +X=X_ L ~ W.E.E.E.E.E.E.E.E.E.E.E.E.E.E.E.E.E.E.E.E.E.E.E.E.E.E.W.W.W.Q.~.'.|.",
"|._.~.Q.W.W.W.E.E.E.E.E.E.E.E.E.E.E.E.E.E.E.E.E.E.E.E.7X[ fXsXfX;Xf.x ( ) / Y U C +X[ c [ n.XXE.E.E.E.E.E.E.E.E.E.E.E.E.E.E.E.E.E.E.E.E.E.E.E.E.E.W.W.W.Q.~._.|.",
"|._.~.Q.W.W.W.E.E.E.E.E.E.E.E.E.E.E.E.E.E.E.E.E.E.E.E.^.V.yXyX3XwX$X_ L ( L L b L Q E r / $X`.E.E.E.E.E.E.E.E.E.E.E.E.E.E.E.E.E.E.E.E.E.E.E.E.E.E.W.W.W.Q.~._.|.",
"|._.~.Q.W.W.W.E.E.E.E.E.E.E.E.E.E.E.E.E.E.E.E.E.E.E.E.E.xX+XpX-XsXdXE & & x x v L J J ` f.=XE.E.E.E.E.E.E.E.E.E.E.E.E.E.E.E.E.E.E.E.E.E.E.E.E.E.E.W.W.W.Q.~._.|.",
"|.'.~.Q.W.W.W.E.E.E.E.E.E.E.E.E.E.E.E.E.E.E.E.E.E.E.E.E.}.' #XyXvX=XM $ +.- @ r J L L ' $X>XE.E.E.E.E.E.E.E.E.E.E.E.E.E.E.E.E.E.E.E.E.E.E.E.E.E.E.W.W.W.Q.~._..X",
"|._.~.Q.W.W.W.E.E.E.E.E.E.E.E.E.E.E.E.E.E.E.E.E.E.E.E.E.E.+.M.dX>X+.C qXE.#XX % x x C +X+XjXE.E.E.E.E.E.E.E.E.E.E.E.E.E.E.E.E.E.E.E.E.E.E.E.E.E.E.W.W.W.Q.~._.'.",
"|._.~.Q.W.W.W.E.E.E.E.E.E.E.E.E.E.E.E.E.E.E.E.E.E.E.E.E.E.>X` 7X#XK R {.E.`.% % % n F.f.$XE.E.E.E.E.E.E.E.E.E.E.E.E.E.E.E.E.E.E.E.E.E.E.E.E.E.E.E.W.W.W.Q.~._..X",
".X_.~.Q.W.W.W.E.E.E.E.E.E.E.E.E.E.E.E.E.E.E.E.E.E.E.E.E.E.}./ [ K c r ;XE.E.:XX % e.9.! {.E.E.E.E.E.E.E.E.E.E.E.E.E.E.E.E.E.E.E.E.E.E.E.E.E.E.E.E.W.W.W.Q.~._.|.",
"'._.~.Q.W.W.W.E.E.E.E.E.E.E.E.E.E.E.E.E.E.E.E.E.E.E.E.E.E.E.;X) $ % h =.`.E.}.# 0.r.3.;XE.E.E.E.E.E.E.E.E.E.E.E.E.E.E.E.E.E.E.E.E.E.E.E.E.E.E.E.E.W.W.W.Q.~._.|.",
".X_.~.Q.W.W.W.E.E.E.E.E.E.E.E.E.E.E.E.E.E.E.E.E.E.E.E.E.E.E.W.M.0 =.3.<.`.E.@.1 w.r.=.hXE.E.E.E.E.E.E.E.E.E.E.E.E.E.E.E.E.E.E.E.E.E.E.E.E.E.E.E.E.W.W.W.Q.~._.|.",
"|._.~.Q.W.W.W.E.E.E.E.E.E.E.E.E.E.E.E.E.E.E.E.E.E.E.E.E.E.E.$X, =.i.1.0.W./.> N 0.r.e.E.E.E.E.E.E.E.E.E.E.E.E.E.E.E.E.E.E.E.E.E.E.E.E.E.E.E.E.E.E.W.W.W.Q.~._.|.",
"|._.~.Q.W.W.W.E.E.E.E.E.E.E.E.E.E.E.E.E.E.E.E.E.E.E.E.E.E.{.3 g -.i.&.v.E.$X1 t W <.B.E.E.E.E.E.E.E.E.E.E.E.E.E.E.E.E.E.E.E.E.E.E.E.E.E.E.E.E.E.E.W.W.W.Q.~.'.|.",
"|._.~.Q.W.W.W.E.E.E.E.E.E.E.E.E.E.E.E.E.E.E.E.E.E.E.E.E.E._ a f S >.%.qXE.M 8 N q.3.>XE.E.E.E.E.E.E.E.E.E.E.E.E.E.E.E.E.E.E.E.E.E.E.E.E.E.E.E.E.E.W.W.W.Q.~._.|.",
"|.'.~.Q.W.W.W.E.E.E.E.E.E.E.E.E.E.E.E.E.E.E.E.E.E.E.E.E.).q k g t.5.e.W.`.7 q z W S gXE.E.E.E.E.E.E.E.E.E.E.E.E.E.E.E.E.E.E.E.E.E.E.E.E.E.E.E.E.E.W.W.W.Q.~._..X",
"|._.~.Q.W.W.W.E.E.E.E.E.E.E.E.E.E.E.E.E.E.E.E.E.E.E.E.E.T.u g g w.4.C.E.{.4 e f A Z hXE.E.E.E.E.E.E.E.E.E.E.E.E.E.E.E.E.E.E.E.E.E.E.E.E.E.E.E.E.E.W.W.W.Q.~._.'.",
"|._.~.Q.W.W.W.E.E.E.E.E.E.E.E.E.E.E.E.E.E.E.E.E.E.E.E.E.$Xu B s ;.%.wXE.qX, t w e.d {.E.E.E.E.E.E.E.E.E.E.E.E.E.E.E.E.E.E.E.E.E.E.E.E.E.E.E.E.E.E.W.W.W.Q.~._.|.",
"|._.~.Q.W.W.W.E.E.E.E.E.E.E.E.E.E.E.E.E.E.E.E.E.E.E.E.E.d.a k w.i.*.jXE.0X> e N 0.p hXE.E.E.E.E.E.E.E.E.E.E.E.E.E.E.E.E.E.E.E.E.E.E.E.E.E.E.E.E.E.W.W.W.Q.~.'.|.",
"|._.~.Q.W.W.W.E.E.E.E.E.E.E.E.E.E.E.E.E.E.E.E.E.E.E.E.E.^ a z t.1.0.`.E.0X> 8 t D j 9XE.E.E.E.E.E.E.E.E.E.E.E.E.E.E.E.E.E.E.E.E.E.E.E.E.E.E.E.E.E.W.W.W.Q.~._.|.",
"|._.~.Q.W.W.W.E.E.E.E.E.E.E.E.E.E.E.E.E.E.E.E.E.E.E.E.E.N j k *.:.q.W.E.eXu t t 0.< #.E.E.E.E.E.E.E.E.E.E.E.E.E.E.E.E.E.E.E.E.E.E.E.E.E.E.E.E.E.E.W.W.W.Q.~.'.'.",
".X_.~.Q.W.W.W.E.E.E.E.E.E.E.E.E.E.E.E.E.E.E.E.E.E.E.E.E.n g k w.w.g  XE.rXO e N w N i B.E.E.E.E.E.E.E.E.E.E.E.E.E.E.E.E.E.E.E.E.E.E.E.E.E.E.E.E.E.W.W.W.Q.~.'.|.",
"|._.~.Q.W.W.W.E.E.E.E.E.E.E.E.E.E.E.E.E.E.E.E.E.E.E.E.E.b 9 B s f d _ E. X+ 8 5 B 0.q.j {.E.E.E.E.E.E.E.E.E.E.E.E.E.E.E.E.E.E.E.E.E.E.E.E.E.E.E.E.W.W.W.Q.~._.|.",
"|._.~.Q.W.W.W.E.E.E.E.E.E.E.E.E.E.E.E.E.E.E.E.E.E.E.E.`.5 6 < w.y.i.:.rXE.# o # f W 0.*.#XE.E.E.E.E.E.E.E.E.E.E.E.E.E.E.E.E.E.E.E.E.E.E.E.E.E.E.E.W.W.W.Q.~.'.'.",
"|._.~.Q.W.W.W.E.E.E.E.E.E.E.E.E.E.E.E.E.E.E.E.E.E.E.E.kX8 # w *.1.y.&.4XE.# + 7 e f B g O.E.E.E.E.E.E.E.E.E.E.E.E.E.E.E.E.E.E.E.E.E.E.E.E.E.E.E.E.W.W.W.Q.~._.|.",
"|._.~.Q.W.W.W.E.E.E.E.E.E.E.E.E.E.E.E.E.E.E.E.E.E.E.E.[.8 3 p a a k u O.XXM o + 5 + O o o.W.E.E.E.E.E.E.E.E.E.E.E.E.E.E.E.E.E.E.E.E.E.E.E.E.E.E.E.W.W.W.Q.~._.|.",
"|.'._.~.Q.Q.W.W.W.W.W.W.W.W.W.W.W.W.W.W.W.W.W.W.W.Q.W.}.2XX.o. .Y Y M BX~.pXBX1X1X2X;X>XkXW.W.W.W.W.W.W.W.W.W.W.W.W.W.W.W.W.W.W.W.W.W.W.W.W.W.W.W.W.Q.Q.~.~.'.|.",
"|.'.~.~.Q.Q.Q.W.W.W.W.W.W.W.W.W.W.W.W.W.W.W.W.W.W.W.W.W.W.Q.~.).`.kXjXW.W.W.W.W.W.W.W.W.W.W.W.W.W.W.W.W.W.W.W.W.W.W.W.W.W.W.W.W.W.W.W.W.W.W.W.W.W.Q.Q.Q.~._.'.|.",
".X'._._.~.Q.Q.W.W.W.W.W.W.W.W.W.W.W.W.W.W.W.W.W.W.W.W.W.W.W.W.W.W.W.W.W.W.W.W.W.W.W.W.W.W.W.W.W.W.W.W.W.W.W.W.W.W.W.W.W.W.W.W.W.W.W.W.W.W.W.W.W.W.Q.Q.~._.'.'.|.",
".X.X_._._.Q.Q.Q.Q.Q.Q.Q.Q.Q.Q.Q.Q.Q.Q.Q.Q.Q.Q.Q.Q.Q.Q.Q.Q.Q.Q.Q.Q.Q.Q.Q.Q.Q.Q.Q.Q.Q.Q.Q.Q.Q.Q.Q.Q.Q.Q.Q.Q.Q.Q.Q.Q.Q.Q.Q.Q.Q.Q.Q.Q.Q.Q.Q.Q.Q.Q.Q.Q.~.Q._._._.|.oX",
"oX|.'.'._._._.~.~.~.~.~.~.~.~.~.~.~.~.~.~.~.~.~.~.~.~.~.~.~.~.~.~.~.~.~.~.~.~.~.~.~.~.~.~.~.~.~.~.~.~.~.~.~.~.~.~.~.~.~.~.~.~.~.~.~.~.~.~.~.~.~.~._._.'._._.|.oX",
"zX.X|.'.'.'.'.'.'.'._._._._.'.'._.'._.'.'._.'._._._._._._.'._._._._._.'.'._._._._._._._._.'._.'.'._._._._._.'.'._._._.'._._._._._._._._._._._._._.'.'.'.'.|..XzX",
"zXoXoXoX.X|.|.|.'.|.|.|.|.|.'.|.|.|.|.'.|.|.'.|.|.|.|.|.|.|.|.'.|.|.|.|.|.'.|.|.|.|.|.'.|.|.|.'.|.|.|.|.|.|.'.|.|.|.|.|.|.|.|.|..X'..X|.|.|.|.|.'.|.|.oX.XoXzXzX"
};
