/* XPM */
static char *e75a6fbf63454b83f47eae6accec0b6f6z7WDchL6lZExZCJ[] = {
/* columns rows colors chars-per-pixel */
"64 64 126 2 ",
"   c None",
".  c #64461B",
"X  c #67481C",
"o  c #6C4D1D",
"O  c #6F501E",
"+  c #71511E",
"@  c #755520",
"#  c #785721",
"$  c #7B5A22",
"%  c #B65105",
"&  c #BB5606",
"*  c #BE5906",
"=  c #BE5D0B",
"-  c #815F24",
";  c #856225",
":  c #896627",
">  c #8D6928",
",  c #926E2A",
"<  c #96712B",
"1  c #9B752C",
"2  c #9E782D",
"3  c #A27C2F",
"4  c #A67F30",
"5  c #C15D06",
"6  c #C66107",
"7  c #C96407",
"8  c #C46109",
"9  c #CC6708",
"0  c #CD6908",
"q  c #D36E08",
"w  c #D67109",
"e  c #D97409",
"r  c #DD790A",
"t  c #E27E0A",
"y  c #A78030",
"u  c #AA8331",
"i  c #B18934",
"p  c #B88F36",
"a  c #BA9137",
"s  c #BE9438",
"d  c #E5810A",
"f  c #EA860B",
"g  c #EE8A0B",
"h  c #F38E0C",
"j  c #F4900C",
"k  c #F59511",
"l  c #F69A16",
"z  c #F79E1B",
"x  c #F7A21F",
"c  c #C09639",
"v  c #C59A3A",
"b  c #CA9F3C",
"n  c #EF9B20",
"m  c #CCA03D",
"M  c #D4A73F",
"N  c #F7A421",
"B  c #F8A321",
"V  c #F9A927",
"C  c #FAAD2B",
"Z  c #EBAA39",
"A  c #FAB332",
"S  c #F3B63F",
"D  c #FCBD3D",
"F  c #DBAD41",
"G  c #D9AB41",
"H  c #DFB043",
"J  c #DFB143",
"K  c #E0B143",
"L  c #E1B243",
"P  c #E2B344",
"I  c #E3B444",
"U  c #E5B544",
"Y  c #E5B545",
"T  c #E6B745",
"R  c #E7B745",
"E  c #E9B946",
"W  c #EABA46",
"Q  c #EBBB47",
"!  c #ECBC47",
"~  c #EDBC47",
"^  c #EDBC47",
"/  c #EEBE48",
"(  c #EFBE48",
")  c #EFBF48",
"_  c #EFBE48",
"`  c #F0BF48",
"'  c #FDC242",
"]  c #FEC342",
"[  c #FEC545",
"{  c #FEC546",
"}  c #FEC646",
"|  c #F1C048",
" . c #F2C149",
".. c #F3C249",
"X. c #F4C34A",
"o. c #F5C34A",
"O. c #F6C44A",
"+. c #F6C54A",
"@. c #F7C54A",
"#. c #F4C34A",
"$. c #F8C64B",
"%. c #FAC74B",
"&. c #FCC649",
"*. c #F8C64B",
"=. c #FAC84B",
"-. c #FEC849",
";. c #FFC94A",
":. c #FFCA4B",
">. c #FFCB4B",
",. c #FAC84C",
"<. c #FBC94C",
"1. c #FCC94C",
"2. c #FCCA4C",
"3. c #FDCA4C",
"4. c #FDCB4D",
"5. c #FFCB4C",
"6. c #FECB4D",
"7. c #FECC4D",
"8. c #FFCC4D",
"9. c #FFCD4D",
"0. c #FFCC4E",
"q. c #FFCD4E",
"w. c #FFCE4E",
"e. c #FFCF4E",
"r. c #FFCC4D",
"t. c #FFD04E",
/* pixels */
"                                                                        j j j j                                                 ",
"                                                                    e j j j j g                                                 ",
"                                                                j q 5 g j g w * 5                                               ",
"                                                          j j j j d * t q * 5 w                                                 ",
"                                                      * d j j j h q % & 5 e h j                                                 ",
"                                                j j h 5 e j j d 9 & 5 r h j j                                                   ",
"                                          j j j j j g 5 r d 9 & 6 r h j j j                                                     ",
"                                      j j j j j j j w % 5 * 6 t h j j j                                                         ",
"                                    j j j j j j h w % & 9 t j j j j j                                                           ",
"                                  j j j j j j t 6 & 0 d h j j j j                                                               ",
"                                j h j j j h r & 0 d j j j j j                                                                   ",
"                              j j j j j j f * q f g j j j x D 9.9.5.9.9.0.5.9.9.9.0.5.9.                                        ",
"                            j j j j j j j 0 & 5 * * r N ` >.9.9.5.0.9.5.0.9.5.0.5.0.9.5.0.9.5.                                  ",
"                        j j j j j j j j f & % 0 d q 5 ~ 0.9.>.9.5.9.0.5.0.5.9.0.5.9.0.5.0.5.9.0.9.                              ",
"                      j j j j j j j j j w % w h j h 5 Z 0.0.5.9.0.0.9.9.9.9.5.5.0.0.9.9.9.9.5.5.5.9.9.                          ",
"                  j j j j j h j j j j g 5 0 h j h h n &.5.9.0.0.9.5.5.0.5.0.0.9.9.5.5.0.5.0.0.9.0.0.5.9.0.                      ",
"              j j j j j j j j j j j j w 5 f j j h l ] 9.5.0.9.5.5.9.9.0.9.0.0.5.0.5.5.9.5.9.9.0.9.9.5.0.9.5.                    ",
"          j j j j j j j j h j j j j d & e j j j j A 9.9.5.9.0.5.0.0.5.5.5.5.9.9.9.9.0.0.0.0.5.5.5.0.5.9.0.5.0.                  ",
"        j h j j j j j j j j j j j h 5 9 h j j h z 5.5.9.0.0.9.9.9.5.0.9.0.9.5.0.5.0.9.5.9.5.0.9.0.5.0.9.0.9.5.9.                ",
"      j j j j j j j h j j j j j h 0 5 f j j j j A 0.9.5.9.5.5.0.9.0.5.9.0.5.9.0.5.9.0.5.9.0.5.9.9.9.0.5.5.9.0.0.9.              ",
"    j j j j j j j j j j j j j j e * t j j j h l &.9.9.9.9.0.0.5.5.5.0.9.0.9.5.5.0.0.9.5.9.9.5.0.5.0.0.9.5.0.9.5.9.0.            ",
"    j j j j j j j j j j j j j r * e j j j j h C 9.9.9.5.5.5.9.0.0.9.0.5.5.9.0.9.9.5.9.0.9.9.9.5.5.9.5.9.5.9.0.5.5.5.9.          ",
"  j j j j j j j j j j j j j d * 0 h j j j j k D 0.9.9.9.0.9.0.5.9.0.9.5.5.0.9.0.9.9.5.0.9.9.9.5.0.9.9.9.0.0.9.9.0.9.0.          ",
"  j j j j h j j j j j j j f * 9 h j j j j h x -.0.t.0.0.0.0.0.0.9.5.9.0.9.0.5.5.9.9.0.0.0.0.0.9.0.0.9.9.9.5.5.0.0.5.5.9.        ",
"j j j j j j j j j j j j f 5 7 h j j h j j k D 5.E I I I I I I I E 0.9.9.5.5.0.9.9.%.Y I I I I I I I  .9.0.5.5.9.9.5.0.9.5.      ",
"j j h j j j h j j j j j w 7 g j j j j j j C 5.s @ o O + O O O O $ v 0.5.0.9.0.5.<.y + + + o O + + o ; J 9.9.0.0.9.0.5.9.0.      ",
"j j j j j j j j j j j j h g j j j j h k A 5.*.; . . . . . . . . . < 5.9.5.9.9.9.Y @ . . . . . . . . . i 0.9.9.5.5.5.0.0.0.5.    ",
"j j j j j j j j j j j j j j j j j k x D 9.5.5.4 . . . . . . . . X i 5.0.0.0.5.9. .> . . X . . X . . o m 0.9.0.5.0.9.9.5.9.9.    ",
"j j h j j j h j j j j j j j j j z D 5.9.5.9.9. .v 1 . . X . X 4 m o.9.9.9.9.5.0.9.E c : . X . . O i G *.5.0.9.9.9.0.0.5.5.5.    ",
"j j j j j j j j j j j j j j j x [ >.5.9.9.5.9.9.5.2 . . X . . u 0.0.5.0.5.0.5.9.9.0.o.; . . . . X v 0.9.9.0.5.0.5.5.9.9.0.9.0.  ",
"  j j j j j j j j j j j h j z [ 9.5.9.5.5.5.0.9.) $ . . . . . : o.9.9.5.0.5.0.9.9.0.F o . . . . . 4 9.9.9.5.0.5.0.9.5.0.9.0.9.  ",
"    j j j j j j h j j j h z ] 9.9.9.5.9.0.9.9.0.Y @ . . X . . $ | 9.0.5.9.9.0.5.9.9.m X X . . . . , <.9.0.5.9.9.0.5.9.0.5.5.9.  ",
"      j j j j j j j j k V &.0.9.9.0.0.5.0.5.9.0.I @ . . . . . # / 9.0.9.5.5.0.9.9.0.m X X X X . . , <.9.9.5.0.0.9.5.0.9.5.5.0.9.",
"        j j j j j j l ` 5.0.9.0.5.5.9.9.9.9.9.0.) $ . . X . . : o.9.5.9.0.9.0.5.9.0.F o X . . . . 2 9.9.0.5.9.5.9.0.5.9.0.9.0.5.",
"                      0.5.5.9.5.0.9.5.0.5.0.9.5.<.1 . . . X . y 9.9.9.5.9.0.9.5.9.9.X.$ . . . . X v 9.9.0.9.5.9.5.5.0.0.9.0.9.5.",
"                      9.5.9.0.5.0.5.9.0.5.9.0.5.4.G o . . . @ J 0.9.9.9.5.5.9.0.9.9.0.a . . X . : | 9.5.5.9.0.0.0.9.9.5.5.5.9.0.",
"                      9.5.0.9.9.9.9.5.0.5.0.9.9.9.<.a @ . O v 9.5.9.9.0.0.0.9.5.5.0.9.X.4 X X $ G 9.0.9.5.0.9.5.5.9.9.0.0.0.9.5.",
"                      5.9.0.5.0.5.0.5.9.9.0.5.0.9.5.5.J G I <.0.0.0.5.5.9.5.9.0.9.0.9.9.<.G G / 9.5.5.9.5.9.0.5.0.0.5.5.9.5.9.0.",
"                      9.9.5.0.5.0.5.0.9.9.5.0.5.5.9.5.0.0.9.9.0.9.5.0.9.5.9.5.0.9.5.0.5.9.9.0.9.9.5.0.0.0.0.9.9.9.5.0.9.5.9.5.0.",
"                      5.0.5.9.9.9.9.0.5.0.5.9.9.0.9.9.0.9.0.5.5.9.0.5.9.0.0.5.9.0.5.9.9.5.9.0.5.5.9.9.5.9.5.5.0.9.0.5.9.0.0.5.9.",
"                      5.0.9.5.0.5.0.9.5.0.0.9.5.9.5.0.0.9.5.0.9.5.5.0.9.5.0.9.9.5.5.0.9.5.0.9.9.0.5.5.9.5.9.9.0.5.0.9.5.0.0.9.5.",
"                      9.0.5.9.0.5.9.0.5.9.5.9.0.0.5.9.5.9.0.5.9.0.9.0.5.9.0.5.0.0.9.0.5.9.0.5.0.9.9.0.0.0.0.5.5.5.9.0.5.9.5.9.0.",
"                      9.9.9.5.5.0.0.9.9.5.9.5.0.0.9.5.9.5.5.0.0.9.0.9.5.9.5.0.5.9.0.9.5.9.5.0.5.5.0.9.5.9.5.0.9.0.0.9.9.9.0.5.0.",
"                      0.5.0.0.9.9.5.5.0.0.0.5.9.5.9.0.0.0.9.9.5.5.5.9.0.0.5.9.9.5.5.9.0.0.5.9.9.5.9.0.5.9.0.5.9.9.5.5.0.5.5.9.  ",
"                        9.0.0.5.0.5.5.9.9.9.5.0.5.9.5.5.0.5.5.9.0.9.5.0.9.5.5.0.0.9.9.9.5.0.5.0.0.0.9.5.9.5.0.0.0.5.5.9.0.0.9.  ",
"                        5.5.9.9.9.9.0.0.5.0.5.9.9.5.0.9.9.9.0.9.0.5.9.0.9.0.9.0.0.5.9.9.5.9.9.9.9.5.9.0.0.5.9.5.9.9.0.0.9.5.9.  ",
"                        0.9.5.0.5.0.9.5.0.5.0.9.9.9.0.0.0.9.9.9.9.5.0.5.5.9.9.5.9.5.0.0.0.9.0.0.0.9.5.0.0.9.5.9.5.0.9.5.0.5.    ",
"                          5.9.0.5.9.0.5.9.9.0.5.9./ c m F / o.o.<.9.9.9.0.9.9.9.5.0.<.o. .E F v v O.9.9.5.9.0.0.5.9.0.5.9.9.    ",
"                          9.5.9.9.5.0.0.9.5.5.0. .: . . o @ ; > , 1 4 4 u y u 4 3 < , : $ @ o . X i 9.9.9.5.0.0.9.5.0.9.5.9.    ",
"                            9.5.0.5.9.5.9.0.9.9.E @ . . . . . . . . . . . . . . . . . . . . . X . < <.5.0.5.9.5.9.0.5.9.0.      ",
"                            5.9.0.9.5.9.5.5.0.0.<.u @ . . . . . . . . . . . . . . . . . . . . X $ m 0.9.0.9.5.9.5.5.0.0.9.      ",
"                              5.5.9.0.0.0.9.9.5.5.<.Y v p y 1 > : $ $ $ # @ # # $ $ : , 2 u a G E 5.9.9.5.9.0.0.0.9.9.5.        ",
"                              0.0.9.5.5.5.9.9.0.0.9.0.0.t.9.0.*.o.X.` ) ) Q ) )  .O.*.<.9.9.0.0.0.9.0.9.5.0.9.5.5.9.9.          ",
"                                5.9.0.9.0.0.5.5.0.5.9.0.9.9.5.9.9.9.9.9.9.9.5.9.9.9.9.9.0.5.9.9.9.9.5.9.5.9.0.5.0.0.5.          ",
"                                  0.9.0.9.5.0.9.9.9.5.5.5.5.0.0.5.9.5.5.5.0.9.0.0.5.9.5.0.9.5.9.5.5.0.0.0.0.9.9.9.5.            ",
"                                    5.5.9.0.5.9.5.0.0.9.0.9.9.5.0.0.5.9.9.0.5.5.9.9.5.9.5.9.0.0.0.9.9.5.9.5.5.0.0.              ",
"                                      9.5.0.5.0.5.9.9.0.9.0.0.5.9.5.0.9.5.5.0.9.5.0.9.9.5.0.9.5.5.9.9.0.0.5.5.9.                ",
"                                        5.9.9.0.0.0.5.5.5.5.9.9.9.0.5.9.0.9.0.5.9.0.5.0.5.9.0.5.0.0.5.5.9.9.0.                  ",
"                                          0.9.5.9.5.0.9.0.9.5.0.5.5.0.0.9.0.9.5.9.5.0.5.0.0.9.9.9.5.0.9.5.0.                    ",
"                                              9.9.0.5.9.0.5.9.0.0.9.9.5.5.5.9.0.0.5.9.9.9.5.5.0.9.0.5.9.                        ",
"                                                5.0.9.5.0.9.5.5.5.9.9.0.0.0.9.5.9.5.0.0.0.5.5.9.5.9.5.                          ",
"                                                    9.0.5.9.0.9.0.0.5.5.9.5.9.0.0.5.9.5.9.9.0.0.0.                              ",
"                                                          0.5.9.9.5.0.9.5.9.5.0.0.9.5.9.5.0.                                    ",
"                                                                9.0.5.9.0.0.5.9.5.9.0.                                          "
};
