/* XPM */
static char *_b273f1a0baa41da93dcb29634a8823fiujsLpcuNqccHxUv[] = {
/* columns rows colors chars-per-pixel */
"64 64 97 2 ",
"   c #00071C",
".  c #000B1D",
"X  c #00131E",
"o  c #000E23",
"O  c #011325",
"+  c #021A26",
"@  c #00152A",
"#  c #08172A",
"$  c #021A2D",
"%  c #0A1C2C",
"&  c #011631",
"*  c #041D32",
"=  c #0A1E32",
"-  c #05212B",
";  c #0A212E",
":  c #062135",
">  c #0A2335",
",  c #0C2937",
"<  c #062338",
"1  c #0B253A",
"2  c #0E293C",
"3  c #112536",
"4  c #142837",
"5  c #12263B",
"6  c #132B3D",
"7  c #1A2C3D",
"8  c #16313F",
"9  c #19303D",
"0  c #0E2B41",
"q  c #132D42",
"w  c #192E43",
"e  c #152E48",
"r  c #163145",
"t  c #1A3345",
"y  c #1E3A46",
"u  c #163349",
"i  c #1B354A",
"p  c #16394D",
"a  c #1E394C",
"s  c #173750",
"d  c #1D3751",
"f  c #173B51",
"g  c #1E3B51",
"h  c #1F3F58",
"j  c #213646",
"k  c #223947",
"l  c #21364C",
"z  c #223B4E",
"x  c #2A3C4D",
"c  c #233D52",
"v  c #293E53",
"b  c #253E58",
"n  c #1E4258",
"m  c #23404E",
"M  c #2B424E",
"N  c #264154",
"B  c #2A4355",
"V  c #2D4955",
"C  c #264359",
"Z  c #2B455A",
"A  c #27485B",
"S  c #2D495D",
"D  c #31455B",
"F  c #324B5E",
"G  c #38525F",
"H  c #2E4B61",
"J  c #334D62",
"K  c #394E64",
"L  c #355164",
"P  c #3A5366",
"I  c #3E5865",
"U  c #375369",
"Y  c #3B556A",
"T  c #37586B",
"R  c #3D596C",
"E  c #3E5B71",
"W  c #405864",
"Q  c #41566A",
"!  c #415B6D",
"~  c #435D72",
"^  c #495D72",
"/  c #455F79",
"(  c #456175",
")  c #4A6376",
"_  c #476379",
"`  c #4B657A",
"'  c #4D697D",
"]  c #51667C",
"[  c #526C7E",
"{  c #4F6B80",
"}  c #526C81",
"|  c #5A6F83",
" . c #567185",
".. c #587383",
"X. c #557489",
"o. c #587388",
"O. c #5E798C",
/* pixels */
"3 # 1 5   5 j O w o % 3 O 3 v > 8 2 , : , r 6 z 6 = l v b d / / * 0 y N a i a a v 5 / P w q v 1 c c c a C ~ z 1 1 1 * 1 @ * 1 i ",
"@ O 3 5 > # @ 7 = t > # w 3   = , - $ O : 4 + 9 = @ e c b e ~ / * 1 u z a i m a b i l Z Z O 1 v i c c c g Y r * @ 2 1 * @ q 0 @ ",
"Q P P 3 G ] ! V w ! ) ^ ) F Z ) _ V ! I I ) V F 5 $ 5 i d w U Y : 1 i c a a z y l D w J K o * l c N c a g ~ N c _ U C H R { ( U ",
"G N ) 6 q y F ! ) V j c B I ( F m G I [ D m [ I r : 6 q c H _ R < , i g a a a i w J l Q J # q 1 i c c c L U 1 < i N L R C q c { ",
"B t R , r 8 y A z m V A k a c m y r m V 9 y G ^ 7 , y i N S R U * = e d a c c i l l b / Z @ 5 e i c g t ( S O @ u a C Z J b a C ",
"2 ! [ : : r r i m N a i t y c V m y , r V y 9 W y , t i t p C E & = e l c i c l d l l Q K & = v c c i e ~ R e r q r i u N a i a ",
": S F : + < > t r 6 6 q 6 6 q , - - y 9 9 9 X W 5 % 3 8 6 8 a ! < 5 l b l l l l w l l J Y = q i i g g c H ( i * w e 2 < i 1 0 c ",
"O $ = 1 . * > , O : = @ * * : 6 , X - 3 - ; 4 % % + % ; : - O * = 1 l c b l c c b l w H K @ w e g i i c 0 ( c @ 2 2 = @ < @ O @ ",
"3 v Q v v K # & :   # & o * @ # @ % O O + # X % # X + % 7 x F B 1 e q 0 c c l c b i i ^ c @ 0 b g a i c i ) < c U g i i H S b 1 ",
"& Q ^ Q v ^ | l @ 5 v w # & @ @ # = # + # % . . X # % # 3 x D K & = l l i e l l l i b U / @ @ 0 i r u r L Y 2 C C Y ~ _ S ` } R ",
"5 # w ] v w Q Q > v D w w v F l 3 7 4 3 7 7 3 % %   . # % 7 j P = 0 e 0 i = = e 0 e e = Z * q e < r u 1 0 U u @ u b N R N i c { ",
"& w l v l x v ^ ^ Q j l v w w j w w j x M x x x 7 % 3 # O o O 6 5 5 @ o & & @ * & & & 1 @ @ * o * * @ < o * * i r N V u N c H R ",
"& = e w l c = } v K e i v i l v c t y z x j k x x 4 X # x ) I F b b U { e J J d l g h E A H H L S E C 1 S 1 o @ 1 1 J 2 0 c { C ",
"= 5 e l l b c / c ~ Z w l l b e a 8 6 y y 7 t x x 9 # + 8 m F ( } / Y ~ * J ` _ ~ o._ H H U L R ( ( L U o.R 1 @ 1 < c S a i J R ",
"* = q c i i l ~ v Z e c v e l c i r r i 6 t k y V k X + 2 : i F c J b l e b d c u J H e u A n n H ( ( J 2 Y C * * g i g c a r R ",
"& = l i i c i ` i J J c i c c e a i z y q y z 7 q V : + < 8 m r i e l d e s d c H u p C 0 p p N C i Z c C U N 1 * 0 : 2 g b i U ",
"& 0 w x e j l { Z Q H b b d b Z H b i i c c i z z j , o = , z z d l b K * 0 d g g d i p A y C N a b C i C { 1 e * * * @ e s H Y ",
"3 = q = w = w b v ~ J J b K ~ ^ R ! R J P I P K ~ Y b 1 5 q i t l s b J e d s e d C c c i N z a c d a b H R * d * * * 0 b l J / ",
"o & # = q = & = 1 c i Y Z s 0 0 0 D R J Z Z B B F Z c 1 = 2 a q b i d l d c g u g C N N u N a i i c c c b U e q s s 0 & e U Q Z ",
"e l v K K K b l ~ C 1 C U U H b = Z R K J P J J J F P z = 0 b z c l d e d d b C h d C a z u y a i c g d i K g < 0 = * = 0 b U / ",
"5 q B z Y D K e e H R U U H E L i B B c x c i t b N I c @ : i i l l b i C d c b C p c i a i y y g p u g c H C q i u i p 0 e Z E ",
"# q i 6 v Z J * 0 N H N A g T N O : t i z c c C a z P S 1 q z B b l i q d i g d c g g u r C u r i c g p i J A u < < < @ & 0 Z U ",
"@ r 6 q r g C @ @ 2 p m p 0 H S @ q i i q 1 > 6 i 6 c z = q 1 q l q = * < 0 e 0 e q r 0 1 N 2 2 0 r i < 0 N g e c u u q e @ 1 J ",
"* * : $ :   u * : i p a u n T A * = @ O @ , : = = o * 1 @ , @ = @ & & * * * : * * o < * , 1 $ : * @ * @ * : @ 0 2 0 2 = p * & * ",
"C 2 , N T y A + r r y A p m ( L c J c , q c J , t S F 1 i Z B t = K v v C 1 C C U c b a 1 g D N A N * J H u r C A H Z p i J L r ",
"R ( ( E I H _ 2 q p y p u m ( A $ F ) S P K ` D t J ) ! ! J P ) 6 J ! ! ~ P _ _ C p { J C o.R R ) U 0 H L ( } ( Z C R { ( U R _ ",
"n L T C p N ~ $ , < r y N , S V * 1 c J ` i J P @ 1 b F J w c Q 3 @ , q H ^ S 0 i i p _ ^ u c N ~ C @ 0 0 S Y a g i N J C i p Z ",
"z N C a y H ( $ 2 < , 8 y 1 V T = : 6 t B z L z @ = 6 i l , c P # * c z r g i N J u C r r Z u R ~ S @ q w c C z b c a i c N Z g ",
"N i u u i L R $ + , 6 - @ $ - + @ , i t 1 D ) r @ r z t i c ! ! % > 2 y g y r N < h a r p N N q R L @ , r i i b i t i v c i i v ",
"g N a u t L Y , 2 C V m y a t 8 : * q V q c P x O t c t i Z ! N $ , 6 z N i u N Z c u c N i t b Y ! * 1 c b t w z c l c z t r c ",
"r i r 1 , C V 2 y y N z C V ! ) q t t c t c P c * a N z c S ^ N $ > 8 x i a p i i u g a c N i a v D O 1 i v w = q w 6 3 q w w t ",
": : @ $ @ 1 2 < $ : y > 6 4 y 3 : j z i z t Z Z @ i B c j t ~ ! % + t z 1 B N i i c a i i t B l Q J @ = = = = @ * = * * = @ O = ",
"y : , : t , . X O + $ + O O O @ + ; j B 4 M ( t $ : q e Z t ! J $ @ 7 t 6 t x F : 5 i x t t z k K P 1 z t 6 q @ , q i i t q w i ",
"L G E ( ..z 8 > > ; O + 4 % 3 @ + > 7 j V M ! F . 4 N w y i ) J % $ : > 5 7 > = % 5 t l t w q 4 5 Z q R ] ) R ~ Z J Y ~ ! ! ( ` ",
"L ( P m T , ~ L 4 t 7 7 j 4 3 @ 3 > 6 5 t t F t 1 - 1 z i * N S @ = = = = # O   @ = = # % : % = 6 & @ , q z P Y ) Y B i q t D Y ",
"r A m m ) t Y 4 a V M B D M q 5 + O * = @ O q 1   , t 6 @ = y 1 O O O @ @ O # = @ = @ O # @ O @ @ o = q i i v y w i z B B B N v ",
"A n y A J , L R c t 2 1 e v = = > v b F l = = Z Z : % Z F i > $ F V 5 5 6 % @ @ # = = > 4 @   O O * @ o z z q c c z j i i t t i ",
", y V T C q J ~ C i i i e H 5 & = v K ^ Q } / ` ! ( ) ( R P P G K F 7 w N y y r j t y z x t r j * = * @ z c t i t i i i z c c c ",
": r u G U b H e c b J U b b b * & = i b l ~ Y w i J J w t L ! R v Y v l c i z j v i w w r i v v c @ @ 2 1 6 c q q 6 q w t w y i ",
": : O r l 0 ~ Y H H Y Y / H { e & & = l c i i Z i c c i B k m R B ] Y v D D Q K K J Z v z F K B L , = w 1 @ 1 * : 1 : 1 1 > : 1 ",
"$ $ = : : 0 w < 1 e e e d e b 0 1 & 5 e b l b l i b i t D 4 N I c t B F L N : Z 6 c c , q c , D J d & = * * * * * * 0 1 0 * * * ",
"P N K | } K J ` o.0 R R d J c / & & q l D e l b c c z z z u F G 5 c ! ~ J y i t i | S Q C : J ~ K ) / J = 0 J Q { v 1 Z U K K / ",
"K ^ K w l ^ ~ b ~ o i c { / J Z & = q w b v b e c i y N 6 z R A * y J ~ R F ' x O F c L ( ) } N c c K Q H 0 i i i ~ } ^ b H Z b ",
"D F B v v c l Z i i y F d d b F w = & q v w l v v i a c r z ! V : 2 , N L N ' N 2 2 c B V L a r J i b ^ / 0 0 l Z Z b w i c v i ",
"3 l x x v j j x K   y r y r V R % 6 q @ = 5 z c z z z c C k R P = 1 2 0 c r U C * : u c i i c N l c l b Y * * u i q i l B w i b ",
"7 w 7 w l w w j F : 9 M t y , V > > 6 4 w O @ 6 z z z y F t L R @ 0 r e g c Y H @ 1 c c b g c q i c c d R 1 @ * q i e e 1 e q 6 ",
"o # 7 7 = @ # = O + + X 8 X > 8 7 y y ; 6 % + O k z z i c q F R * e r u i N R a : * a g c u i S z g b Z S @ & 1 @ * * 0 = = * 1 ",
"# o # = # o o o ; ; + ; ; X + + 4 y k 6 6 O + 4 z B z B q t J R < 2 2 N q g _ N < r u 1 a a N i b w i b b 1 = o * & * @ & @ & @ ",
"# # # # @ % 5 5 # # % + 4 + X - 4 7 7 9 % : y m z y B y V y ( m < 2 r c r i Y F * 2 a r N a a g z c Z K U i b & & # @ & = = o # ",
"j 7 4 3 l l i q = = 5 5 4 k - X 4 7 8 6 : - 2 y z t N r , F ] t : 6 2 m N i B J $ q y r N y z a g i g E b K | i c = 3 l l w 5 O ",
"j k x w D v v c b l v B 4 M - X > t t > 6 $ $ t 2 : > t : > t ( - u a i r F ( , * 2 a t g y z m l u c H K b R _ H e j J D i e l ",
"k x l l l l e i l u e v 9 M X - > 7 t : 4 : O 1 , 2 + > 6 , . $ 1 : t A i m R r @ 2 a a a a a a H e u q } c i } q b v e q v D Z ",
"B t 1 C i c d i i i i y m y X , : 4 6 , > > $ $ O k V r $ , F V $ < 8 C A q V Y @ 2 a N i i y i e i H E Y l C J T a N n 1 t N 6 ",
"a r 0 c e d d b i N c y m 9 - X , y 6 r , r > @ $ N I ( ) B ! G @ 2 u 6 N V ( S $ 2 i N r y i u c b l J d & ` H y < 2 N C z N N ",
"C H N u d u e d d g i m m m 9 X , T y z t c i 5 O 6 z z ( I ( ! 1 : 2 8 z C ) C : 6 a C 2 u r q l l e b } 0 ~ i 2 H L n n n p u ",
"Y _ T d ` / T E / J V ) V V V - 1 } a C z B i t : O y x z z F I + r r : N q V S : r y N 1 r 6 q l l u l U i Y ` A L E ( L L T ( ",
"b b J d b H H b J L R N C R P y 2 T U L S H F K , @ 6 c t 8 G F * $ : q : : $ < $ $ 6 N + 1 + : : 0 * $ : 2 C H Z p p R T T A A ",
"0 0 b U H @ e b e i r U N c a N n n < q C n l l 1 # 5 j y u G N : N o 1 6 2 r t t r 1 2 2 r N : r * < i H q O i C A C g < p A A ",
"H H E / d & ' ~ R H _ Y E T E ' _ _ H T ' U P ~ w = > j z y G T 1 ! N O.( i B _ R ( T N r : R ( F A P U R E 1 S ( _ ~ R E X._ H ",
"/ / b U l @ e b E E i c A ~ ` C < H U L m 2 i ` l 5 > y N N I R + q r y y o.` y r t P ( N : < y B ` P u r E @ 0 1 g L ( _ E A u ",
"D l e ^ c 0 i c g i Z C u C g H n n p g c J c ^ w i 6 w z F T V r @ r a u a i N N i c R C : < N N r i A p ( V : 0 i b l u u c A ",
"d K D Q l = O c i i p i C r A u h p p N i b l ` w 5 5 z t y G ! @ @ 2 y S y i N y B C ! I + 2 r a B a y _ L < @ 1 u b l C C c u ",
"l w K | v o = c c c b C 0 n s n f f h h b d K K 7 > 5 D t t I ' : r u i c p z a a C t Y L @ 1 : 8 n N r U L e = q l c 0 u i b b ",
"x D ^ Q w O w q c i g h h p h f u n h e C e ] Z > > 6 B y G T m , : i V t c N y a c r L y : - N N r m A u ^ Z @ 0 d c i b v v l "
};
