/* XPM */
static char *bb55058dbcad4c0da0952e9dbd4160abqIufmjm4PpGPYsy8[] = {
/* columns rows colors chars-per-pixel */
"80 80 138 2 ",
"   c #0E1C27",
".  c #0E1D2C",
"X  c #111E2E",
"o  c #121F31",
"O  c #14222E",
"+  c #152333",
"@  c #192635",
"#  c #172832",
"$  c #1B2936",
"%  c #162238",
"&  c #1A2738",
"*  c #1D2B3B",
"=  c #1F3038",
"-  c #202E37",
";  c #212E3D",
":  c #23313E",
">  c #28363F",
",  c #1F2E41",
"<  c #1F3042",
"1  c #212E41",
"2  c #253343",
"3  c #283545",
"4  c #293545",
"5  c #283444",
"6  c #293744",
"7  c #2A3644",
"8  c #2B3745",
"9  c #283546",
"0  c #293646",
"q  c #293647",
"w  c #2A3646",
"e  c #2A3747",
"r  c #2B3747",
"t  c #293644",
"y  c #2A3843",
"u  c #2A3845",
"i  c #2B3946",
"p  c #2C3A45",
"a  c #2C3846",
"s  c #2D3B46",
"d  c #2C3A47",
"f  c #2E3C47",
"g  c #2B3945",
"h  c #263548",
"j  c #253648",
"k  c #273649",
"l  c #263749",
"z  c #263449",
"x  c #293649",
"c  c #2A3748",
"v  c #28374A",
"b  c #2A374A",
"n  c #29364A",
"m  c #27384A",
"M  c #27394A",
"N  c #283848",
"B  c #2B3848",
"V  c #2B3849",
"C  c #29384B",
"Z  c #28394B",
"A  c #2B384B",
"S  c #2B3B4B",
"D  c #2C3848",
"F  c #2C3949",
"G  c #2D3949",
"H  c #2D3B48",
"J  c #2E3A48",
"K  c #2C394A",
"L  c #2D3A4A",
"P  c #2D3A4B",
"I  c #2E3A4A",
"U  c #2E3B4B",
"Y  c #2F3B4B",
"T  c #2F3D48",
"R  c #2E3C49",
"E  c #2F3D4A",
"W  c #2A394C",
"Q  c #2B3A4D",
"!  c #2C394C",
"~  c #2D3A4D",
"^  c #2E3B4C",
"/  c #2C3B4E",
"(  c #2E3B4E",
")  c #2C3C4C",
"_  c #2D3D4D",
"`  c #2F3C4C",
"'  c #2F3C4D",
"]  c #2D3C4F",
"[  c #2F3C4F",
"{  c #2E3E4E",
"}  c #2F3F4F",
"|  c #2C3B4B",
" . c #303E4B",
".. c #303C4C",
"X. c #303D4D",
"o. c #313D4D",
"O. c #313F4C",
"+. c #303D4E",
"@. c #313E4E",
"#. c #313E4F",
"$. c #323F4F",
"%. c #313E4D",
"&. c #2E3D50",
"*. c #2D3E50",
"=. c #2F3E51",
"-. c #2D3D51",
";. c #303D50",
":. c #313E51",
">. c #323F50",
",. c #303F52",
"<. c #323F52",
"1. c #313F52",
"2. c #32404D",
"3. c #33414E",
"4. c #34424F",
"5. c #32414D",
"6. c #2F4053",
"7. c #334050",
"8. c #334051",
"9. c #314053",
"0. c #334053",
"q. c #344151",
"w. c #354350",
"e. c #344152",
"r. c #354252",
"t. c #354253",
"y. c #364353",
"u. c #324154",
"i. c #344154",
"p. c #374454",
"a. c #374455",
"s. c #334253",
"d. c #384555",
"f. c #384556",
"g. c #384656",
"h. c #344459",
"j. c #394659",
"k. c #354859",
/* pixels */
"+ * & % ; + + % % * + , % + + + & % * , + % + + * o * & O & + % * % , + % + + , + * * & o + * * + 1 & o & X ; + & * + + % + * % * $ X % # * + % * + & @ + 1 X * ",
"1 y.P 3 ..P ( 5 ( a.4 d P P o.2 7.P c :.4 P 3 4 a.c ( 2.6 o.2 o.o.B 7.3 P P 5 a.r 4 ( d ..1 o.o.5 ( P 2 P 2 y.4 c :.d P c P o.P E ..3 o.5 :.P P o.P ( 4 4 p.4 ( ",
"> 3.2 : P : P 5 P E * 6 y ; P : w.y ; 4 4 4 y 6 ..: * f : f : 2.y * u > y y 2 o.; 2 d : f : ..y * y y 2 u 6 3.y ; u : P : P P * > y ; P 2 2.6 ; d : 6 6 d ..; 2 ",
": u * $ : $ > : 4 4 & * y * 6 ; 4 ; & ; : : : 6 3 ; # : * P * ' : $ : * 2 : : P $ $ : $ y ; u 2 # ; ; : > ; d & $ ; * u * y y # ; : $ y : P ; + 2 & : : 4 2 & & ",
"+ & & X o & $ + + ; & X + & & + $ & X + & % % + * + + + & & + % * X # & & & + & % X + & ; o + , + + & % $ + * &   & % ; # + * + X & & & + & % o O & 1 + & & + . ",
"P P y.r $.<...P c :.+.r P y.B P P y.c o.o.:.:.c :.( o.P o.o.c c y.4 ( ..2.P B ' :.P o.a.+.r z a.( o.:.:.&.c :.<.c P y.( P 5 <.( ( E y.u ( ( 7.Q P 7.o.4 4 y.P ( ",
"c 2 4 r $...4 r 5 P 2 $...$.2 d : ..2 E ..4 5 5 B 2 P o.o.B 4 3 ( 5 ....P 2 4 4 5 P $...2 c 5 h 5 ' E d 5 5 4 c P o...y P y o.5 o.E ( 2 4 B ' 3 2.E 4 P 5 u 3 ..",
"$ # # # : ; : O O ; X : - : # # # - O : 6 * $ + * + & > * # $ & # O : : $ # $ $ & $ : ; # & # * X : 2 ; $ $ & # # : : $ $ O $ X : : ; $ # + $ + : : # $ + * # & ",
"1 1 z c z 2 2 2 2 2 c z h 1 z , 3 < m m 2 , 5 1 5 3 z n < 2 2 2 5 5 Q , , c , 2 2 h h , 5 , 2 3 h c 5 1 2 2 2 3 c c 1 5 z 1 2 h h Z , 2 < j 3 h u 2 1 1 2 2 z 5 ",
"5 P +.$.-.3 2 o.c c $.o.y.; ' 4 d P a.o.B c +.w c :.:.:.3 ' B u ( y.o.( ; y.5 ( Q :.:.3 ....P u :.( +.2 :.2 P P ( :.r 5 P c P -.7.o.2 ' c m r p.' P 4 +.h B Q y.",
"& 2 5 r P 2 & P ; 2 5 r +.$ 4 2 1 2 E 4 2 ; 5 ; 2 4 r r ; : ; ; 2 r 4 P $ 4 & 5 5 r P ; ; : : : P 4 ..$ c * 4 2 P r ; ; r ; : 4 B u $ 6 ; 6 ; P 4 2 - w 1 2 5 ( ",
"+ $ + & ; $ + + % & X ; ; + + + $ & & ; & + + @ & % & - & + + $ + & ; & + & & $ o ; ; & + + & & & ; ; + + % % # ; ; & + $ + & & * * O + + & & # ; & X & & % + * ",
"( Q Q Q *.Q m 2 -.-.h -.! &.2 z Q m m 6.-.h h Q :.B Q -.Q h 3 S o.c 6.h Q 5 -.' n ( ' -.m B Q 6.5 -.Q Q 2 -.Q Q j 7.Q 3 1 -.:.h ' ' Q 2 S S S j o.S m 3 ' Q Q Q ",
"( -.-.Q Q -.-.h Q Q -.B ( &.2 -.6.Q Q 6.*.&.c ( -.Q *.*.*.m Q 6.-.m 6.Q -.j Q Q ' Q Q 6.Z Q Q *.Q *.Q 7.h Q Q 6.m 6.6.Q Q ( -.Q -.m 6.j 6.S Q 6.' Q 6.2 6.Z *.Q ",
"2 6 3 2 u B 6 6 3 j 2 y B 4 , m 3 3 6 u 4 3 ; 4 4 2 m j 4 : 3 4 3 : B E 3 * j 6 3 3 B S < 6 2 3 3 u m B * 6 2 2 B B 4 j 2 6 3 2 u 2 S * u j 3 3 u j 2 = u 3 3 c ",
"> y ; ; T y $ $ y y $ d y > $ ; y : ; J d ; $ y y ; > p p $ : y y ; u y 2 # p y $ > u d $ : 6 4 * y y 6 # p y ; : E y $ $ u f $ d y 6 & > u > * ..u : * y 5 ; 2 ",
"+ & % & ; + + + + * % * * % + + & % & ; & & + + * % & % & & + % & + 1 + @ @ o ; + * $ & + + * * + 1 & + & X ; & % ; & + & + & & ; * + & . * % & ; + + % o 1 o * ",
"2 a.( 3 2.P o.6 P a.c ( P c o.: a.E 4 o.B P 4 4 d.P -.o.4 o.2 2.:.5 y.r Q ( 4 y.r r P d ..1 -.o.6 ' P 3 P 2 a.4 P 3.4 P 4 o.o.4 f ..4 7.5 :.d P o.P ' B c d.h P ",
": 2.2 : d : u : ' E & y u * E : 3.6 * 6 2 y 6 u :.; : u $ 5.; 3.3 * d 2 2 y y 3.1 : J : ..: o.u : y 6 : d y 3.2 ; d : d : E E * > > ; ..2 2.: ; u : 6 6 d E ; 2 ",
"; 4 * $ : $ 6 : 4 4 $ & 6 $ 6 ; u : # ; ; : : 2 4 $ & : * f ; f : # : & : : : P & & : # y : c 2 $ * ; : y ; r - # ; ; y * u y $ ; : & 4 : P ; & 2 * : : 5 y & & ",
"% * * . + & & & + * % X + * & + & % o + + & & + * @ + & + & + @ * X + % & % $ & & X + & ; o & 1 + + & & $ + * % o & % * & + * + X # - & % + + + + $ ; + + ; & X ",
"! ! <.c ' 7.P P B :.:.P P a.r r ( u.c o.:.' ( c :.' Q ' o.Q ' 3 a.4 o.o.o.r P P y.( o.<.o.P c a.( ( :.:.( c :.<.( -.7.' ( 5 u.( P P <.r ( Q :.Q c y.:.4 c :.( r ",
"r 5 r r y.E u 4 4 P 5 3.o.:.: d y ' 6 ( o.P 4 2 P 3 E ..2.u 3 3 ..6 ' :.P 2 4 4 4 P o.( 5 4 5 P 2 P ' P 2 2 5 r 4 o.o.4 4 1 ' 4 ..P P 2 B B ' 5 o.' 4 P 4 P 6 ( ",
"& & # # ; : : O O ; O : ; : # & # & + : : $ # & * O $ : ; $ O $ $ O : : - # $ # & $ : : # $ + & X : 6 $ & $ # # # : > $ & # $ + : : ; # # & & # > > # $ + & # $ ",
"2 1 3 l 5 2 1 2 , 2 l z z 1 h , 3 < m m z 1 5 1 z z 5 l ; 2 2 2 2 5 ( 1 , c , 2 5 h h , 3 , 2 2 h h 5 1 2 2 2 3 h Q 5 1 h , 2 l h Q * 2 < < 3 h B 2 1 1 2 5 z 5 ",
"5 P ' :.$.4 5 -.c B :.( y.; o.4 P P y.o.r w +.5 c :.:.:.5 ..B c ( 7.o.+.; :.5 ' ( :.:.5 ' B ..r 7.( o.5 :.2 Q E ' 7.4 5 ( B P :.o.:.2 7.B Q P w.' P 4 +.h B P y.",
"$ 2 5 4 o.2 & P ; 5 2 r +.+ 5 2 ; 2 P d 5 ; 1 ; 1 r P 4 ; ; : ; 2 r y r $ 4 * 5 5 P B 2 2 ; : ; P 4 +.& c * 4 2 P r ; ; y ; 1 4 d 4 $ 6 ; 2 ; d 4 2 - r 1 2 2 o.",
"+ $ & % ; $ + + & & o ; ; + & + & & & ; - o + & & & & ; & + + $ + & ; & + & & % + * ; $ + + $ & & ; - + + % & + ; ; & + $ + & & * * O + + * & & ; & o + $ % % & ",
"+.( Q Q *.*.m 2 ( ' h -.Q -.2 h ' B h 7.-.h h Q :.c Q -.Q h j E -.h u.m ( 2 *.-.m Q ' Q m Z ' 6.5 -.Q Q 2 -.Q Q j u.*.2 1 &.:.h 5.Q Q 2 S Q S m o.S m 2 *.Q Q Q ",
"Q -.' Q Q *.' j Q Q 6.B Q -.2 -.-.*.Q 6.Q -.c ( -.Q *.' -.m Q S 7.m 6.Q Q 3 Q Q ' S Q 6.Z Q Q Q Q *.Q 6.h Q Q *.m 6.*.Q Q &.-.Q -.m 6.j 6.m Q Q ' Q 6.2 6.B Q *.",
"6 3 6 2 m B 3 2 3 6 2 4 B j = u j j 6 u B 4 : 5 3 3 j 4 j : 3 6 3 < P E B = 3 2 6 j B E 2 2 3 3 j u B B * 6 2 6 B B 4 3 2 6 3 2 B 2 S * S 2 6 6 B u j = c 3 5 c ",
"2 y ; - f y $ * y d # d y y $ : y : - d u : $ y 4 ; > d p $ : y > : 4 y 2 # u u $ > u d $ * y d $ 4 y 6 # y y ; : P y $ $ d d $ d y 6 $ : f 6 * E y ; * y 2 ; 2 ",
"o 1 + % 1 + & + o 1 o ; & o & X ; + % ; & o + + 1 + * * O + + & & + ; % & + o ; + * * + & o + * % ; * o + o 1 + + 1 % & X & ; o ; & o % + & % & 1 & % X + ; + * ",
"1 d.P ' ..d d P ( a.c ( $.5 o.5 <.o.P ' r +.( 3 u.j B s.3 ' 3 :.o.4 -.B P P r p.c ( :.z >.r ' o.r :.$.r E 6 w.B r <.3 7.4 ( o.r E E 4 o.4 p.' B E 4 o.d P 6.c :.",
"2 o.3 $ y ; u : B ' * : r ; P ; :.3 & u 2 4 2 3 6.* = S = Q 1 ' 3 : 2 2 3 3 4 :.: = B * ( 2 u B * 2 4 6 u 2 S 2 1 u * B = ' B * : u : P 2 ' 6 * u : 4 6 u 5.= * ",
"> u : O 6 & p ; 3 3 $ $ : ; r ; P : # : * 6 ; y u $ * : * S - J * * = 2 : : 6 u * & : - 5 ; y 6 $ * ; ; 6 : y ; & : : 6 = B 3 $ * 2 ; r ; P * & 6 * 2 : j B & # ",
"+ ; X # O # & ; $ & O O + $ $ $ $ $ O O # $ $ $ * X # o & - # ; # X O # $ $ $ - + X O & $ $ $ $ O O + # $ & * # + O + $ & & $ O O + + & $ ; & + X O & $ & $ O + ",
"$ ; + & + * $ & * ; + $ + , & & & & $ + & * & ; * # - + & % & ; ; + + # & & & ; + # & - & - $ ; # # $ & * - * & & # & $ * * ; + & # $ - & - & + + & * & - ; & & ",
"E j 4 ; m 2 m < m 3 5 1 j l 2 3 B 2 ; 5 m 2 2 B 5 2 1 5 c z h 4 5 1 < j 2 2 c c < < 2 m 5 5 j j 1 2 2 m z 3 3 2 * 2 S 2 < B P 1 < j Q 2 c z h , 3 h j z c B 2 * ",
"S 6.6.Q Q 6.6.6.6.Q 6.m 6.6.-.-.6.u.m -.Q k.Q 6.-.( z :.u.-.-.6.*.Q 6.6.6.*.6.-.6.Z 6.6.=.Q 6.6.B Q 6.h.&.-.*.6.Q m 6.k.Q 6.*.-.M Q k.Z =.&.h.m *.6.=.-.6.6.Q M ",
"j E P 2 2 ; r r y d d ; r : 2 d 3 6.: 4 2 y 2 d 4 E : y > : f y P 2 y 2 5 5 r y ..$ d > : 6 p y > : 6 u > y u E : 6 > y 6 u y f : y 6 y u > f : y : y 6 y u u : ",
"5.y y ; y y > ; $.r : ; d ..1 5 f 6 $ y y y : p P 5 & P o.* 3 ( u ; ; y ..- ....y & 4 d 3 4 E P ; 2 4 u ; P P B $ 6 P 1 ; o.u 2 & B B : 3 E P & u 4 2 2 P B 6 & ",
"; & # X $ & $ # 1 $ & o & ; o * * # + & & & O : & + X & 1 o & 1 & + O # ; o ; - + o & ; + % ; % + + & & X * * + + + * + % ; % + + + & + & * & + + ; & + ; & + + ",
"4 ( z c 1 ( z c 4 2 r 2 2 P 1 +.B 3 Q 1 ( n 1 ( 2 3 4 ; P 2 ( B 1 ! 1 ! n z ( 1 4 4 2 ( 2 3 ' 2 P 1 3 P 2 ( 4 2 B , o.c P 4 1 P m 2 B 2 ( 4 2 ( % o.4 ; ( 2 3 4 ",
"m 5.< 5.1 p.4 2 d : d y r p.1 r +.1 <.1 y.o.5 c d y d 4 y.; 2 P 5 ( ; d.+.1 r I 4 ( j 2.j 6 ' 3 ..: u 2.2 S p j S 2 u.j 6 B c ( 6 y 4.: u u 6 E 4 w.y ; E y 4 u ",
"$ : $ 5.; 5.: # 2 ; y 5 y ..; & > - T ; T : $ ; 2 2 y y o.; $ 2 $ p : O.: - - : * 6 2 Q : # < = 6 6 p j # * : = 6 2 ' = $ = = 6 < j 5.# * 2 = j 6 E : $ : ; y 3 ",
"  O # & O $ #   o + ; + + $ o o + O 1 + $ &   # + % & + & & . + # - & + O X X + # @ % * + . + + & # * & . o + # * + & & . o + & & + * . O o + * + % & O X + & $ ",
"*.Q -.z z l -.h ! r ;.1 z r ;.z :.<.n z 1 <.z z ~ &.5 2 P P 2 B <.n 1 z <.! r ( =.h 2 Z Q j Z *.*.2 2 Q Z Z m u.j < j Q z Z *.*.< 2 Q h m Z &.h 3 5 &.c Q ' ' 2 ",
"E 5.5.3 B E o.u 4.S E 3 S S u 5.' ' j p j 2.3 5.S ' 6 S ' u S 5.2.j 5.3 6.2 2.E 2.3 E u u u 5.E m m S p 6 5.S ' u p j 5.2 s.E 2.u S u j 5.E E j f u 2.6 7.S E j ",
"3 2 3 + 1 # * & u 3 1 * & * # * 2 5 $ 2 + : @ 5 2 < & $ * * 2 2 3 @ * & = # 2 j 2 * * , * * 3 3 * * * = & 2 2 5 & * , = # m 2 * + 2 2 + * 3 3 % * & * # 3 2 < & ",
"2 3 & 2 + 2 * 2 2 2 & * % ; 2 2 4 * 2 # * & 2 5 5 * * & ; * , 2 2 & * & , & 2 < & * @ * , * 2 , * * & < * 2 2 * * & 1 * * 3 2 & 1 & * : 2 2 & 2 * ; * * 3 2 * * ",
"6.Q 2 Q u S 6.u.:.2.3 :.4 ( o.-.:.h B ' Q ' 7.7.Q 5 7.S o.-.7.5.r ' 2.B Q 7.7.E m u.3 6.' 7.5.m Q ' c 7.o.7.-.2 a.h P ' u.o.P c 7.B ( 2.' 7.5 ' c -.( u.7.( 3 6.",
"S 6 < 6 = 2 2 N p j * S : 2 u P m = 3 2 6 j p B 4 * m = 6 6 2.E * 6 2 : 6 E Q j $ B = j j S E 2 : 4 2 j u 2.B * P = 6 2 E B 6 * N = 2 j B ' * u ; 6 < S E 6 = 5.",
"= = + * + * # & = # O * # $ $ * = + & O * + = * * # # + # + * < $ O # $ # * * = O # + # # * : # + $ + # # = = O $ # $ # * = * # * + # * = = # # + $ + = = * o * ",
"Q 3 m * j 2 m 2 Q S < 2 2 2 2 2 Z j = 2 < j 2 3 3 2 < 2 m 2 2 2 l 2 2 5 m < 2 m 2 2 j j j 2 B 3 < 2 2 m 2 Z m m * < m < 2 m j : * Z Q < 2 Q m & 3 h 2 2 j 3 < * ",
"6.6.6.l 6.6.u.*.6.6.-.M -.k.6.6.6.*.-.Q k.u.*.7.6.6.Z 6.h.6.*.6.=.l *.*.6.-.6.-.6.h 6.u.=.-.6.:.Q Z 6.h.Q 6.Q h.Z *.h.h.-.6.-.-.Z 6.6.*.h.*.-.Q *.6.h.*.6.6.6.M ",
"4 P +.: 2 2 4 u j f 4 : y 6 : d 4 $.; 4 ; 4 y P y E 2 6 > : d y Q 5 4 2 4 y P 2 5.$ f 6 : > f y y : > u > y y E : 6 : y y d > d : 6 > 6 y > f : > : y 6 y y u ; ",
"..p y ; y y y * 2.u 2 * B P 2 2 T r - r p p ; d P 2 & P ..; 4 P u * ; y d ; T T 3 & 4 u 2 4 ....; 2 u 4 ; P P Q % 3 P 1 : :.d 2 & B B 2 3 P P & B 3 6 : P P 3 & ",
"; $ + o # $ & # : % $ + & , + * ; + + $ $ & O ; & + o + ; o & 1 # + + & & + ; $ + + & * # & * % + + & & o * * + # + 1 + % ; & + + @ * + & * & + + * % & ; & + + ",
"z +.z z 1 ( n c 4 2 c 5 1 ( ; ( I 1 I 1 c c 5 -.2 4 3 ; P 2 ( P 1 ~ 1 ~ ( 1 &.5 4 j 2 Q 2 5 ( 1 c 1 5 ( 2 P h = P ; ( 4 P 4 1 r 3 2 B 2 E 3 2 ( % :.4 1 E 2 3 4 ",
"r E 2 o.2 a.3 2 d : u y r w.2 4 I 1 <.; <.+.z r d d d d y.; 4 P 5 ..; p.+.2 5 P m ' 3 5.3 3 ' j o.2 u 5.2 u S 6 S 2 u.h 2 B 4 P 2 6 4.: u u 6 E y w.y ; E 6 u u ",
"$ > $ f = 2.: # : * 6 6 4 ..; & 5 ; J : O.; - ; : : y y $.; $ 5 - p ; O.; - - > = < 2 5.= # < = 3 6 p j & = = 2 6 2 5.= $ : : 6 2 m S $ * 2 = j 6 E : $ : ; 6 6 ",
"  O # $ . $ # . + # & & & % + X o & - o $ O . o + & + + & + X o O - + @ O X X O & & & & @ . + + & # $ * . o o # * + & & . o + & # + & . O o + * + & & X o + $ & ",
"Q -.u.m z z -.z ( r ( 2 3 c ( 5 -.<.n z z j.z z [ ;.c 1 ! +.1 ! <.r z z <.! z ( 6.z < z Q z Q *.*.< 2 Q Z Z Z u.j < h *.< Z *.*.< 2 *.j M Q Q h 5 4 -.c B ' ( 2 ",
"Q 5.2.u p E ' u o.S S j f E u 2.5.' N S B Q 6 5.B 5.u E 2.j p 4.2.u ..6 2.: 5.S 5.y E u u u o.E B j B S 6 5.S 5.E P u 5.2 s.E o.B E u j 2.E ' j E 3 S j 4.p ' j ",
"3 2 3 + 2 + * & h 5 ; & & * % & 2 2 & : + 2 # 3 3 , & % * & * 6 4 & * & < & 2 2 < & * * * 2 3 3 : * * * & 3 2 2 % * * * $ j 1 ; + * 1 + * u 4 & * & * & 3 6 1 * ",
"2 3 & 2 + 2 * 2 2 2 * = & * 2 2 3 * : & * * 2 3 2 * , & ; * 2 2 1 & * % = & 2 2 * * & * * * 2 : & * & 2 * 1 2 * * * < = = 3 2 * 2 & * 2 2 2 & 2 * 2 * * 2 2 * * ",
"-.Q 2 Q m 5.' u.7.7.h 2.3 E 7.7.7.h B ' B ' ' 7.( 2 :.B 7.-.7.' P o.o.B Q 7.u.' m 7.B 6.' 6.' j B ' B 7.o.7.-.2 7.4 Q Q 6.6.B c 7.B ( :.o.7.2 E 4 -.' 7.7.' 5 -.",
"S m = 2 : 2 2 N S 6 * S = 6 u B u : 2 : 6 6 S p u * u = 6 3 E E = 6 6 2 2 2.2.j * j < 6 j p S 2 : 4 2 u u ' f $ ( : 6 2 ' u > ; u = > j u E * u = 2 2 S p 6 * 2.",
"= = + * + * # $ * & O $ + # * * = + * o * # = * * # & + + # * : + O + # # $ $ * O $ + # # = 2 # + # # # $ * = + # # $ + * = * O * + # $ * : + $ # * + = = * + * ",
"m 3 m * j < S < *.m 2 < 2 2 2 2 Z h , 2 < S < m j 2 < 2 m < 2 j m 2 2 j j < 3 h 2 2 2 h 2 j m h 2 2 j m < Q m m * < Q < 2 S j 2 * S Q < < S j * j 2 2 2 m j , * ",
"6.6.u.B 6.6.k.Q -.6.6.z 6.k.6.7.6.*.*.Z 6.6.6.6.6.6.m 6.h.6.6.6.-.Z *.6.6.6.<.-.6.j 6.6.6.-.=.=.Z Z 6.h.Q *.*.u.Z *.h.6.*.6.-.-.Z 6.6.6.h.*.6.Q *.6.h.*.6.6.=.B ",
"B B P 2 5 1 c r y d p ; y : : p 6 o.: 4 : y : E u E 6 6 : y y y ..5 5 y 2 5 r r 5.* u > : y f y 6 : : y : u y E : y : y > 6 6 u = j > > u y ..: 6 ; 4 3 r P r ; ",
"E f y $ y r r $ $.r : ; P P 2 2 ' B $ 6 4 4 2 ' ' : * Q P : 2 ' y ; ; p p ; y ..y & u B 6 3 E B * 2 3 u 1 B E B # 5 P 2 2 :.B ; * B 4 2 B ' P $ y 6 6 : d y : $ ",
"; & # O + ; & + 1 & + + & ; + & * + X & & * + 1 & + + + ; + & 1 + + + & $ + ; $ + + % 2 + & * & + + * * + * & + + + ; + + 2 & + + @ & + * * @ + + * $ # ; & & X ",
"c c z n 1 ! z ! r 2 r 2 2 ( ; o.4 2 P 2 P P , ' 3 3 3 * +.1 ( Q 5 ! 1 r c 1 ( z 5 5 * ( 5 5 S 2 c 2 3 ' 2 B B 2 +.* ( 2 3 B 2 ' h 5 B 2 B h 2 E & <.n 1 ;.5 z ! ",
"4 o.5 ..1 j.r 1 P 2 4 u B w.: y o.6 2.* 5.S 2 Q p 6 f j d.: 4 ( 5 r 1 p.E 2 4 ( 5 ' 3 5.2 3 6.2 ' 2 u 2.: u p 2 P ; a.2 : 2.2 S 2 P 6.: 6 p j E 5 a.r ; o.5 r r ",
"$ : ; J - 2.: # : ; y 4 u E & & 3 * 2.= 6.2 $ = 2 : 2 j 2.& $ 2 - r : O.> $ $ > * u j S = & 2 * 6 2 S m # = : < u : 5.< * = = 2 2 6 5.& * = = Q : d : @ : - : 5 ",
"O X # - O & & X + + & + + & + . + % * # * # . + + * + # * + O o o - # + # X + X & & # * % . + o # @ & * . o + & * + & & . O + * # + * + + o # * O @ $ X O + $ $ ",
"! ( <.z 5 n <.z P r o.5 3 Q ' c *.6.j < 2 6.< j *.6.< j M S 2 S <.z z z <.c l -.6.2 < h *.< *.*.Q 2 < *.Z Z j 6.2 2 2 6.M j *.Z , 2 6.h m Q *.j z z ;.z r :.&.1 "
};
