/* XPM */
static char *_87bf3f44c0f436b9dd302b21f322234Z7lCwF44sPVY76LE[] = {
/* columns rows colors chars-per-pixel */
"64 64 208 2 ",
"   c #151352",
".  c #140F6B",
"X  c #131165",
"o  c #11116C",
"O  c #181D6F",
"+  c #06017A",
"@  c #140D72",
"#  c #1B1778",
"$  c #231D78",
"%  c #1E2073",
"&  c #2E2B62",
"*  c #282878",
"=  c #2F3279",
"-  c #3B3A7E",
";  c #0E0B83",
":  c #120D84",
">  c #110E8A",
",  c #121081",
"<  c #1A1686",
"1  c #1C1A82",
"2  c #1A168C",
"3  c #1A1A8C",
"4  c #140897",
"5  c #161392",
"6  c #1A1592",
"7  c #1E139D",
"8  c #201981",
"9  c #211F8D",
"0  c #272287",
"q  c #36358A",
"w  c #282898",
"e  c #39389B",
"r  c #281BB2",
"t  c #2021AF",
"y  c #2B25AF",
"u  c #2828A5",
"i  c #3129A1",
"p  c #3026AB",
"a  c #3533AC",
"s  c #2E24B4",
"d  c #3020BF",
"f  c #443F9A",
"g  c #4039A1",
"h  c #443BB0",
"j  c #4B498E",
"k  c #48448E",
"l  c #57588E",
"z  c #555682",
"x  c #504D94",
"c  c #72739C",
"v  c #777B9E",
"b  c #4542AA",
"n  c #4B48AD",
"m  c #524BAC",
"M  c #5045AB",
"N  c #4E54A0",
"B  c #5858AE",
"V  c #5857A9",
"C  c #5245BA",
"Z  c #5047B2",
"A  c #5C5DB3",
"S  c #5E53BB",
"D  c #675FAD",
"F  c #605AA4",
"G  c #5C61B5",
"H  c #6968A7",
"J  c #6A75A3",
"K  c #7176AE",
"L  c #6463B3",
"P  c #6F6EB0",
"I  c #6765BA",
"U  c #726FBC",
"Y  c #737BB4",
"T  c #7573BA",
"R  c #5449CC",
"E  c #5648C6",
"W  c #5C54C4",
"Q  c #5957C7",
"!  c #594CD3",
"~  c #564CD3",
"^  c #5B52D6",
"/  c #5759D2",
"(  c #605DC8",
")  c #746EC3",
"_  c #7375CA",
"`  c #7C7ECB",
"'  c #6B68D6",
"]  c #746FD3",
"[  c #7675DD",
"{  c #635DE5",
"}  c #6D63E0",
"|  c #736BE3",
" . c #7667E8",
".. c #6E63F0",
"X. c #7C77F6",
"o. c #7B79E7",
"O. c #847FD3",
"+. c #817EE7",
"@. c #857BFF",
"#. c #7981CA",
"$. c #7D83F5",
"%. c #A39DBF",
"&. c #8D8DCD",
"*. c #9D9FCD",
"=. c #9091C9",
"-. c #8282D2",
";. c #8A8DDC",
":. c #8E93D5",
">. c #9495D5",
",. c #A09FD8",
"<. c #A3A4CE",
"1. c #A5A9CC",
"2. c #AAA9DA",
"3. c #BAB5D3",
"4. c #8982E9",
"5. c #938FE6",
"6. c #9A97ED",
"7. c #9B96E6",
"8. c #888AF6",
"9. c #938CFA",
"0. c #8F90FA",
"q. c #9B95FD",
"w. c #979CFF",
"e. c #9F9AFF",
"r. c #9E9BF6",
"t. c #A096FF",
"y. c #A49CFF",
"u. c #9FA0F3",
"i. c #A8A7EB",
"p. c #B1ACE2",
"a. c #B2B2E3",
"s. c #B9BCE6",
"d. c #A8A0F6",
"f. c #A4A3FF",
"g. c #AAA4FF",
"h. c #ACAAFF",
"j. c #A8ACF6",
"k. c #B1ACFF",
"l. c #B4B3FF",
"z. c #BAB6FF",
"x. c #BABBFF",
"c. c #C6BFFF",
"v. c #BFC4FF",
"b. c #BEC0F1",
"n. c #D9D7E8",
"m. c #C9C7FF",
"M. c #CDCCFE",
"N. c #C6C6F9",
"B. c #D0CCFF",
"V. c #CAD3FF",
"C. c #D5D3FF",
"Z. c #D5DAFF",
"A. c #DCDCFF",
"S. c #D9D8F6",
"D. c #E2DEFF",
"F. c #DDE3FF",
"G. c #E1E5EE",
"H. c #EFF8E5",
"J. c #F6F9EC",
"K. c #FDFEED",
"L. c #F4FCE5",
"P. c #E3E3FF",
"I. c #EAE4FF",
"U. c #E2E8FF",
"Y. c #ECECFF",
"T. c #EBE9F7",
"R. c #F4EEFF",
"E. c #F8EDFF",
"W. c #E7F2FF",
"Q. c #EDF4FF",
"!. c #EEF9FF",
"~. c #F3F4F4",
"^. c #F5FCF2",
"/. c #FEFFF5",
"(. c #F4F3FF",
"). c #F9F5FF",
"_. c #F5FBFF",
"`. c #FBF9FF",
"'. c #F9FAFF",
"]. c #FBFBFF",
"[. c #FBFAFF",
"{. c #F9F9FE",
"}. c #FCFAFF",
"|. c #FFFBFF",
" X c #FDFAFE",
".X c #F9FCFF",
"XX c #FBFDFF",
"oX c #F9FFFF",
"OX c #FBFFFF",
"+X c #FAFEFD",
"@X c #FCFFFD",
"#X c #FEFFFD",
"$X c #FFFFFD",
"%X c #FFFEFD",
"&X c #FCFCFF",
"*X c #FFFCFF",
"=X c #FFFDFF",
"-X c #FEFDFF",
";X c #FCFFFF",
":X c #FCFEFF",
">X c #FEFEFF",
",X c #FFFEFF",
"<X c #FEFFFF",
"1X c white",
"2X c #FEFEFE",
"3X c #FDFCFC",
"4X c #FEFFFE",
"5X c #F8F7F2",
/* pixels */
"1X1X1X1X1X1X1X1X1X1X1X1X1X1X1X1X1X1X1X1X1X1X1X1X1X1X1X1X1X1X1X1X1X1X1X1X1X1X1X1X1X1X1X1X1X1X1X1X1X1X1X1X1X1X1X1X1X1X1X1X1X1X1X1X",
"1X1X1X1X1X1X1X1X1X1X1X1X1X1X1X1X1X1X1X1X1X1X1X1X1X1X1X1X1X1X1X1X1X1X1X1X1X1X1X1X1X1X1X1X1X1X1X1X1X1X1X1X1X1X1X1X1X1X1X1X1X1X1X1X",
"1X1X1X1X1X1X1X1X1X1X1X1X1X1X1X1X1X1X1X1X1X1X1X1X1X1X1X1X1X1X1X1X1X1X1X1X1X1X1X1X1X1X1X1X1X1X1X1X1X1X1X1X1X1X1X1X1X1X1X1X1X1X1X1X",
"1X1X1X1X1X1X1X1X1X1X1X1X1X1X1X1X1X1X1X1X1X1X1X1X1X1X1X1X1X1X1X1X1X1X1X1X1X1X1X1X1X1X1X1X1X1X1X1X1X1X1X1X1X1X1X1X1X1X1X1X1X1X1X1X",
"1X1X1X1X1X1X1X1X1X1X1X1X1X1X1X1X1X1X1X1X1X1X1X1X1X1X1X1X1X1X1X1X1X1X1X1X1X1X1X1X1X1X1X1X1X1X1X1X1X1X1X1X1X1X1X1X1X1X1X1X1X1X1X1X",
"1X1X1X1X1X1X1X1X1X1X1X1X1X1X1X1X1X1X1X1X1X1X1X1X1X1X1X1X1X1X1X1X1X1X1X1X1X1X1X1X1X1X1X1X1X1X1X1X1X1X1X1X1X1X1X1X1X1X1X1X1X1X1X1X",
"1X1X1X1X1X1X1X1X1X1X1X1X1X1X1X1X1X1X1X1X1X1X1X1X1X1X1X1X1X1X1X1X1X1X1X1X1X1X1X1X1X1X1X1X1X1X1X1X1X1X1X1X1X1X1X1X1X1X1X1X1X1X1X1X",
"1X1X1X1X1X1X1X1X1X1X1X1X1X1X1X1X1X1X1X1X1X1X1X1X1X1X1X1X1X1X1X1X1X1X1X1X1X1X1X1X1X1X1X1X1X1X1X1X1X1X1X1X1X1X1X1X1X1X1X1X1X1X1X1X",
"1X1X1X1X1X1X1X1X1X1X1X1X1X1X1X1X1X1X1X1X1X1X1X1X1X1X1X1X1X1X1X1X1X1X1X1X1X1X1X1X1X1X1X1X1X1X1X1X1X1X1X1X1X1X1X1X1X1X1X1X1X1X1X1X",
"1X1X1X1X1X1X1X1X1X1X1X1X1X1X1X1X1X1X1X1X1X1X1X1X1X1X1X1X1X1X1X1X1X1X1X1X1X1X1X1X1X1X1X1X1X1X1X1X1X1X1X1X1X1X1X1X1X1X1X1X1X1X1X1X",
"1X1X1X1X1X1X1X1X1X1X1X1X1X1X1X1X1X1X1X1X1X1X1X1X1X1X1X1X1X1X1X1X1X1X1X1X1X1X1X1X1X1X1X1X1X1X1X1X1X1X1X1X1X1X1X1X1X1X1X1X1X1X1X1X",
"1X1X1X1X1X1X1X1X1X1X1X1X1X1X1X1X1X1X1X1X1X1X1X1X1X1X1X1X1X1X1X1X1X1X1X1X1X1X1X1X1X1X1X1X1X1X1X1X1X1X1X1X1X1X1X1X1X1X1X1X1X1X1X1X",
"1X1X1X1X1X1X1X1X1X1X1X1X1X1X1X1X1X1X1X1X1X1X1X1X1X1X1X1X1X1X1X1X1X1X1X1X1X1X1X1X1X1X1X1X1X1X1X1X1X1X1X1X1X1X1X1X1X1X1X1X1X1X1X1X",
"1X1X1X1X1X1X1X1X1X1X1X1X1X1X1X1X1X1X1X1X1X1X1X1X1X1X1X1X1X1X1X1X1X1X1X1X1X1X1X1X1X1X1X1X1X1X1X1X1X1X1X1X1X1X1X1X1X1X1X1X1X1X1X1X",
"1X1X1X1X1X1X1X1X1X1X1X1X1X1X1X1X1X1X1X1X1X1X1X1X1X1X1X1X1X1X1X1X1X1X1X1X1X$X1X1X1X1X1X1X1X1X1X1X1X1X1X1X1X1X1X1X1X1X1X1X1X1X1X1X",
"1X1X1X$X1X/.$X$X1X1X1X1X1X1X1X1X1X1X1X1X$X$X/.$X1X1X1X$X1X1X1X1X1X1X$X$X$X$X$X1X1X1X1X1X$X1X}.1X1X$X1X1X1X1X1X1X1X1X1X1X1X1X1X1X",
"1X1XOX$X/././././.$X1X1X1X1X1X1X$X1X1X1X/./.K.^.1X}.1X/.1XOX1X1X1X1X1X/././.$X1X}.1X$X$X$X1X1X}.$X/.1X1X1X1X1X1X1X$X$X$X1X1X1X1X",
"1X1X$X$X$X/./.$X$X$X1XOX1X1X1X1X$X1X1X}.$XK.K.$XOXOX1X$X1X1X1X1X1X1X$X/././.$X1X1X1X1X$X/.1X}.1X$X$X1X1X1X1X}.1X1X$X$X$X1X1X1X1X",
"/./.$X1X1X1X1X1X1X1X1X$X$X/.$X/.$X1X1X1X1X/./.$X1X1X1X$X1X1X1X1X1X1X1X$X$X$X1X}.1X1X$X$X$X$X1X1X1X1X1X1X}.1X1X1X1X1X1X1X1X1X1X1X",
"/././.OXOX1X}.1X1X}.1X$X$X$X$X$X$X$X1X1X1X$X$X$XOX1X1X$X1X1X1X1X1X1X1X1X1X1X1X1X1X1X1X/.$X$X1X1X1X1X1X1X1X1X1X}.1X1X1X1X1X1X1X}.",
"$X1X1X1X1X1X1X1X1X$X$X$X1X1X1X1X$X$X1X1X1X1X}.1X$X$X$X$X$X1X1X1X1X1X1X1X}.1X1X1X1X$X$X/.$X$X$X1X1X1X1X1X}.1X1X1X1X1X1X1X1X1X1X1X",
"1X1X1X1X1X1X$X$X$X$X$X$X1X1X1X1X$X$X$X1X1X1X}.1X$X$X$X$X/.$X1X1X1X1X1X}.1X1X}.1X$X/.$X$X1X1X/.OX1X}.1X1X1X1X1X1X1X1X1X1X1X1X1X1X",
"}.}.}.1X$X/./././.$X$X1X1X1X1X1X/.$X$X1X1X}.1X1X/./.$X$X/.$X1X1X1X/.1X1X}.}.}.1X/././.$X1XOXOXOX1X1X1X1X1X$X1X$X1X1X1X1X1X1X$X$X",
"}.1X1X$X$X/.$X/./.$X$X1X1X1X1X1X$X/.$X1X}.1X}.1X$X/./.$X/./.1X1X1X$X$X$X1X}.1X1X/././.$XOX1XOXOX1X1X1X$X$X$X$X$X1X1X1X1X1X1X$X/.",
"/./.$X$X1X1X1X1X}.~.1X1X$X$XJ.$X$X5X1X}.}.1X$X$X/.$X/.5X$X5X1XOX1X1X/./.1XOX1X1X/././.1X1XOXOX/.1X1X$X$X$X/./.$X5X1X1X{.$X5X$X/.",
"K.K./.$X}.1X}.1X1X1X$X$X^.~.1X^.$XOX1X1X1X$X/./.3X5X/.$X1X1X1X).).{.^./.J.$X}.$X/././.1X1XOXOXOX1X1X/./././././.1X'.}.1X{.$X$X/.",
"K.K./.1X1X}.}.1X~.$X/.^._.$XQ.OXOX1XOX1X$X5X/.3X X/./.5X1X'.OX1X{.{.OXK.K./.3X3X/././.1X1XOXOX/.1X1X$X/./././.$X1X}.}.1X{.$X/.$X",
"K./.$X1X1X}.1XOXOX1XOX'.1XOX'.{.'._.{.OX$X$X/./.}.1X$X1X).(.OXQ.{.{._.H.K.J.3X1X$X/.$X1X1X1X1X1X1X1X$X/./.K./.$X1X1X}.}.1X3X{.$X",
"$X$X1X1X1X1X1X1X{.{.OXOXY._.OX{.'.Y.OX/.OX$X$X5X}.1XK.n.H D (.Q.` * OX^.L./.{.}.1X1X$X1X}.1X$X$X1X1X$X/././.$X1X1X X}.}.}.}.{.~.",
"}.1X1X$X/./.$XOXOX'.).<.z c c c i.=.1X^.^.^.1X1X}.1XL.F.S Z (.F.+.1 _.^.K.L.1X}.}.}.$X1X1X1X/.$X1X1X1X$X$X/.$X$X}.}.1X).n.}.}.(.",
"}.}.1X/.K.K./.1X'.R.F x R.Q._.(.U - _./.$X1X'.}.).}./.Y. .! (.OXe.5 !._.K./.1X X X}.}.1X1X1X/.$X1X}.1X$X$X/.1X1X}.}.}.%.3.}.}.}.",
"}.}.1X/.K.K./.OX).O.$ D.(._.OXOX(.H _.^.).OX'.}. X(.1X). .~ (.'.g.5 _._._.1X}.). X X1X1X1X}.1X1X}.'.1XOX1X'.OX}.}.}.C.& p.}.).}.",
"1X$X1X/./.$XOXOXY.0 V {.'.$X/.$X'.S.1X_.A.T T j 5.Y._.{. .R ).OXg.: !._._.N.P ) M y.3XOX'.s.c H f B._.Q.:._ A N F.W._ # m I (.*.",
"1X$X$X$X1X1XOX'.z.+ 6.{.(.{./.5X'._.{.(.q M._.U.< q._.{. .C '._.g.9 _._.Z.= ).Y.k.1 B.).B.k ).).M k _.s.O (.Y.e #.!.(.: h.{.Y.a.",
"1X$X/./.1X1XOX'.y.4 6.{.'.1X1X1X1XOX1X<.q R._._.| < {._.| C OX(.g.; _.W.Q [ !._.).f M R.! 9.3XOXM.p.'.M.&.).).b #.Y.(.8 2.OXOXU.",
"1X$X$X$X}.1XOX{.t.4 r.(.{.1X'.~.OXOXOXl b )._.!.f.; A.'.| ( {.{.g.2 _._.u X._._.OXL 0 E.d g.(.$XR.}.'.'.R.7.+.e I R.E.# 2.OX1XT.",
"/.1X1X}.1X1X/.{.A.: B {.OXOX{.1XOXOX(.P i P._._.l.: A.{.} E Y.{.g.; _.W.y } _._._.K q P.r @.'.'.3X(._.P.j c.R.W ] ).I.$ p.1X'.~.",
"/.1X}.1X1X$XOXOX).V % F.(.'.OX'.OX1._.:.3 A.!._.f.w {.!.X.R ).{.h.3 _.W./ y _.!.Q.Y H ).! p R.).T.*.OXv L (.(./ ' R.).O i.'.OXG.",
"/././.$X$X$X$X_._.U.q e C.E.).}.,.s.OXY.0 ' _.!.V j._.W...~ ).'.y.> _.Q.m.2 l.Q.(.= Z.{.z.> R q.4.#._.J 3 m.f.w / l.Q.1 0.x.F.W.",
"/.$X/.$X$X$X^.OXOX(.Q.o.i h m ) M.)._.{.M.b A I u.Y.(.M.y 7 z.C.R ; ;.Q.(.h.a ' Q v._.Q.).9.r s X.(._.V.a t w.$.w v.W.8.5 0.Q.Y ",
"1X1X}.}.}.1X/.1X).).(.Q.(.E.E.E.).).).R.).E.).R.(.E.(.).E.E.R.).Q.R.(.R.R.(.E.E.).).).E.(.E.E.R.(.Q.(.(.R.Q.Q.(.Q.Y.Q.(.(.Q.(.(.",
"}.1X}.3X}.1X/.OX  X X X X . @ @ . X . . X X X . @ @ . X . . @ . X X . @ X X X X X X . . @ @ . X o X X X o o X X o o o X X X X X ",
"1X1X$X$X}.$X$XOXOX_._._.{._.'.1X'.{.OX_.OX_.'.'.{._.'.OX'.{.'.'.{.{.'.OX_.OX{.'._.{.'.{.{.{.'.OX'.'.}.}.'.'.}.'.'.'.}.}.'.'._.OX",
"$X$X/././.$X1X1XOXOXOX_.OXOX/.^.1XOXOX/././.OX1X1XOX$X^.1XOXOXOXOX1X1X^.$XOXOXOX1XOXOXOXOXOX$X/./.1X}.}.1X1X}.1X1X}.}.1X$X/.1X1X",
"/././.$X$X$X}.1X/.OXOXOXOXOX$X/.1XOX1X1XOX1X1X1X}.1X1X$X1XOX1X1X1X1XK.K.$X1X1X1X1X/.$XOX1XOX/./.$X1X1X}.}.1X}.}.}.}.1X1X$X$X$X$X",
"/./.$X$X/.$X1X}.1XOXOXOXOX1X$X$X1X1X1X}.1X1X1X1X1X1X1X1X$X/.1X1X1X1X/.K./.$X1X1X$X^.$X1X1X1X/././.1X}.1X1X1X}.1X1X/.$X$X$X$X3X$X",
"OXOX1X/././.}.1X1X1X^././.$X1X}.$X$X1X1X1X1X1X1X$X$X1X}.$X$X$X1X1X}.1X/././.$X/././.1X1X}.}././.$X1X1X1X$X$X1X1X/./.$X$X/.OX1X1X",
"OXOX$X$X$X$X1X}.1X1X/.K././.1X1X$X$X1X1X}.1X1X1X/./.1X1X1X/./.$X}.1X1X$X/./.$X/././.1X1X1X1X$X/./.OXOX1X$X^.OX$X/././.OXOX/.1XOX",
"1X1X1X1X1X$X1X1X1X1X$X/.$X1X1X1X1X$X1X1X1X1X1X1X$X$X1X1X1X$X$X1X1X1X1X$X$X$X$X1X/.$X1X1X1X1X$X$X1X1XOX1X1X$X1XOX$X$X$X$X$XOX1X1X",
"1X1X1X1X1X1X1X1X1X1X1X1X1X1X1X1X1X1X1X1X1X1X1X1X$X1X1X1X1X1X1X1X1X1X1X1X$X1X1X1X1X1X1X1X1X1X1X1X1X1X1X1X1X1X1X1X1X$X1X1X1X1X1X1X",
"1X1X1X1X1X1X1X1X1X1X1X1X1X1X1X1X1X1X1X1X1X1X1X1X1X1X1X1X1X1X1X1X1X1X1X1X1X1X1X1X1X1X1X1X1X1X1X1X1X1X1X1X1X1X1X1X1X1X1X1X1X1X1X1X",
"1X1X1X1X1X1X1X1X1X1X1X1X1X1X1X1X1X1X1X1X1X1X1X1X1X1X1X1X1X1X1X1X1X1X1X1X1X1X1X1X1X1X1X1X1X1X1X1X1X1X1X1X1X1X1X1X1X1X1X1X1X1X1X1X",
"1X1X1X1X1X1X1X1X1X1X1X1X1X1X1X1X1X1X1X1X1X1X1X1X1X1X1X1X1X1X1X1X1X1X1X1X1X1X1X1X1X1X1X1X1X1X1X1X1X1X1X1X1X1X1X1X1X1X1X1X1X1X1X1X",
"1X1X1X1X1X1X1X1X1X1X1X1X1X1X1X1X1X1X1X1X1X1X1X1X1X1X1X1X1X1X1X1X1X1X1X1X1X1X1X1X1X1X1X1X1X1X1X1X1X1X1X1X1X1X1X1X1X1X1X1X1X1X1X1X",
"1X1X1X1X1X1X1X1X1X1X1X1X1X1X1X1X1X1X1X1X1X1X1X1X1X1X1X1X1X1X1X1X1X1X1X1X1X1X1X1X1X1X1X1X1X1X1X1X1X1X1X1X1X1X1X1X1X1X1X1X1X1X1X1X",
"1X1X1X1X1X1X1X1X1X1X1X1X1X1X1X1X1X1X1X1X1X1X1X1X1X1X1X1X1X1X1X1X1X1X1X1X1X1X1X1X1X1X1X1X1X1X1X1X1X1X1X1X1X1X1X1X1X1X1X1X1X1X1X1X",
"1X1X1X1X1X1X1X1X1X1X1X1X1X1X1X1X1X1X1X1X1X1X1X1X1X1X1X1X1X1X1X1X1X1X1X1X1X1X1X1X1X1X1X1X1X1X1X1X1X1X1X1X1X1X1X1X1X1X1X1X1X1X1X1X",
"1X1X1X1X1X1X1X1X1X1X1X1X1X1X1X1X1X1X1X1X1X1X1X1X1X1X1X1X1X1X1X1X1X1X1X1X1X1X1X1X1X1X1X1X1X1X1X1X1X1X1X1X1X1X1X1X1X1X1X1X1X1X1X1X",
"1X1X1X1X1X1X1X1X1X1X1X1X1X1X1X1X1X1X1X1X1X1X1X1X1X1X1X1X1X1X1X1X1X1X1X1X1X1X1X1X1X1X1X1X1X1X1X1X1X1X1X1X1X1X1X1X1X1X1X1X1X1X1X1X",
"1X1X1X1X1X1X1X1X1X1X1X1X1X1X1X1X1X1X1X1X1X1X1X1X1X1X1X1X1X1X1X1X1X1X1X1X1X1X1X1X1X1X1X1X1X1X1X1X1X1X1X1X1X1X1X1X1X1X1X1X1X1X1X1X",
"1X1X1X1X1X1X1X1X1X1X1X1X1X1X1X1X1X1X1X1X1X1X1X1X1X1X1X1X1X1X1X1X1X1X1X1X1X1X1X1X1X1X1X1X1X1X1X1X1X1X1X1X1X1X1X1X1X1X1X1X1X1X1X1X",
"1X1X1X1X1X1X1X1X1X1X1X1X1X1X1X1X1X1X1X1X1X1X1X1X1X1X1X1X1X1X1X1X1X1X1X1X1X1X1X1X1X1X1X1X1X1X1X1X1X1X1X1X1X1X1X1X1X1X1X1X1X1X1X1X",
"1X1X1X1X1X1X1X1X1X1X1X1X1X1X1X1X1X1X1X1X1X1X1X1X1X1X1X1X1X1X1X1X1X1X1X1X1X1X1X1X1X1X1X1X1X1X1X1X1X1X1X1X1X1X1X1X1X1X1X1X1X1X1X1X",
"1X1X1X1X1X1X1X1X1X1X1X1X1X1X1X1X1X1X1X1X1X1X1X1X1X1X1X1X1X1X1X1X1X1X1X1X1X1X1X1X1X1X1X1X1X1X1X1X1X1X1X1X1X1X1X1X1X1X1X1X1X1X1X1X"
};
